InterAlia-Black.ufo
<glyph name="exclam" format="2">
  <advance height="2479" width="727"/>
  <unicode hex="0021"/>
  <outline>
    <contour>
      <point x="567" y="1489" type="line"/>
      <point x="160" y="1489" type="line"/>
      <point x="198" y="465" type="line"/>
      <point x="529" y="465" type="line"/>
    </contour>
    <component base="period" xOffset="44"/>
  </outline>
</glyph>
<glyph name="numbersign" format="2">
  <advance height="2479" width="1356"/>
  <unicode hex="0023"/>
  <outline>
    <contour>
      <point x="672" y="0" type="line"/>
      <point x="963" y="0" type="line"/>
      <point x="1207" y="1489" type="line"/>
      <point x="916" y="1489" type="line"/>
    </contour>
    <contour>
      <point x="12" y="340" type="line"/>
      <point x="1210" y="340" type="line"/>
      <point x="1260" y="631" type="line"/>
      <point x="61" y="631" type="line"/>
    </contour>
    <contour>
      <point x="148" y="0" type="line"/>
      <point x="439" y="0" type="line"/>
      <point x="684" y="1489" type="line"/>
      <point x="393" y="1489" type="line"/>
    </contour>
    <contour>
      <point x="96" y="858" type="line"/>
      <point x="1295" y="858" type="line"/>
      <point x="1344" y="1149" type="line"/>
      <point x="145" y="1149" type="line"/>
    </contour>
  </outline>
</glyph>
<glyph name="dollar" format="2">
  <advance height="2479" width="1364"/>
  <unicode hex="0024"/>
  <anchor x="689" y="0" name="bottom"/>
  <anchor x="687" y="0" name="cedilla"/>
  <anchor x="684" y="1676" name="top"/>
  <outline>
    <contour>
      <point x="640" y="-186" type="line"/>
      <point x="759" y="-186" type="line"/>
      <point x="759" y="1676" type="line"/>
      <point x="640" y="1676" type="line"/>
    </contour>
    <component base="S"/>
  </outline>
</glyph>
<glyph name="ampersand" format="2">
  <advance height="2479" width="1428"/>
  <unicode hex="0026"/>
  <outline>
    <contour>
      <point x="582" y="-23" type="curve"/>
      <point x="707" y="-23"/>
      <point x="841" y="5"/>
      <point x="960" y="81" type="curve"/>
      <point x="1001" y="102"/>
      <point x="1039" y="119"/>
      <point x="1079" y="140" type="curve"/>
      <point x="1274" y="276"/>
      <point x="1350" y="518"/>
      <point x="1350" y="777" type="curve"/>
      <point x="1033" y="777" type="line"/>
      <point x="1033" y="495"/>
      <point x="809" y="291"/>
      <point x="611" y="291" type="curve" smooth="yes"/>
      <point x="513" y="291"/>
      <point x="451" y="340"/>
      <point x="451" y="425" type="curve"/>
      <point x="451" y="492"/>
      <point x="491" y="531"/>
      <point x="538" y="564" type="curve" smooth="yes"/>
      <point x="847" y="783" type="line" smooth="yes"/>
      <point x="974" y="873"/>
      <point x="1044" y="996"/>
      <point x="1044" y="1135" type="curve"/>
      <point x="1044" y="1341"/>
      <point x="890" y="1513"/>
      <point x="640" y="1513" type="curve" smooth="yes"/>
      <point x="378" y="1513"/>
      <point x="204" y="1327"/>
      <point x="204" y="1100" type="curve" smooth="yes"/>
      <point x="204" y="896"/>
      <point x="344" y="735"/>
      <point x="433" y="640" type="curve" smooth="yes"/>
      <point x="1039" y="0" type="line"/>
      <point x="1440" y="0" type="line"/>
      <point x="719" y="794" type="line"/>
      <point x="611" y="922"/>
      <point x="529" y="1007"/>
      <point x="529" y="1094" type="curve" smooth="yes"/>
      <point x="529" y="1156"/>
      <point x="572" y="1195"/>
      <point x="640" y="1196" type="curve" smooth="yes"/>
      <point x="713" y="1196"/>
      <point x="748" y="1153"/>
      <point x="748" y="1105" type="curve" smooth="yes"/>
      <point x="748" y="1069"/>
      <point x="728" y="1020"/>
      <point x="660" y="977" type="curve" smooth="yes"/>
      <point x="323" y="768" type="line"/>
      <point x="169" y="663"/>
      <point x="67" y="563"/>
      <point x="67" y="396" type="curve"/>
      <point x="67" y="165"/>
      <point x="261" y="-23"/>
    </contour>
  </outline>
</glyph>
<glyph name="quotesingle" format="2">
  <advance height="2479" width="582"/>
  <unicode hex="0027"/>
  <outline>
    <contour>
      <point x="460" y="1489" type="line"/>
      <point x="122" y="1489" type="line"/>
      <point x="157" y="887" type="line"/>
      <point x="425" y="887" type="line"/>
    </contour>
  </outline>
</glyph>
<glyph name="asterisk" format="2">
  <advance height="2479" width="1245"/>
  <unicode hex="002A"/>
  <outline>
    <contour>
      <point x="506" y="652" type="line"/>
      <point x="739" y="652" type="line"/>
      <point x="716" y="908" type="line"/>
      <point x="928" y="759" type="line"/>
      <point x="1044" y="963" type="line"/>
      <point x="812" y="1071" type="line"/>
      <point x="1044" y="1178" type="line"/>
      <point x="928" y="1382" type="line"/>
      <point x="716" y="1233" type="line"/>
      <point x="739" y="1489" type="line"/>
      <point x="506" y="1489" type="line"/>
      <point x="529" y="1233" type="line"/>
      <point x="317" y="1382" type="line"/>
      <point x="201" y="1178" type="line"/>
      <point x="433" y="1071" type="line"/>
      <point x="201" y="963" type="line"/>
      <point x="317" y="759" type="line"/>
      <point x="529" y="908" type="line"/>
    </contour>
  </outline>
</glyph>
<glyph name="slash" format="2">
  <advance height="2479" width="844"/>
  <unicode hex="002F"/>
  <outline>
    <contour>
      <point x="832" y="1559" type="line"/>
      <point x="492" y="1559" type="line"/>
      <point x="12" y="-224" type="line"/>
      <point x="352" y="-224" type="line"/>
    </contour>
  </outline>
</glyph>
<glyph name="zero" format="2">
  <advance height="2479" width="1495"/>
  <unicode hex="0030"/>
  <outline>
    <contour>
      <point x="748" y="-41" type="curve" smooth="yes"/>
      <point x="1153" y="-41"/>
      <point x="1404" y="249"/>
      <point x="1405" y="742" type="curve" smooth="yes"/>
      <point x="1406" y="1232"/>
      <point x="1153" y="1510"/>
      <point x="748" y="1510" type="curve" smooth="yes"/>
      <point x="342" y="1510"/>
      <point x="92" y="1233"/>
      <point x="90" y="742" type="curve" smooth="yes"/>
      <point x="89" y="251"/>
      <point x="342" y="-40"/>
    </contour>
    <contour>
      <point x="748" y="288" type="curve" smooth="yes"/>
      <point x="608" y="288"/>
      <point x="508" y="428"/>
      <point x="509" y="742" type="curve" smooth="yes"/>
      <point x="511" y="1048"/>
      <point x="608" y="1184"/>
      <point x="748" y="1184" type="curve" smooth="yes"/>
      <point x="887" y="1184"/>
      <point x="985" y="1048"/>
      <point x="986" y="742" type="curve" smooth="yes"/>
      <point x="987" y="428"/>
      <point x="887" y="288"/>
    </contour>
  </outline>
</glyph>
<glyph name="two" format="2">
  <advance height="2479" width="1324"/>
  <unicode hex="0032"/>
  <anchor x="896" y="817" name="cross"/>
  <outline>
    <contour>
      <point x="99" y="0" type="line"/>
      <point x="1242" y="0" type="line"/>
      <point x="1242" y="323" type="line"/>
      <point x="660" y="323" type="line"/>
      <point x="660" y="332" type="line"/>
      <point x="800" y="448" type="line" smooth="yes"/>
      <point x="1140" y="731"/>
      <point x="1226" y="878"/>
      <point x="1226" y="1050" type="curve" smooth="yes"/>
      <point x="1226" y="1328"/>
      <point x="999" y="1510"/>
      <point x="641" y="1510" type="curve" smooth="yes"/>
      <point x="295" y="1510"/>
      <point x="69" y="1317"/>
      <point x="70" y="1004" type="curve"/>
      <point x="454" y="1004" type="line"/>
      <point x="453" y="1129"/>
      <point x="529" y="1199"/>
      <point x="641" y="1199" type="curve" smooth="yes"/>
      <point x="753" y="1199"/>
      <point x="832" y="1129"/>
      <point x="832" y="1015" type="curve" smooth="yes"/>
      <point x="832" y="910"/>
      <point x="764" y="841"/>
      <point x="655" y="751" type="curve" smooth="yes"/>
      <point x="99" y="291" type="line"/>
    </contour>
  </outline>
</glyph>
<glyph name="three" format="2">
  <advance height="2479" width="1382"/>
  <unicode hex="0033"/>
  <outline>
    <contour>
      <point x="681" y="-20" type="curve" smooth="yes"/>
      <point x="1045" y="-20"/>
      <point x="1302" y="165"/>
      <point x="1300" y="428" type="curve" smooth="yes"/>
      <point x="1302" y="610"/>
      <point x="1180" y="739"/>
      <point x="940" y="765" type="curve"/>
      <point x="940" y="777" type="line"/>
      <point x="1117" y="796"/>
      <point x="1247" y="910"/>
      <point x="1245" y="1076" type="curve" smooth="yes"/>
      <point x="1247" y="1327"/>
      <point x="1014" y="1510"/>
      <point x="684" y="1510" type="curve" smooth="yes"/>
      <point x="346" y="1510"/>
      <point x="106" y="1317"/>
      <point x="105" y="1044" type="curve"/>
      <point x="492" y="1044" type="line"/>
      <point x="493" y="1135"/>
      <point x="572" y="1199"/>
      <point x="684" y="1199" type="curve" smooth="yes"/>
      <point x="785" y="1199"/>
      <point x="857" y="1137"/>
      <point x="855" y="1050" type="curve" smooth="yes"/>
      <point x="857" y="960"/>
      <point x="772" y="896"/>
      <point x="652" y="896" type="curve" smooth="yes"/>
      <point x="500" y="896" type="line"/>
      <point x="500" y="617" type="line"/>
      <point x="652" y="617" type="line" smooth="yes"/>
      <point x="783" y="617"/>
      <point x="874" y="553"/>
      <point x="873" y="463" type="curve" smooth="yes"/>
      <point x="874" y="370"/>
      <point x="796" y="305"/>
      <point x="684" y="305" type="curve" smooth="yes"/>
      <point x="567" y="305"/>
      <point x="484" y="367"/>
      <point x="483" y="454" type="curve"/>
      <point x="76" y="454" type="line"/>
      <point x="77" y="176"/>
      <point x="328" y="-20"/>
    </contour>
  </outline>
</glyph>
<glyph name="four" format="2">
  <advance height="2479" width="1437"/>
  <unicode hex="0034"/>
  <outline>
    <contour>
      <point x="84" y="233" type="line"/>
      <point x="1367" y="233" type="line"/>
      <point x="1367" y="547" type="line"/>
      <point x="483" y="547" type="line"/>
      <point x="483" y="559" type="line"/>
      <point x="806" y="1071" type="line"/>
      <point x="969" y="1071" type="line"/>
      <point x="969" y="1489" type="line"/>
      <point x="684" y="1489" type="line"/>
      <point x="84" y="547" type="line"/>
    </contour>
    <contour>
      <point x="809" y="0" type="line"/>
      <point x="1196" y="0" type="line"/>
      <point x="1196" y="1489" type="line"/>
      <point x="817" y="1489" type="line"/>
      <point x="817" y="465" type="line"/>
      <point x="809" y="329" type="line"/>
    </contour>
  </outline>
</glyph>
<glyph name="question" format="2">
  <advance height="2479" width="1228"/>
  <unicode hex="003F"/>
  <outline>
    <contour>
      <point x="396" y="465" type="line"/>
      <point x="739" y="465" type="line"/>
      <point x="739" y="500" type="line" smooth="yes"/>
      <point x="739" y="616"/>
      <point x="793" y="674"/>
      <point x="899" y="736" type="curve" smooth="yes"/>
      <point x="1041" y="819"/>
      <point x="1137" y="923"/>
      <point x="1137" y="1100" type="curve" smooth="yes"/>
      <point x="1137" y="1373"/>
      <point x="907" y="1510"/>
      <point x="596" y="1510" type="curve" smooth="yes"/>
      <point x="313" y="1510"/>
      <point x="79" y="1376"/>
      <point x="76" y="1056" type="curve"/>
      <point x="448" y="1056" type="line"/>
      <point x="448" y="1140"/>
      <point x="515" y="1199"/>
      <point x="593" y="1199" type="curve" smooth="yes"/>
      <point x="666" y="1199"/>
      <point x="724" y="1149"/>
      <point x="724" y="1076" type="curve" smooth="yes"/>
      <point x="724" y="995"/>
      <point x="654" y="945"/>
      <point x="561" y="884" type="curve" smooth="yes"/>
      <point x="453" y="814"/>
      <point x="396" y="740"/>
      <point x="396" y="500" type="curve" smooth="yes"/>
    </contour>
    <component base="period" xOffset="253"/>
  </outline>
</glyph>
<glyph name="at" format="2">
  <advance height="2479" width="2240"/>
  <unicode hex="0040"/>
  <outline>
    <contour>
      <point x="1155" y="-454" type="curve" smooth="yes"/>
      <point x="1401" y="-454"/>
      <point x="1613" y="-401"/>
      <point x="1705" y="-340" type="curve"/>
      <point x="1612" y="-79" type="line"/>
      <point x="1517" y="-119"/>
      <point x="1351" y="-151"/>
      <point x="1178" y="-151" type="curve" smooth="yes"/>
      <point x="720" y="-151"/>
      <point x="467" y="81"/>
      <point x="465" y="518" type="curve" smooth="yes"/>
      <point x="467" y="887"/>
      <point x="682" y="1216"/>
      <point x="1184" y="1216" type="curve" smooth="yes"/>
      <point x="1459" y="1216"/>
      <point x="1855" y="1155"/>
      <point x="1853" y="611" type="curve" smooth="yes"/>
      <point x="1855" y="358"/>
      <point x="1791" y="241"/>
      <point x="1722" y="241" type="curve" smooth="yes"/>
      <point x="1697" y="241"/>
      <point x="1677" y="256"/>
      <point x="1676" y="314" type="curve" smooth="yes"/>
      <point x="1676" y="1059" type="line"/>
      <point x="1399" y="1059" type="line"/>
      <point x="1399" y="977" type="line"/>
      <point x="1388" y="977" type="line"/>
      <point x="1360" y="1041"/>
      <point x="1180" y="1105"/>
      <point x="1004" y="1073" type="curve" smooth="yes"/>
      <point x="825" y="1041"/>
      <point x="586" y="896"/>
      <point x="585" y="509" type="curve" smooth="yes"/>
      <point x="586" y="122"/>
      <point x="825" y="-29"/>
      <point x="1039" y="-44" type="curve" smooth="yes"/>
      <point x="1203" y="-55"/>
      <point x="1392" y="6"/>
      <point x="1425" y="96" type="curve"/>
      <point x="1434" y="96" type="line"/>
      <point x="1450" y="12"/>
      <point x="1456" y="-73"/>
      <point x="1670" y="-52" type="curve" smooth="yes"/>
      <point x="1988" y="-23"/>
      <point x="2169" y="177"/>
      <point x="2167" y="585" type="curve" smooth="yes"/>
      <point x="2169" y="1181"/>
      <point x="1785" y="1516"/>
      <point x="1184" y="1516" type="curve" smooth="yes"/>
      <point x="516" y="1516"/>
      <point x="141" y="1097"/>
      <point x="140" y="500" type="curve" smooth="yes"/>
      <point x="141" y="-99"/>
      <point x="519" y="-454"/>
    </contour>
    <contour>
      <point x="1155" y="256" type="curve" smooth="yes"/>
      <point x="964" y="256"/>
      <point x="903" y="384"/>
      <point x="902" y="518" type="curve" smooth="yes"/>
      <point x="903" y="681"/>
      <point x="991" y="765"/>
      <point x="1149" y="765" type="curve" smooth="yes"/>
      <point x="1340" y="765"/>
      <point x="1369" y="649"/>
      <point x="1370" y="521" type="curve" smooth="yes"/>
      <point x="1375" y="352"/>
      <point x="1322" y="256"/>
    </contour>
  </outline>
</glyph>
<glyph name="B" format="2">
  <advance height="2479" width="1367"/>
  <unicode hex="0042"/>
  <anchor x="663" y="0" name="bottom"/>
  <anchor x="666" y="1676" name="top"/>
  <outline>
    <contour>
      <point x="96" y="0" type="line"/>
      <point x="797" y="0" type="line" smooth="yes"/>
      <point x="1121" y="0"/>
      <point x="1321" y="177"/>
      <point x="1321" y="422" type="curve" smooth="yes"/>
      <point x="1321" y="632"/>
      <point x="1166" y="769"/>
      <point x="975" y="777" type="curve"/>
      <point x="975" y="791" type="line"/>
      <point x="1147" y="825"/>
      <point x="1263" y="953"/>
      <point x="1263" y="1117" type="curve" smooth="yes"/>
      <point x="1263" y="1344"/>
      <point x="1082" y="1489"/>
      <point x="742" y="1489" type="curve" smooth="yes"/>
      <point x="96" y="1489" type="line"/>
    </contour>
    <contour>
      <point x="500" y="323" type="line"/>
      <point x="500" y="637" type="line"/>
      <point x="695" y="637" type="line" smooth="yes"/>
      <point x="818" y="637"/>
      <point x="893" y="579"/>
      <point x="893" y="474" type="curve" smooth="yes"/>
      <point x="893" y="375"/>
      <point x="825" y="323"/>
      <point x="689" y="323" type="curve" smooth="yes"/>
    </contour>
    <contour>
      <point x="500" y="887" type="line"/>
      <point x="500" y="1172" type="line"/>
      <point x="672" y="1172" type="line" smooth="yes"/>
      <point x="772" y="1172"/>
      <point x="847" y="1121"/>
      <point x="847" y="1030" type="curve" smooth="yes"/>
      <point x="847" y="938"/>
      <point x="772" y="887"/>
      <point x="666" y="887" type="curve" smooth="yes"/>
    </contour>
  </outline>
</glyph>
<glyph name="F" format="2">
  <advance height="2479" width="1196"/>
  <unicode hex="0046"/>
  <anchor x="643" y="12" name="bottom"/>
  <anchor x="297" y="250" name="cross"/>
  <anchor x="623" y="1676" name="top"/>
  <outline>
    <contour>
      <point x="96" y="0" type="line"/>
      <point x="500" y="0" type="line"/>
      <point x="500" y="582" type="line"/>
      <point x="1079" y="582" type="line"/>
      <point x="1079" y="908" type="line"/>
      <point x="500" y="908" type="line"/>
      <point x="500" y="1164" type="line"/>
      <point x="1143" y="1164" type="line"/>
      <point x="1143" y="1489" type="line"/>
      <point x="96" y="1489" type="line"/>
    </contour>
  </outline>
</glyph>
<glyph name="G" format="2">
  <advance height="2479" width="1583"/>
  <unicode hex="0047"/>
  <anchor x="803" y="6" name="bottom"/>
  <anchor x="806" y="1676" name="top"/>
  <outline>
    <contour>
      <point x="1063" y="998" type="curve"/>
      <point x="1472" y="998" type="line"/>
      <point x="1441" y="1297"/>
      <point x="1169" y="1510"/>
      <point x="817" y="1510" type="curve" smooth="yes"/>
      <point x="416" y="1510"/>
      <point x="90" y="1233"/>
      <point x="90" y="742" type="curve" smooth="yes"/>
      <point x="90" y="271"/>
      <point x="385" y="-20"/>
      <point x="820" y="-20" type="curve" smooth="yes"/>
      <point x="1210" y="-20"/>
      <point x="1489" y="218"/>
      <point x="1489" y="625" type="curve" smooth="yes"/>
      <point x="1489" y="832" type="line"/>
      <point x="829" y="832" type="line"/>
      <point x="829" y="544" type="line"/>
      <point x="1169" y="544" type="line"/>
      <point x="1100" y="551" type="line"/>
      <point x="1100" y="417"/>
      <point x="1008" y="332"/>
      <point x="823" y="332" type="curve" smooth="yes"/>
      <point x="614" y="332"/>
      <point x="506" y="486"/>
      <point x="506" y="748" type="curve" smooth="yes"/>
      <point x="506" y="1006"/>
      <point x="623" y="1158"/>
      <point x="826" y="1158" type="curve" smooth="yes"/>
      <point x="953" y="1158"/>
      <point x="1039" y="1100"/>
    </contour>
  </outline>
</glyph>
<glyph name="H" format="2">
  <advance height="2479" width="1536"/>
  <unicode hex="0048"/>
  <anchor x="768" y="0" name="bottom"/>
  <anchor x="288" y="0" name="cedilla"/>
  <anchor x="1632" y="163" name="cyrtic"/>
  <anchor x="1440" y="0" name="right"/>
  <anchor x="61" y="1489" name="tonos"/>
  <anchor x="768" y="1676" name="top"/>
  <outline>
    <contour>
      <point x="96" y="0" type="line"/>
      <point x="500" y="0" type="line"/>
      <point x="500" y="582" type="line"/>
      <point x="1036" y="582" type="line"/>
      <point x="1036" y="0" type="line"/>
      <point x="1440" y="0" type="line"/>
      <point x="1440" y="1489" type="line"/>
      <point x="1036" y="1489" type="line"/>
      <point x="1036" y="908" type="line"/>
      <point x="500" y="908" type="line"/>
      <point x="500" y="1489" type="line"/>
      <point x="96" y="1489" type="line"/>
    </contour>
  </outline>
</glyph>
<glyph name="M" format="2">
  <advance height="2479" width="1908"/>
  <unicode hex="004D"/>
  <anchor x="954" y="0" name="bottom"/>
  <anchor x="1812" y="0" name="right"/>
  <anchor x="954" y="1676" name="top"/>
  <outline>
    <contour>
      <point x="96" y="1489" type="line"/>
      <point x="96" y="0" type="line"/>
      <point x="492" y="0" type="line"/>
      <point x="492" y="867" type="line"/>
      <point x="503" y="867" type="line"/>
      <point x="835" y="0" type="line"/>
      <point x="1073" y="0" type="line"/>
      <point x="1405" y="861" type="line"/>
      <point x="1417" y="861" type="line"/>
      <point x="1417" y="0" type="line"/>
      <point x="1812" y="0" type="line"/>
      <point x="1812" y="1489" type="line"/>
      <point x="1309" y="1489" type="line"/>
      <point x="963" y="646" type="line"/>
      <point x="945" y="646" type="line"/>
      <point x="599" y="1489" type="line"/>
    </contour>
  </outline>
</glyph>
<glyph name="P" format="2">
  <advance height="2479" width="1344"/>
  <unicode hex="0050"/>
  <anchor x="76" y="1489" name="tonos"/>
  <anchor x="657" y="1676" name="top"/>
  <outline>
    <contour>
      <point x="96" y="0" type="line"/>
      <point x="500" y="0" type="line"/>
      <point x="500" y="1167" type="line"/>
      <point x="643" y="1167" type="line" smooth="yes"/>
      <point x="785" y="1167"/>
      <point x="870" y="1091"/>
      <point x="870" y="963" type="curve" smooth="yes"/>
      <point x="870" y="836"/>
      <point x="785" y="756"/>
      <point x="643" y="756" type="curve" smooth="yes"/>
      <point x="340" y="756" type="line"/>
      <point x="340" y="442" type="line"/>
      <point x="724" y="442" type="line" smooth="yes"/>
      <point x="1064" y="442"/>
      <point x="1292" y="642"/>
      <point x="1292" y="963" type="curve" smooth="yes"/>
      <point x="1292" y="1280"/>
      <point x="1070" y="1489"/>
      <point x="739" y="1489" type="curve" smooth="yes"/>
      <point x="96" y="1489" type="line"/>
    </contour>
  </outline>
</glyph>
<glyph name="Q" format="2">
  <advance height="2479" width="1632"/>
  <unicode hex="0051"/>
  <anchor x="815" y="0" name="bottom"/>
  <anchor x="1021" y="6" name="ogonek"/>
  <anchor x="172" y="1489" name="tonos"/>
  <anchor x="815" y="1676" name="top"/>
  <outline>
    <contour>
      <point x="672" y="553" type="line"/>
      <point x="887" y="268" type="line"/>
      <point x="1007" y="96" type="line"/>
      <point x="1184" y="-111" type="line"/>
      <point x="1542" y="-111" type="line"/>
      <point x="1292" y="192" type="line"/>
      <point x="1100" y="410" type="line"/>
      <point x="986" y="553" type="line"/>
    </contour>
    <component base="O"/>
  </outline>
</glyph>
<glyph name="S" format="2">
  <advance height="2479" width="1364"/>
  <unicode hex="0053"/>
  <anchor x="689" y="0" name="bottom"/>
  <anchor x="687" y="0" name="cedilla"/>
  <anchor x="684" y="1676" name="top"/>
  <outline>
    <contour>
      <point x="899" y="1024" type="curve"/>
      <point x="1286" y="1024" type="line"/>
      <point x="1284" y="1316"/>
      <point x="1059" y="1510"/>
      <point x="698" y="1510" type="curve" smooth="yes"/>
      <point x="344" y="1510"/>
      <point x="94" y="1319"/>
      <point x="96" y="1036" type="curve" smooth="yes"/>
      <point x="95" y="803"/>
      <point x="257" y="673"/>
      <point x="521" y="617" type="curve" smooth="yes"/>
      <point x="669" y="585" type="line" smooth="yes"/>
      <point x="835" y="548"/>
      <point x="892" y="507"/>
      <point x="893" y="439" type="curve" smooth="yes" name="hr00"/>
      <point x="892" y="366"/>
      <point x="825" y="314"/>
      <point x="695" y="314" type="curve" smooth="yes"/>
      <point x="540" y="314"/>
      <point x="449" y="387"/>
      <point x="442" y="524" type="curve"/>
      <point x="58" y="524" type="line"/>
      <point x="60" y="150"/>
      <point x="313" y="-17"/>
      <point x="701" y="-17" type="curve" smooth="yes"/>
      <point x="1079" y="-17"/>
      <point x="1305" y="145"/>
      <point x="1306" y="439" type="curve" smooth="yes"/>
      <point x="1305" y="666"/>
      <point x="1169" y="825"/>
      <point x="841" y="896" type="curve" smooth="yes"/>
      <point x="719" y="922" type="line" smooth="yes"/>
      <point x="577" y="952"/>
      <point x="514" y="993"/>
      <point x="518" y="1065" type="curve" smooth="yes"/>
      <point x="519" y="1130"/>
      <point x="573" y="1178"/>
      <point x="698" y="1178" type="curve" smooth="yes"/>
      <point x="829" y="1178"/>
      <point x="891" y="1121"/>
    </contour>
  </outline>
</glyph>
<glyph name="T" format="2">
  <advance height="2479" width="1405"/>
  <unicode hex="0054"/>
  <anchor x="701" y="0" name="bottom"/>
  <anchor x="695" y="0" name="cedilla"/>
  <anchor x="701" y="666" name="cross"/>
  <anchor x="1076" y="163" name="cyrtic"/>
  <anchor x="855" y="0" name="right"/>
  <anchor x="704" y="1676" name="top"/>
  <outline>
    <contour>
      <point x="55" y="1164" type="line"/>
      <point x="503" y="1164" type="line"/>
      <point x="503" y="0" type="line"/>
      <point x="902" y="0" type="line"/>
      <point x="902" y="1164" type="line"/>
      <point x="1350" y="1164" type="line"/>
      <point x="1350" y="1489" type="line"/>
      <point x="55" y="1489" type="line"/>
    </contour>
  </outline>
</glyph>
<glyph name="V" format="2">
  <advance height="2479" width="1629"/>
  <unicode hex="0056"/>
  <anchor x="815" y="0" name="bottom"/>
  <anchor x="815" y="1676" name="top"/>
  <outline>
    <contour>
      <point x="503" y="1489" type="line"/>
      <point x="47" y="1489" type="line"/>
      <point x="538" y="0" type="line"/>
      <point x="1091" y="0" type="line"/>
      <point x="1583" y="1489" type="line"/>
      <point x="1126" y="1489" type="line"/>
      <point x="820" y="439" type="line"/>
      <point x="809" y="439" type="line"/>
    </contour>
  </outline>
</glyph>
<glyph name="X" format="2">
  <advance height="2479" width="1562"/>
  <unicode hex="0058"/>
  <anchor x="780" y="-6" name="bottom"/>
  <anchor x="780" y="745" name="cross"/>
  <anchor x="1425" y="163" name="cyrtic"/>
  <anchor x="1292" y="0" name="right"/>
  <anchor x="780" y="1676" name="top"/>
  <outline>
    <contour>
      <point x="529" y="1489" type="line"/>
      <point x="76" y="1489" type="line"/>
      <point x="518" y="745" type="line"/>
      <point x="61" y="0" type="line"/>
      <point x="521" y="0" type="line"/>
      <point x="774" y="442" type="line"/>
      <point x="785" y="442" type="line"/>
      <point x="1039" y="0" type="line"/>
      <point x="1501" y="0" type="line"/>
      <point x="1039" y="745" type="line"/>
      <point x="1484" y="1489" type="line"/>
      <point x="1033" y="1489" type="line"/>
      <point x="785" y="1056" type="line"/>
      <point x="774" y="1056" type="line"/>
    </contour>
  </outline>
</glyph>
<glyph name="Y" format="2">
  <advance height="2479" width="1565"/>
  <unicode hex="0059"/>
  <anchor x="783" y="0" name="bottom"/>
  <anchor x="783" y="556" name="cross"/>
  <anchor x="983" y="0" name="ogonek"/>
  <anchor x="-70" y="1489" name="tonos"/>
  <anchor x="783" y="1676" name="top"/>
  <outline>
    <contour>
      <point x="35" y="1489" type="line"/>
      <point x="582" y="468" type="line"/>
      <point x="582" y="0" type="line"/>
      <point x="983" y="0" type="line"/>
      <point x="983" y="468" type="line"/>
      <point x="1530" y="1489" type="line"/>
      <point x="1079" y="1489" type="line"/>
      <point x="788" y="884" type="line"/>
      <point x="777" y="884" type="line"/>
      <point x="486" y="1489" type="line"/>
    </contour>
  </outline>
</glyph>
<glyph name="Z" format="2">
  <advance height="2479" width="1423"/>
  <unicode hex="005A"/>
  <anchor x="713" y="0" name="bottom"/>
  <anchor x="742" y="788" name="cross"/>
  <anchor x="716" y="1676" name="top"/>
  <outline>
    <contour>
      <point x="102" y="0" type="line"/>
      <point x="1318" y="0" type="line"/>
      <point x="1318" y="326" type="line"/>
      <point x="617" y="326" type="line"/>
      <point x="1321" y="1265" type="line"/>
      <point x="1321" y="1489" type="line"/>
      <point x="105" y="1489" type="line"/>
      <point x="105" y="1164" type="line"/>
      <point x="806" y="1164" type="line"/>
      <point x="102" y="224" type="line"/>
    </contour>
  </outline>
</glyph>
<glyph name="backslash" format="2">
  <advance height="2479" width="844"/>
  <unicode hex="005C"/>
  <outline>
    <contour>
      <point x="492" y="-224" type="line"/>
      <point x="832" y="-224" type="line"/>
      <point x="352" y="1559" type="line"/>
      <point x="12" y="1559" type="line"/>
    </contour>
  </outline>
</glyph>
<glyph name="asciicircum" format="2">
  <advance height="2479" width="1024"/>
  <unicode hex="005E"/>
  <outline>
    <contour>
      <point x="486" y="1306" type="line"/>
      <point x="486" y="1222" type="line"/>
      <point x="538" y="1222" type="line"/>
      <point x="538" y="1306" type="line"/>
    </contour>
    <contour>
      <point x="58" y="815" type="line"/>
      <point x="335" y="815" type="line"/>
      <point x="518" y="1251" type="line"/>
      <point x="506" y="1251" type="line"/>
      <point x="689" y="815" type="line"/>
      <point x="966" y="815" type="line"/>
      <point x="655" y="1466" type="line"/>
      <point x="369" y="1466" type="line"/>
    </contour>
  </outline>
</glyph>
<glyph name="e" format="2">
  <advance height="2479" width="1245"/>
  <unicode hex="0065"/>
  <anchor x="623" y="0" name="bottom"/>
  <anchor x="628" y="0" name="cedilla"/>
  <anchor x="957" y="49" name="ogonek"/>
  <anchor x="623" y="1303" name="top"/>
  <outline>
    <contour>
      <point x="637" y="-20" type="curve"/>
      <point x="947" y="-20"/>
      <point x="1146" y="128"/>
      <point x="1184" y="361" type="curve"/>
      <point x="817" y="361" type="line"/>
      <point x="794" y="297"/>
      <point x="728" y="262"/>
      <point x="646" y="262" type="curve" smooth="yes"/>
      <point x="527" y="262"/>
      <point x="457" y="340"/>
      <point x="457" y="448" type="curve"/>
      <point x="457" y="687" type="line"/>
      <point x="459" y="783"/>
      <point x="539" y="849"/>
      <point x="637" y="849" type="curve" smooth="yes"/>
      <point x="737" y="849"/>
      <point x="812" y="783"/>
      <point x="815" y="687" type="curve"/>
      <point x="186" y="687" type="line"/>
      <point x="186" y="465" type="line"/>
      <point x="1184" y="465" type="line"/>
      <point x="1184" y="559" type="line" smooth="yes"/>
      <point x="1184" y="914"/>
      <point x="966" y="1132"/>
      <point x="628" y="1132" type="curve" smooth="yes"/>
      <point x="282" y="1132"/>
      <point x="61" y="902"/>
      <point x="61" y="556" type="curve"/>
      <point x="61" y="194"/>
      <point x="279" y="-20"/>
    </contour>
  </outline>
</glyph>
<glyph name="k" format="2">
  <advance height="2479" width="1242"/>
  <unicode hex="006B"/>
  <anchor x="628" y="0" name="bottom"/>
  <anchor x="303" y="1676" name="top"/>
  <outline>
    <contour>
      <point x="463" y="265" type="line"/>
      <point x="672" y="532" type="line"/>
      <point x="785" y="532" type="line"/>
      <point x="1239" y="1117" type="line"/>
      <point x="788" y="1117" type="line"/>
      <point x="518" y="742" type="line"/>
      <point x="465" y="742" type="line"/>
    </contour>
    <contour>
      <point x="102" y="0" type="line"/>
      <point x="503" y="0" type="line"/>
      <point x="503" y="1489" type="line"/>
      <point x="102" y="1489" type="line"/>
    </contour>
    <contour>
      <point x="791" y="0" type="line"/>
      <point x="1251" y="0" type="line"/>
      <point x="797" y="727" type="line"/>
      <point x="535" y="442" type="line"/>
    </contour>
  </outline>
</glyph>
<glyph name="l" format="2">
  <advance height="2479" width="605"/>
  <unicode hex="006C"/>
  <anchor x="303" y="0" name="bottom"/>
  <anchor x="303" y="768" name="cross"/>
  <anchor x="620" y="1489" name="raccent"/>
  <anchor x="303" y="1676" name="top"/>
  <outline>
    <contour>
      <point x="503" y="1489" type="line"/>
      <point x="102" y="1489" type="line"/>
      <point x="102" y="0" type="line"/>
      <point x="503" y="0" type="line"/>
    </contour>
  </outline>
</glyph>
<glyph name="m" format="2">
  <advance height="2479" width="1926"/>
  <unicode hex="006D"/>
  <anchor x="966" y="0" name="bottom"/>
  <anchor x="966" y="1303" name="top"/>
  <outline>
    <contour>
      <point x="102" y="0" type="line"/>
      <point x="503" y="0" type="line"/>
      <point x="503" y="652" type="line" smooth="yes"/>
      <point x="503" y="749"/>
      <point x="554" y="809"/>
      <point x="637" y="809" type="curve" smooth="yes"/>
      <point x="720" y="809"/>
      <point x="774" y="749"/>
      <point x="774" y="652" type="curve" smooth="yes"/>
      <point x="774" y="0" type="line"/>
      <point x="1158" y="0" type="line"/>
      <point x="1158" y="652" type="line" smooth="yes"/>
      <point x="1158" y="749"/>
      <point x="1209" y="809"/>
      <point x="1292" y="809" type="curve" smooth="yes"/>
      <point x="1375" y="809"/>
      <point x="1428" y="749"/>
      <point x="1428" y="652" type="curve" smooth="yes"/>
      <point x="1428" y="0" type="line"/>
      <point x="1830" y="0" type="line"/>
      <point x="1830" y="753" type="line" smooth="yes"/>
      <point x="1830" y="983"/>
      <point x="1683" y="1132"/>
      <point x="1469" y="1132" type="curve" smooth="yes"/>
      <point x="1303" y="1132"/>
      <point x="1169" y="1041"/>
      <point x="1132" y="905" type="curve"/>
      <point x="1120" y="905" type="line"/>
      <point x="1097" y="1041"/>
      <point x="972" y="1132"/>
      <point x="815" y="1132" type="curve" smooth="yes"/>
      <point x="660" y="1132"/>
      <point x="541" y="1044"/>
      <point x="495" y="905" type="curve"/>
      <point x="483" y="905" type="line"/>
      <point x="483" y="1117" type="line"/>
      <point x="102" y="1117" type="line"/>
    </contour>
  </outline>
</glyph>
<glyph name="p" format="2">
  <advance height="2479" width="1321"/>
  <unicode hex="0070"/>
  <anchor x="305" y="-401" name="bottom"/>
  <anchor x="1388" y="-477" name="bottom0315"/>
  <anchor x="300" y="-163" name="cross"/>
  <anchor x="727" y="1303" name="top"/>
  <outline>
    <contour>
      <point x="102" y="-419" type="line"/>
      <point x="503" y="-419" type="line"/>
      <point x="503" y="183" type="line"/>
      <point x="509" y="183" type="line"/>
      <point x="556" y="70"/>
      <point x="663" y="-15"/>
      <point x="820" y="-15" type="curve" smooth="yes"/>
      <point x="1059" y="-15"/>
      <point x="1260" y="172"/>
      <point x="1260" y="559" type="curve"/>
      <point x="1260" y="963"/>
      <point x="1044" y="1132"/>
      <point x="823" y="1132" type="curve" smooth="yes"/>
      <point x="657" y="1132"/>
      <point x="553" y="1036"/>
      <point x="509" y="922" type="curve"/>
      <point x="500" y="922" type="line"/>
      <point x="500" y="1117" type="line"/>
      <point x="102" y="1117" type="line"/>
    </contour>
    <contour>
      <point x="495" y="559" type="curve"/>
      <point x="495" y="724"/>
      <point x="561" y="823"/>
      <point x="672" y="823" type="curve" smooth="yes"/>
      <point x="783" y="823"/>
      <point x="847" y="724"/>
      <point x="847" y="559" type="curve" smooth="yes"/>
      <point x="847" y="393"/>
      <point x="783" y="294"/>
      <point x="672" y="294" type="curve" smooth="yes"/>
      <point x="561" y="294"/>
      <point x="495" y="396"/>
    </contour>
  </outline>
</glyph>
<glyph name="s" format="2">
  <advance height="2479" width="1204"/>
  <unicode hex="0073"/>
  <anchor x="605" y="0" name="bottom"/>
  <anchor x="614" y="0" name="cedilla"/>
  <anchor x="605" y="1303" name="top"/>
  <outline>
    <contour>
      <point x="1123" y="753" type="line"/>
      <point x="1113" y="990"/>
      <point x="916" y="1132"/>
      <point x="593" y="1132" type="curve" smooth="yes"/>
      <point x="274" y="1132"/>
      <point x="77" y="1001"/>
      <point x="79" y="768" type="curve" smooth="yes"/>
      <point x="77" y="592"/>
      <point x="191" y="479"/>
      <point x="419" y="439" type="curve" smooth="yes"/>
      <point x="617" y="404" type="line" smooth="yes"/>
      <point x="704" y="388"/>
      <point x="743" y="365"/>
      <point x="745" y="323" type="curve" smooth="yes"/>
      <point x="743" y="276"/>
      <point x="690" y="250"/>
      <point x="617" y="250" type="curve" smooth="yes"/>
      <point x="526" y="250"/>
      <point x="462" y="289"/>
      <point x="451" y="361" type="curve"/>
      <point x="52" y="361" type="line"/>
      <point x="74" y="132"/>
      <point x="272" y="-20"/>
      <point x="614" y="-20" type="curve" smooth="yes"/>
      <point x="923" y="-20"/>
      <point x="1151" y="130"/>
      <point x="1152" y="369" type="curve" smooth="yes"/>
      <point x="1151" y="535"/>
      <point x="1040" y="631"/>
      <point x="812" y="672" type="curve" smooth="yes"/>
      <point x="585" y="713" type="line" smooth="yes"/>
      <point x="500" y="728"/>
      <point x="476" y="759"/>
      <point x="477" y="791" type="curve" smooth="yes"/>
      <point x="476" y="838"/>
      <point x="533" y="864"/>
      <point x="602" y="864" type="curve" smooth="yes"/>
      <point x="681" y="864"/>
      <point x="748" y="822"/>
      <point x="753" y="753" type="curve"/>
    </contour>
  </outline>
</glyph>
<glyph name="t" format="2">
  <advance height="2479" width="829"/>
  <unicode hex="0074"/>
  <anchor x="705" y="1562" name="raccent"/>
  <anchor x="464" y="0" name="bottom"/>
  <anchor x="570" y="0" name="cedilla"/>
  <anchor x="375" y="1542" name="top"/>
  <outline>
    <contour>
      <point x="768" y="1117" type="line"/>
      <point x="32" y="1117" type="line"/>
      <point x="32" y="826" type="line"/>
      <point x="768" y="826" type="line"/>
    </contour>
    <component base="_part.t_base"/>
  </outline>
</glyph>
<glyph name="u" format="2">
  <advance height="2479" width="1329"/>
  <unicode hex="0075"/>
  <anchor x="742" y="0" name="bottom"/>
  <anchor x="1228" y="0" name="ogonek"/>
  <anchor x="666" y="1303" name="top"/>
  <outline>
    <contour>
      <point x="826" y="489" type="line" smooth="yes"/>
      <point x="827" y="378"/>
      <point x="763" y="311"/>
      <point x="663" y="311" type="curve" smooth="yes"/>
      <point x="562" y="311"/>
      <point x="504" y="378"/>
      <point x="503" y="489" type="curve" smooth="yes"/>
      <point x="503" y="1117" type="line"/>
      <point x="102" y="1117" type="line"/>
      <point x="102" y="404" type="line" smooth="yes"/>
      <point x="103" y="160"/>
      <point x="257" y="-15"/>
      <point x="492" y="-15" type="curve" smooth="yes"/>
      <point x="658" y="-15"/>
      <point x="786" y="70"/>
      <point x="835" y="212" type="curve"/>
      <point x="847" y="212" type="line"/>
      <point x="847" y="0" type="line"/>
      <point x="1228" y="0" type="line"/>
      <point x="1228" y="1117" type="line"/>
      <point x="826" y="1117" type="line"/>
    </contour>
  </outline>
</glyph>
<glyph name="x" format="2">
  <advance height="2479" width="1222"/>
  <unicode hex="0078"/>
  <anchor x="611" y="0" name="bottom"/>
  <anchor x="611" y="559" name="cross"/>
  <anchor x="1143" y="163" name="cyrtic"/>
  <anchor x="977" y="0" name="right"/>
  <anchor x="611" y="1303" name="top"/>
  <outline>
    <contour>
      <point x="448" y="1117" type="line"/>
      <point x="47" y="1117" type="line"/>
      <point x="343" y="559" type="line"/>
      <point x="26" y="0" type="line"/>
      <point x="428" y="0" type="line"/>
      <point x="611" y="355" type="line"/>
      <point x="800" y="0" type="line"/>
      <point x="1196" y="0" type="line"/>
      <point x="881" y="559" type="line"/>
      <point x="1181" y="1117" type="line"/>
      <point x="783" y="1117" type="line"/>
      <point x="611" y="771" type="line"/>
    </contour>
  </outline>
</glyph>
<glyph name="y" format="2">
  <advance height="2479" width="1239"/>
  <unicode hex="0079"/>
  <anchor x="1011" y="0" name="bottom"/>
  <anchor x="810" y="-419" name="ogonek"/>
  <anchor x="617" y="1303" name="top"/>
  <outline>
    <contour>
      <point x="346" y="-419" type="curve" smooth="yes"/>
      <point x="627" y="-419"/>
      <point x="759" y="-278"/>
      <point x="820" y="-93" type="curve" smooth="yes"/>
      <point x="1228" y="1117" type="line"/>
      <point x="806" y="1117" type="line"/>
      <point x="623" y="343" type="line"/>
      <point x="611" y="343" type="line"/>
      <point x="431" y="1117" type="line"/>
      <point x="12" y="1117" type="line"/>
      <point x="404" y="-49" type="line"/>
      <point x="396" y="-70" type="line" smooth="yes"/>
      <point x="369" y="-132"/>
      <point x="291" y="-129"/>
      <point x="192" y="-95" type="curve"/>
      <point x="105" y="-380" type="line"/>
      <point x="167" y="-404"/>
      <point x="254" y="-419"/>
    </contour>
  </outline>
</glyph>
<glyph name="braceleft" format="2">
  <advance height="2479" width="902"/>
  <unicode hex="007B"/>
  <outline>
    <contour>
      <point x="55" y="567" type="line"/>
      <point x="572" y="567"/>
      <point x="672" y="713"/>
      <point x="672" y="858" type="curve" smooth="yes"/>
      <point x="672" y="1018" type="line" smooth="yes"/>
      <point x="672" y="1140"/>
      <point x="695" y="1199"/>
      <point x="870" y="1199" type="curve"/>
      <point x="870" y="1489" type="line"/>
      <point x="570" y="1489"/>
      <point x="282" y="1489"/>
      <point x="282" y="1071" type="curve" smooth="yes"/>
      <point x="282" y="957" type="line" smooth="yes"/>
      <point x="282" y="815"/>
      <point x="225" y="751"/>
      <point x="55" y="751" type="curve"/>
    </contour>
    <contour>
      <point x="870" y="-337" type="curve"/>
      <point x="870" y="-47" type="line"/>
      <point x="695" y="-47"/>
      <point x="672" y="12"/>
      <point x="672" y="134" type="curve" smooth="yes"/>
      <point x="672" y="294" type="line" smooth="yes"/>
      <point x="672" y="439"/>
      <point x="572" y="585"/>
      <point x="55" y="585" type="curve"/>
      <point x="55" y="401" type="line"/>
      <point x="225" y="401"/>
      <point x="282" y="337"/>
      <point x="282" y="195" type="curve" smooth="yes"/>
      <point x="282" y="81" type="line" smooth="yes"/>
      <point x="282" y="-337"/>
      <point x="570" y="-337"/>
    </contour>
    <contour>
      <point x="55" y="401" type="line"/>
      <point x="375" y="401" type="line"/>
      <point x="375" y="751" type="line"/>
      <point x="55" y="751" type="line"/>
    </contour>
  </outline>
</glyph>
<glyph name="asciitilde" format="2">
  <advance height="2479" width="1420"/>
  <unicode hex="007E"/>
  <outline>
    <contour>
      <point x="148" y="375" type="curve"/>
      <point x="439" y="375" type="line"/>
      <point x="436" y="492"/>
      <point x="483" y="538"/>
      <point x="544" y="538" type="curve" smooth="yes"/>
      <point x="593" y="538"/>
      <point x="613" y="516"/>
      <point x="666" y="468" type="curve" smooth="yes"/>
      <point x="765" y="381"/>
      <point x="845" y="346"/>
      <point x="940" y="346" type="curve" smooth="yes"/>
      <point x="1161" y="346"/>
      <point x="1284" y="537"/>
      <point x="1271" y="835" type="curve"/>
      <point x="980" y="835" type="line"/>
      <point x="984" y="718"/>
      <point x="935" y="672"/>
      <point x="876" y="672" type="curve" smooth="yes"/>
      <point x="825" y="672"/>
      <point x="796" y="702"/>
      <point x="751" y="742" type="curve" smooth="yes"/>
      <point x="644" y="837"/>
      <point x="567" y="864"/>
      <point x="480" y="864" type="curve" smooth="yes"/>
      <point x="250" y="864"/>
      <point x="136" y="673"/>
    </contour>
  </outline>
</glyph>
<glyph name="sterling" format="2">
  <advance height="2479" width="1431"/>
  <unicode hex="00A3"/>
  <outline>
    <contour>
      <point x="1297" y="0" type="line"/>
      <point x="1297" y="326" type="line"/>
      <point x="151" y="326" type="line"/>
      <point x="151" y="0" type="line"/>
    </contour>
    <contour>
      <point x="1027" y="602" type="line"/>
      <point x="1027" y="905" type="line"/>
      <point x="148" y="905" type="line"/>
      <point x="148" y="602" type="line"/>
    </contour>
    <contour>
      <point x="707" y="1088" type="line"/>
      <point x="705" y="1158"/>
      <point x="729" y="1196"/>
      <point x="788" y="1196" type="curve" smooth="yes"/>
      <point x="857" y="1196"/>
      <point x="906" y="1175"/>
      <point x="913" y="1071" type="curve"/>
      <point x="1292" y="1088" type="line"/>
      <point x="1273" y="1359"/>
      <point x="1107" y="1510"/>
      <point x="785" y="1510" type="curve" smooth="yes"/>
      <point x="484" y="1510"/>
      <point x="292" y="1350"/>
      <point x="303" y="1088" type="curve" smooth="yes"/>
      <point x="326" y="448" type="line" smooth="yes"/>
      <point x="327" y="378"/>
      <point x="319" y="349"/>
      <point x="271" y="326" type="curve"/>
      <point x="480" y="204" type="line"/>
      <point x="662" y="271"/>
      <point x="735" y="337"/>
      <point x="730" y="477" type="curve" smooth="yes"/>
    </contour>
  </outline>
</glyph>
<glyph name="currency" format="2">
  <advance height="2479" width="1623"/>
  <unicode hex="00A4"/>
  <outline>
    <contour>
      <point x="815" y="-20" type="curve" smooth="yes"/>
      <point x="1153" y="-20"/>
      <point x="1436" y="253"/>
      <point x="1437" y="608" type="curve" smooth="yes"/>
      <point x="1436" y="963"/>
      <point x="1153" y="1233"/>
      <point x="815" y="1233" type="curve" smooth="yes"/>
      <point x="470" y="1233"/>
      <point x="188" y="963"/>
      <point x="189" y="608" type="curve"/>
      <point x="188" y="253"/>
      <point x="470" y="-20"/>
    </contour>
    <contour>
      <point x="815" y="189" type="curve" smooth="yes"/>
      <point x="575" y="189"/>
      <point x="391" y="369"/>
      <point x="393" y="608" type="curve"/>
      <point x="391" y="849"/>
      <point x="575" y="1027"/>
      <point x="815" y="1027" type="curve" smooth="yes"/>
      <point x="1046" y="1027"/>
      <point x="1235" y="849"/>
      <point x="1236" y="608" type="curve" smooth="yes"/>
      <point x="1235" y="369"/>
      <point x="1046" y="189"/>
    </contour>
    <contour>
      <point x="1271" y="908" type="line"/>
      <point x="1484" y="1114" type="line"/>
      <point x="1327" y="1271" type="line"/>
      <point x="1117" y="1065" type="line"/>
    </contour>
    <contour>
      <point x="1327" y="-32" type="line"/>
      <point x="1484" y="125" type="line"/>
      <point x="1271" y="329" type="line"/>
      <point x="1117" y="175" type="line"/>
    </contour>
    <contour>
      <point x="303" y="-32" type="line"/>
      <point x="515" y="175" type="line"/>
      <point x="358" y="329" type="line"/>
      <point x="148" y="125" type="line"/>
    </contour>
    <contour>
      <point x="358" y="908" type="line"/>
      <point x="515" y="1065" type="line"/>
      <point x="303" y="1271" type="line"/>
      <point x="148" y="1114" type="line"/>
    </contour>
  </outline>
</glyph>
<glyph name="dieresis" format="2">
  <advance height="2479" width="1018"/>
  <unicode hex="00A8"/>
  <anchor x="509" y="1303" name="_top"/>
  <anchor x="509" y="1676" name="top"/>
  <outline>
    <contour>
      <point x="279" y="1248" type="curve" smooth="yes"/>
      <point x="375" y="1248"/>
      <point x="454" y="1324"/>
      <point x="454" y="1417" type="curve" smooth="yes"/>
      <point x="454" y="1510"/>
      <point x="375" y="1585"/>
      <point x="279" y="1585" type="curve" smooth="yes"/>
      <point x="180" y="1585"/>
      <point x="102" y="1510"/>
      <point x="102" y="1417" type="curve" smooth="yes"/>
      <point x="102" y="1324"/>
      <point x="180" y="1248"/>
    </contour>
    <contour>
      <point x="742" y="1248" type="curve" smooth="yes"/>
      <point x="838" y="1248"/>
      <point x="916" y="1324"/>
      <point x="916" y="1417" type="curve" smooth="yes"/>
      <point x="916" y="1510"/>
      <point x="838" y="1585"/>
      <point x="742" y="1585" type="curve" smooth="yes"/>
      <point x="643" y="1585"/>
      <point x="564" y="1510"/>
      <point x="564" y="1417" type="curve" smooth="yes"/>
      <point x="564" y="1324"/>
      <point x="643" y="1248"/>
    </contour>
  </outline>
</glyph>
<glyph name="ordfeminine" format="2">
  <advance height="2479" width="1050"/>
  <unicode hex="00AA"/>
  <outline>
    <contour>
      <point x="652" y="861" type="line"/>
      <point x="652" y="803"/>
      <point x="663" y="748"/>
      <point x="678" y="704" type="curve"/>
      <point x="864" y="704" type="line"/>
      <point x="838" y="771"/>
      <point x="835" y="835"/>
      <point x="835" y="887" type="curve" smooth="yes"/>
      <point x="835" y="1201" type="line"/>
      <point x="835" y="1385"/>
      <point x="713" y="1478"/>
      <point x="529" y="1478" type="curve" smooth="yes"/>
      <point x="335" y="1478"/>
      <point x="204" y="1379"/>
      <point x="204" y="1242" type="curve"/>
      <point x="387" y="1231" type="line"/>
      <point x="387" y="1295"/>
      <point x="439" y="1329"/>
      <point x="529" y="1329" type="curve" smooth="yes"/>
      <point x="614" y="1329"/>
      <point x="652" y="1280"/>
      <point x="652" y="1201" type="curve"/>
    </contour>
    <contour>
      <point x="698" y="1149" type="line"/>
      <point x="547" y="1149" type="line"/>
      <point x="305" y="1149"/>
      <point x="189" y="1068"/>
      <point x="189" y="919" type="curve" smooth="yes"/>
      <point x="189" y="783"/>
      <point x="282" y="692"/>
      <point x="448" y="692" type="curve" smooth="yes"/>
      <point x="591" y="692"/>
      <point x="669" y="765"/>
      <point x="701" y="832" type="curve"/>
      <point x="684" y="951" type="line"/>
      <point x="684" y="902"/>
      <point x="579" y="835"/>
      <point x="495" y="835" type="curve" smooth="yes"/>
      <point x="410" y="835"/>
      <point x="372" y="870"/>
      <point x="372" y="922" type="curve" smooth="yes"/>
      <point x="372" y="980"/>
      <point x="428" y="1033"/>
      <point x="547" y="1033" type="curve"/>
      <point x="698" y="1033" type="line"/>
    </contour>
  </outline>
</glyph>
<glyph name="degree" format="2">
  <advance height="2479" width="948"/>
  <unicode hex="00B0"/>
  <outline>
    <contour>
      <point x="474" y="753" type="curve" smooth="yes"/>
      <point x="680" y="753"/>
      <point x="847" y="920"/>
      <point x="847" y="1126" type="curve" smooth="yes"/>
      <point x="847" y="1332"/>
      <point x="680" y="1498"/>
      <point x="474" y="1498" type="curve" smooth="yes"/>
      <point x="268" y="1498"/>
      <point x="102" y="1332"/>
      <point x="102" y="1126" type="curve" smooth="yes"/>
      <point x="102" y="920"/>
      <point x="268" y="753"/>
    </contour>
    <contour>
      <point x="474" y="1001" type="curve" smooth="yes"/>
      <point x="405" y="1001"/>
      <point x="349" y="1057"/>
      <point x="349" y="1126" type="curve" smooth="yes"/>
      <point x="349" y="1195"/>
      <point x="405" y="1251"/>
      <point x="474" y="1251" type="curve" smooth="yes"/>
      <point x="543" y="1251"/>
      <point x="599" y="1195"/>
      <point x="599" y="1126" type="curve" smooth="yes"/>
      <point x="599" y="1057"/>
      <point x="543" y="1001"/>
    </contour>
  </outline>
</glyph>
<glyph name="twosuperior" format="2">
  <advance height="2479" width="873"/>
  <unicode hex="00B2"/>
  <anchor x="614" y="1239" name="cross"/>
  <outline>
    <contour>
      <point x="81" y="745" type="line"/>
      <point x="817" y="745" type="line"/>
      <point x="817" y="963" type="line"/>
      <point x="465" y="963" type="line"/>
      <point x="465" y="972" type="line"/>
      <point x="556" y="1021" type="line" smooth="yes"/>
      <point x="736" y="1120"/>
      <point x="817" y="1222"/>
      <point x="817" y="1356" type="curve" smooth="yes"/>
      <point x="817" y="1519"/>
      <point x="672" y="1649"/>
      <point x="439" y="1649" type="curve" smooth="yes"/>
      <point x="215" y="1649"/>
      <point x="55" y="1536"/>
      <point x="55" y="1335" type="curve"/>
      <point x="311" y="1335" type="line"/>
      <point x="311" y="1408"/>
      <point x="361" y="1440"/>
      <point x="436" y="1440" type="curve" smooth="yes"/>
      <point x="506" y="1440"/>
      <point x="564" y="1411"/>
      <point x="564" y="1353" type="curve" smooth="yes"/>
      <point x="564" y="1292"/>
      <point x="512" y="1257"/>
      <point x="445" y="1207" type="curve" smooth="yes"/>
      <point x="81" y="937" type="line"/>
    </contour>
  </outline>
</glyph>
<glyph name="micro" format="2">
  <advance height="2479" width="1425"/>
  <unicode hex="00B5"/>
  <outline>
    <contour>
      <point x="102" y="-396" type="line"/>
      <point x="483" y="-396" type="line"/>
      <point x="483" y="154" type="line"/>
      <point x="492" y="154" type="line"/>
      <point x="526" y="71"/>
      <point x="609" y="20"/>
      <point x="713" y="20" type="curve" smooth="yes"/>
      <point x="816" y="20"/>
      <point x="900" y="71"/>
      <point x="934" y="154" type="curve"/>
      <point x="943" y="154" type="line"/>
      <point x="943" y="0" type="line"/>
      <point x="1324" y="0" type="line"/>
      <point x="1324" y="1117" type="line"/>
      <point x="922" y="1117" type="line"/>
      <point x="922" y="489" type="line" smooth="yes"/>
      <point x="923" y="385"/>
      <point x="836" y="311"/>
      <point x="713" y="311" type="curve" smooth="yes"/>
      <point x="591" y="311"/>
      <point x="504" y="385"/>
      <point x="503" y="489" type="curve" smooth="yes"/>
      <point x="503" y="1117" type="line"/>
      <point x="102" y="1117" type="line"/>
    </contour>
  </outline>
</glyph>
<glyph name="onesuperior" format="2">
  <advance height="2479" width="668"/>
  <unicode hex="00B9"/>
  <outline>
    <contour>
      <point x="278" y="745" type="line"/>
      <point x="531" y="745" type="line"/>
      <point x="531" y="1638" type="line"/>
      <point x="298" y="1638" type="line"/>
      <point x="70" y="1498" type="line"/>
      <point x="70" y="1283" type="line"/>
      <point x="273" y="1405" type="line"/>
      <point x="278" y="1405" type="line"/>
    </contour>
  </outline>
</glyph>
<glyph name="multiply" format="2">
  <advance height="2479" width="1420"/>
  <unicode hex="00D7"/>
  <outline>
    <contour>
      <point x="1039" y="32" type="line"/>
      <point x="1283" y="276" type="line"/>
      <point x="381" y="1178" type="line"/>
      <point x="137" y="931" type="line"/>
    </contour>
    <contour>
      <point x="381" y="32" type="line"/>
      <point x="1283" y="931" type="line"/>
      <point x="1039" y="1178" type="line"/>
      <point x="137" y="276" type="line"/>
    </contour>
  </outline>
</glyph>
<glyph name="Oslash" format="2">
  <advance height="2479" width="1629"/>
  <unicode hex="00D8"/>
  <anchor x="815" y="0" name="bottom"/>
  <anchor x="1021" y="6" name="ogonek"/>
  <anchor x="172" y="1489" name="tonos"/>
  <anchor x="815" y="1676" name="top"/>
  <outline>
    <contour>
      <point x="352" y="-79" type="line"/>
      <point x="1440" y="1455" type="line"/>
      <point x="1277" y="1565" type="line"/>
      <point x="189" y="32" type="line"/>
    </contour>
    <component base="O"/>
  </outline>
</glyph>
<glyph name="Thorn" format="2">
  <advance height="2479" width="1428"/>
  <unicode hex="00DE"/>
  <outline>
    <contour>
      <point x="99" y="1489" type="line"/>
      <point x="99" y="0" type="line"/>
      <point x="503" y="0" type="line"/>
      <point x="503" y="1489" type="line"/>
    </contour>
    <contour>
      <point x="285" y="1239" type="line"/>
      <point x="285" y="940" type="line"/>
      <point x="675" y="940" type="line" smooth="yes"/>
      <point x="835" y="940"/>
      <point x="887" y="844"/>
      <point x="887" y="762" type="curve" smooth="yes"/>
      <point x="887" y="684"/>
      <point x="835" y="591"/>
      <point x="675" y="591" type="curve" smooth="yes"/>
      <point x="285" y="591" type="line"/>
      <point x="285" y="294" type="line"/>
      <point x="675" y="294" type="line" smooth="yes"/>
      <point x="1062" y="294"/>
      <point x="1274" y="486"/>
      <point x="1274" y="765" type="curve" smooth="yes"/>
      <point x="1274" y="1044"/>
      <point x="1062" y="1239"/>
      <point x="675" y="1239" type="curve" smooth="yes"/>
    </contour>
  </outline>
</glyph>
<glyph name="ae" format="2">
  <advance height="2479" width="1856"/>
  <unicode hex="00E6"/>
  <anchor x="902" y="1303" name="top"/>
  <outline>
    <contour>
      <point x="1280" y="-20" type="curve" smooth="yes"/>
      <point x="1551" y="-20"/>
      <point x="1757" y="128"/>
      <point x="1795" y="361" type="curve"/>
      <point x="1428" y="361" type="line"/>
      <point x="1405" y="297"/>
      <point x="1339" y="262"/>
      <point x="1257" y="262" type="curve" smooth="yes"/>
      <point x="1137" y="262"/>
      <point x="1068" y="340"/>
      <point x="1068" y="448" type="curve"/>
      <point x="1068" y="687" type="line"/>
      <point x="1071" y="783"/>
      <point x="1149" y="849"/>
      <point x="1248" y="849" type="curve" smooth="yes"/>
      <point x="1347" y="849"/>
      <point x="1423" y="783"/>
      <point x="1425" y="687" type="curve"/>
      <point x="835" y="687" type="line"/>
      <point x="835" y="465" type="line"/>
      <point x="1795" y="465" type="line"/>
      <point x="1795" y="559" type="line" smooth="yes"/>
      <point x="1795" y="914"/>
      <point x="1577" y="1132"/>
      <point x="1239" y="1132" type="curve" smooth="yes"/>
      <point x="1068" y="1132"/>
      <point x="934" y="1076"/>
      <point x="829" y="919" type="curve"/>
      <point x="867" y="195" type="line"/>
      <point x="937" y="47"/>
      <point x="1099" y="-20"/>
    </contour>
    <contour>
      <point x="544" y="236" type="curve" smooth="yes"/>
      <point x="476" y="236"/>
      <point x="428" y="269"/>
      <point x="428" y="332" type="curve" smooth="yes"/>
      <point x="428" y="389"/>
      <point x="468" y="433"/>
      <point x="561" y="448" type="curve" smooth="yes"/>
      <point x="625" y="458"/>
      <point x="679" y="471"/>
      <point x="721" y="489" type="curve"/>
      <point x="721" y="396" type="line" smooth="yes"/>
      <point x="721" y="294"/>
      <point x="635" y="236"/>
    </contour>
    <contour>
      <point x="442" y="-17" type="curve" smooth="yes"/>
      <point x="629" y="-17"/>
      <point x="806" y="44"/>
      <point x="876" y="169" type="curve"/>
      <point x="899" y="169" type="line"/>
      <point x="916" y="983" type="line"/>
      <point x="867" y="1076"/>
      <point x="762" y="1132"/>
      <point x="614" y="1132" type="curve" smooth="yes"/>
      <point x="268" y="1132"/>
      <point x="108" y="957"/>
      <point x="93" y="753" type="curve"/>
      <point x="463" y="753" type="line"/>
      <point x="471" y="823"/>
      <point x="524" y="855"/>
      <point x="599" y="855" type="curve" smooth="yes"/>
      <point x="670" y="855"/>
      <point x="719" y="824"/>
      <point x="719" y="765" type="curve" smooth="yes"/>
      <point x="719" y="762" type="line" smooth="yes"/>
      <point x="719" y="698"/>
      <point x="649" y="678"/>
      <point x="460" y="663" type="curve" smooth="yes"/>
      <point x="230" y="646"/>
      <point x="49" y="553"/>
      <point x="49" y="308" type="curve" smooth="yes"/>
      <point x="49" y="87"/>
      <point x="199" y="-17"/>
    </contour>
  </outline>
</glyph>
<glyph name="eth" format="2">
  <advance height="2479" width="1255"/>
  <unicode hex="00F0"/>
  <outline>
    <contour>
      <point x="943" y="1393" type="line"/>
      <point x="943" y="1556" type="line"/>
      <point x="204" y="1169" type="line"/>
      <point x="204" y="1007" type="line"/>
    </contour>
    <contour>
      <point x="620" y="-23" type="curve" smooth="yes"/>
      <point x="979" y="-23"/>
      <point x="1194" y="225"/>
      <point x="1194" y="591" type="curve" smooth="yes"/>
      <point x="1194" y="1135"/>
      <point x="725" y="1496"/>
      <point x="204" y="1564" type="curve"/>
      <point x="204" y="1370" type="line"/>
      <point x="406" y="1311"/>
      <point x="689" y="1154"/>
      <point x="804" y="931" type="curve"/>
      <point x="788" y="931" type="line"/>
      <point x="725" y="989"/>
      <point x="634" y="1025"/>
      <point x="521" y="1025" type="curve" smooth="yes"/>
      <point x="236" y="1025"/>
      <point x="61" y="794"/>
      <point x="61" y="512" type="curve" smooth="yes"/>
      <point x="61" y="189"/>
      <point x="287" y="-23"/>
    </contour>
    <contour>
      <point x="633" y="269" type="curve" smooth="yes"/>
      <point x="515" y="269"/>
      <point x="439" y="371"/>
      <point x="439" y="543" type="curve" smooth="yes"/>
      <point x="439" y="703"/>
      <point x="504" y="797"/>
      <point x="633" y="797" type="curve" smooth="yes"/>
      <point x="759" y="797"/>
      <point x="826" y="704"/>
      <point x="826" y="543" type="curve" smooth="yes"/>
      <point x="826" y="369"/>
      <point x="749" y="269"/>
    </contour>
  </outline>
</glyph>
<glyph name="thorn" format="2">
  <advance height="2479" width="1260"/>
  <unicode hex="00FE"/>
  <outline>
    <contour>
      <point x="102" y="1489" type="line"/>
      <point x="102" y="-419" type="line"/>
      <point x="503" y="-419" type="line"/>
      <point x="503" y="227" type="line"/>
      <point x="352" y="529" type="line"/>
      <point x="503" y="954" type="line"/>
      <point x="503" y="1489" type="line"/>
    </contour>
    <contour>
      <point x="343" y="1021" type="line"/>
      <point x="343" y="90" type="line"/>
      <point x="515" y="90" type="line"/>
      <point x="556" y="-3"/>
      <point x="661" y="-15"/>
      <point x="753" y="-15" type="curve" smooth="yes"/>
      <point x="987" y="-15"/>
      <point x="1193" y="169"/>
      <point x="1193" y="559" type="curve" smooth="yes"/>
      <point x="1193" y="963"/>
      <point x="972" y="1132"/>
      <point x="756" y="1132" type="curve" smooth="yes"/>
      <point x="655" y="1132"/>
      <point x="553" y="1111"/>
      <point x="515" y="1021" type="curve"/>
    </contour>
    <contour>
      <point x="817" y="559" type="curve" smooth="yes"/>
      <point x="818" y="381"/>
      <point x="754" y="294"/>
      <point x="625" y="294" type="curve" smooth="yes"/>
      <point x="478" y="294"/>
      <point x="455" y="425"/>
      <point x="454" y="559" type="curve" smooth="yes"/>
      <point x="455" y="698"/>
      <point x="484" y="823"/>
      <point x="625" y="823" type="curve" smooth="yes"/>
      <point x="754" y="823"/>
      <point x="818" y="736"/>
    </contour>
  </outline>
</glyph>
<glyph name="dcroat" format="2">
  <advance height="2479" width="1321"/>
  <unicode hex="0111"/>
  <anchor x="660" y="0" name="bottom"/>
  <anchor x="1024" y="1280" name="cross"/>
  <anchor x="1341" y="1489" name="raccent"/>
  <anchor x="547" y="1489" name="top"/>
  <outline>
    <contour>
      <point x="547" y="1181" type="line"/>
      <point x="1330" y="1181" type="line"/>
      <point x="1330" y="1396" type="line"/>
      <point x="547" y="1396" type="line"/>
    </contour>
    <component base="d"/>
  </outline>
</glyph>
<glyph name="kgreenlandic" format="2">
  <advance height="2479" width="1242"/>
  <unicode hex="0138"/>
  <outline>
    <contour>
      <point x="463" y="265" type="line"/>
      <point x="672" y="532" type="line"/>
      <point x="785" y="532" type="line"/>
      <point x="1239" y="1117" type="line"/>
      <point x="788" y="1117" type="line"/>
      <point x="518" y="742" type="line"/>
      <point x="465" y="742" type="line"/>
    </contour>
    <contour>
      <point x="102" y="0" type="line"/>
      <point x="503" y="0" type="line"/>
      <point x="503" y="1117" type="line"/>
      <point x="102" y="1117" type="line"/>
    </contour>
    <contour>
      <point x="791" y="0" type="line"/>
      <point x="1251" y="0" type="line"/>
      <point x="797" y="727" type="line"/>
      <point x="535" y="442" type="line"/>
    </contour>
  </outline>
</glyph>
<glyph name="Lslash" format="2">
  <advance height="2479" width="1231"/>
  <unicode hex="0141"/>
  <anchor x="704" y="0" name="bottom"/>
  <anchor x="402" y="788" name="cross"/>
  <anchor x="710" y="873" name="dot"/>
  <anchor x="809" y="1489" name="raccent"/>
  <anchor x="399" y="1676" name="top"/>
  <outline>
    <contour>
      <point x="751" y="983" type="line"/>
      <point x="20" y="794" type="line"/>
      <point x="20" y="596" type="line"/>
      <point x="751" y="783" type="line"/>
    </contour>
    <component base="L" xOffset="105"/>
  </outline>
</glyph>
<glyph name="eng" format="2">
  <advance height="2479" width="1330"/>
  <unicode hex="014B"/>
  <anchor x="663" y="0" name="bottom"/>
  <anchor x="663" y="1303" name="top"/>
  <outline>
    <contour>
      <point x="826" y="23" type="line"/>
      <point x="826" y="0" type="line" smooth="yes"/>
      <point x="826" y="-63"/>
      <point x="789" y="-96"/>
      <point x="713" y="-96" type="curve" smooth="yes"/>
      <point x="667" y="-96"/>
      <point x="632" y="-90"/>
      <point x="596" y="-81" type="curve"/>
      <point x="561" y="-404" type="line"/>
      <point x="629" y="-416"/>
      <point x="690" y="-419"/>
      <point x="756" y="-419" type="curve" smooth="yes"/>
      <point x="1045" y="-419"/>
      <point x="1228" y="-283"/>
      <point x="1228" y="0" type="curve" smooth="yes"/>
      <point x="1228" y="23" type="line"/>
    </contour>
    <component base="n"/>
  </outline>
</glyph>
<glyph name="OE" format="2">
  <advance height="2479" width="2173"/>
  <unicode hex="0152"/>
  <anchor x="1536" y="0" name="bottom"/>
  <anchor x="1539" y="0" name="cedilla"/>
  <anchor x="2066" y="0" name="ogonek"/>
  <anchor x="954" y="1489" name="tonos"/>
  <anchor x="1536" y="1676" name="top"/>
  <outline>
    <contour>
      <point x="780" y="0" type="curve"/>
      <point x="1146" y="0" type="line"/>
      <point x="1146" y="326" type="line"/>
      <point x="780" y="326" type="line"/>
      <point x="619" y="326"/>
      <point x="500" y="413"/>
      <point x="500" y="742" type="curve"/>
      <point x="500" y="1068"/>
      <point x="619" y="1164"/>
      <point x="780" y="1164" type="curve"/>
      <point x="1146" y="1164" type="line"/>
      <point x="1146" y="1489" type="line"/>
      <point x="780" y="1489" type="line"/>
      <point x="395" y="1489"/>
      <point x="89" y="1251"/>
      <point x="90" y="742" type="curve"/>
      <point x="89" y="236"/>
      <point x="395" y="0"/>
    </contour>
    <component base="E" xOffset="899"/>
  </outline>
</glyph>
<glyph name="tbar" format="2">
  <advance height="2479" width="829"/>
  <unicode hex="0167"/>
  <anchor x="464" y="0" name="bottom"/>
  <anchor x="570" y="0" name="cedilla"/>
  <anchor x="705" y="1562" name="raccent"/>
  <anchor x="375" y="1542" name="top"/>
  <outline>
    <contour>
      <point x="32" y="527" type="line"/>
      <point x="768" y="527" type="line"/>
      <point x="768" y="684" type="line"/>
      <point x="32" y="684" type="line"/>
    </contour>
    <component base="t"/>
  </outline>
</glyph>
<glyph name="btopbar" format="2">
  <advance height="2479" width="1321"/>
  <unicode hex="0183"/>
  <anchor x="631" y="0" name="bottom"/>
  <anchor x="294" y="1280" name="cross"/>
  <anchor x="832" y="1303" name="top"/>
  <outline>
    <contour>
      <point x="1088" y="1489" type="line" name="hr00"/>
      <point x="300" y="1489" type="line"/>
      <point x="300" y="1225" type="line"/>
      <point x="1088" y="1225" type="line"/>
    </contour>
    <component base="b"/>
  </outline>
</glyph>
<glyph name="Chook" format="2">
  <advance height="2479" width="1807"/>
  <unicode hex="0187"/>
  <anchor x="800" y="6" name="cedilla"/>
  <anchor x="809" y="1676" name="top"/>
  <outline>
    <contour>
      <point x="1487" y="931" type="line" name="hr00"/>
      <point x="1487" y="1015" type="line" smooth="yes"/>
      <point x="1487" y="1172"/>
      <point x="1620" y="1225"/>
      <point x="1713" y="1225" type="curve"/>
      <point x="1740" y="1225"/>
      <point x="1795" y="1222"/>
      <point x="1824" y="1222" type="curve"/>
      <point x="1824" y="1542" type="line"/>
      <point x="1754" y="1551"/>
      <point x="1705" y="1551"/>
      <point x="1644" y="1551" type="curve" smooth="yes"/>
      <point x="1356" y="1551"/>
      <point x="1097" y="1388"/>
      <point x="1097" y="1082" type="curve" smooth="yes"/>
      <point x="1097" y="931" type="line"/>
    </contour>
    <component base="C"/>
  </outline>
</glyph>
<glyph name="chook" format="2">
  <advance height="2479" width="1361"/>
  <unicode hex="0188"/>
  <anchor x="643" y="0" name="cedilla"/>
  <anchor x="643" y="1303" name="top"/>
  <outline>
    <contour>
      <point x="1184" y="652" type="line"/>
      <point x="1184" y="835" type="line" smooth="yes"/>
      <point x="1184" y="928"/>
      <point x="1211" y="969"/>
      <point x="1295" y="969" type="curve" smooth="yes"/>
      <point x="1327" y="969"/>
      <point x="1353" y="963"/>
      <point x="1385" y="960" type="curve"/>
      <point x="1385" y="1201" type="line"/>
      <point x="1330" y="1216"/>
      <point x="1284" y="1225"/>
      <point x="1236" y="1225" type="curve" smooth="yes"/>
      <point x="999" y="1225"/>
      <point x="820" y="1085"/>
      <point x="820" y="838" type="curve" smooth="yes"/>
      <point x="820" y="652" type="line"/>
    </contour>
    <component base="c"/>
  </outline>
</glyph>
<glyph name="Dhook" format="2">
  <advance height="2479" width="1998"/>
  <unicode hex="018A"/>
  <anchor x="1172" y="0" name="bottom"/>
  <anchor x="794" y="788" name="cross"/>
  <anchor x="1090" y="1676" name="top"/>
  <outline>
    <contour>
      <point x="55" y="870" type="line"/>
      <point x="410" y="870" type="line"/>
      <point x="410" y="977" type="line" smooth="yes"/>
      <point x="409" y="1065"/>
      <point x="444" y="1146"/>
      <point x="567" y="1146" type="curve" smooth="yes"/>
      <point x="832" y="1146" type="line" name="hr00"/>
      <point x="832" y="1489" type="line"/>
      <point x="567" y="1489" type="line" smooth="yes"/>
      <point x="255" y="1489"/>
      <point x="54" y="1329"/>
      <point x="55" y="1047" type="curve" smooth="yes"/>
    </contour>
    <component base="D" xOffset="497"/>
  </outline>
</glyph>
<glyph name="Dtopbar" format="2">
  <advance height="2479" width="1323"/>
  <unicode hex="018B"/>
  <outline>
    <contour>
      <point x="671" y="0" type="curve" smooth="yes"/>
      <point x="1227" y="0" type="line"/>
      <point x="1227" y="1489" type="line"/>
      <point x="179" y="1489" type="line"/>
      <point x="179" y="1164" type="line"/>
      <point x="822" y="1164" type="line"/>
      <point x="822" y="989" type="line"/>
      <point x="671" y="989" type="line" smooth="yes"/>
      <point x="296" y="989"/>
      <point x="46" y="797"/>
      <point x="46" y="500" type="curve" smooth="yes"/>
      <point x="46" y="204"/>
      <point x="296" y="0"/>
    </contour>
    <contour>
      <point x="671" y="317" type="line" smooth="yes"/>
      <point x="526" y="317"/>
      <point x="447" y="396"/>
      <point x="447" y="503" type="curve" smooth="yes"/>
      <point x="447" y="605"/>
      <point x="526" y="681"/>
      <point x="671" y="681" type="curve" smooth="yes"/>
      <point x="822" y="681" type="line"/>
      <point x="822" y="317" type="line"/>
    </contour>
  </outline>
</glyph>
<glyph name="deltaturned" format="2">
  <advance height="2479" width="1245"/>
  <unicode hex="018D"/>
  <outline>
    <contour>
      <point x="601" y="-448" type="curve" smooth="yes"/>
      <point x="878" y="-448"/>
      <point x="1057" y="-323"/>
      <point x="1056" y="-132" type="curve" smooth="yes"/>
      <point x="1055" y="-23"/>
      <point x="995" y="62"/>
      <point x="868" y="140" type="curve"/>
      <point x="868" y="145" type="line"/>
      <point x="1060" y="194"/>
      <point x="1184" y="377"/>
      <point x="1184" y="611" type="curve" smooth="yes"/>
      <point x="1184" y="936"/>
      <point x="944" y="1132"/>
      <point x="625" y="1132" type="curve" smooth="yes"/>
      <point x="278" y="1132"/>
      <point x="61" y="900"/>
      <point x="61" y="566" type="curve" smooth="yes"/>
      <point x="61" y="235"/>
      <point x="275" y="63"/>
      <point x="521" y="-17" type="curve" smooth="yes"/>
      <point x="632" y="-53"/>
      <point x="655" y="-81"/>
      <point x="655" y="-112" type="curve" smooth="yes"/>
      <point x="655" y="-151"/>
      <point x="617" y="-172"/>
      <point x="534" y="-172" type="curve" smooth="yes"/>
      <point x="474" y="-172"/>
      <point x="390" y="-161"/>
      <point x="332" y="-137" type="curve"/>
      <point x="332" y="-407" type="line"/>
      <point x="430" y="-436"/>
      <point x="513" y="-448"/>
    </contour>
    <contour>
      <point x="620" y="262" type="curve"/>
      <point x="500" y="284"/>
      <point x="471" y="416"/>
      <point x="471" y="602" type="curve" smooth="yes"/>
      <point x="471" y="668"/>
      <point x="475" y="838"/>
      <point x="621" y="838" type="curve" smooth="yes"/>
      <point x="764" y="838"/>
      <point x="774" y="676"/>
      <point x="774" y="563" type="curve" smooth="yes"/>
      <point x="774" y="388"/>
      <point x="750" y="262"/>
    </contour>
  </outline>
</glyph>
<glyph name="Eopen" format="2">
  <advance height="2479" width="1428"/>
  <unicode hex="0190"/>
  <outline>
    <contour>
      <point x="694" y="-23" type="curve" smooth="yes"/>
      <point x="1072" y="-23"/>
      <point x="1313" y="153"/>
      <point x="1315" y="404" type="curve"/>
      <point x="899" y="404" type="line"/>
      <point x="898" y="356"/>
      <point x="829" y="329"/>
      <point x="724" y="329" type="curve" smooth="yes"/>
      <point x="594" y="329"/>
      <point x="528" y="372"/>
      <point x="528" y="457" type="curve" smooth="yes"/>
      <point x="528" y="541"/>
      <point x="594" y="595"/>
      <point x="710" y="595" type="curve" smooth="yes"/>
      <point x="905" y="595" type="line"/>
      <point x="905" y="804" type="line"/>
      <point x="637" y="804" type="line"/>
      <point x="305" y="804"/>
      <point x="112" y="661"/>
      <point x="112" y="409" type="curve" smooth="yes"/>
      <point x="112" y="139"/>
      <point x="332" y="-23"/>
    </contour>
    <contour>
      <point x="637" y="708" type="curve"/>
      <point x="905" y="708" type="line" name="hr00"/>
      <point x="905" y="921" type="line"/>
      <point x="710" y="921" type="line" smooth="yes"/>
      <point x="609" y="921"/>
      <point x="551" y="968"/>
      <point x="551" y="1041" type="curve" smooth="yes"/>
      <point x="551" y="1119"/>
      <point x="614" y="1158"/>
      <point x="727" y="1158" type="curve" smooth="yes"/>
      <point x="819" y="1158"/>
      <point x="875" y="1132"/>
      <point x="876" y="1088" type="curve"/>
      <point x="1292" y="1088" type="line"/>
      <point x="1290" y="1332"/>
      <point x="1052" y="1510"/>
      <point x="694" y="1510" type="curve" smooth="yes"/>
      <point x="353" y="1510"/>
      <point x="135" y="1349"/>
      <point x="135" y="1095" type="curve" smooth="yes"/>
      <point x="135" y="854"/>
      <point x="335" y="708"/>
    </contour>
  </outline>
</glyph>
<glyph name="Fhook" format="2">
  <advance height="2479" width="1272"/>
  <unicode hex="0191"/>
  <anchor x="719" y="12" name="bottom"/>
  <anchor x="373" y="250" name="cross"/>
  <anchor x="699" y="1676" name="top"/>
  <outline>
    <contour>
      <point x="172" y="0" type="line"/>
      <point x="172" y="-35" type="line" smooth="yes"/>
      <point x="172" y="-102"/>
      <point x="95" y="-116"/>
      <point x="20" y="-116" type="curve"/>
      <point x="4" y="-116"/>
      <point x="-25" y="-119"/>
      <point x="-47" y="-116" type="curve"/>
      <point x="-47" y="-413" type="line"/>
      <point x="-4" y="-419"/>
      <point x="89" y="-419"/>
      <point x="128" y="-419" type="curve"/>
      <point x="339" y="-419"/>
      <point x="576" y="-387"/>
      <point x="576" y="-35" type="curve" smooth="yes"/>
      <point x="576" y="0" type="line"/>
    </contour>
    <component base="F" xOffset="76"/>
  </outline>
</glyph>
<glyph name="florin" format="2">
  <advance height="2479" width="1073"/>
  <unicode hex="0192"/>
  <outline>
    <contour>
      <point x="928" y="1082" type="line"/>
      <point x="701" y="1082" type="line"/>
      <point x="701" y="1161" type="line" smooth="yes"/>
      <point x="703" y="1228"/>
      <point x="755" y="1263"/>
      <point x="832" y="1263" type="curve" smooth="yes"/>
      <point x="889" y="1263"/>
      <point x="915" y="1260"/>
      <point x="945" y="1254" type="curve"/>
      <point x="966" y="1539" type="line"/>
      <point x="909" y="1548"/>
      <point x="860" y="1556"/>
      <point x="791" y="1556" type="curve" smooth="yes"/>
      <point x="493" y="1556"/>
      <point x="321" y="1420"/>
      <point x="320" y="1161" type="curve" smooth="yes"/>
      <point x="320" y="1082" type="line"/>
      <point x="160" y="1082" type="line"/>
      <point x="160" y="815" type="line"/>
      <point x="320" y="815" type="line"/>
      <point x="320" y="6" type="line" smooth="yes"/>
      <point x="320" y="-70"/>
      <point x="316" y="-119"/>
      <point x="215" y="-119" type="curve" smooth="yes"/>
      <point x="185" y="-119"/>
      <point x="147" y="-113"/>
      <point x="122" y="-108" type="curve"/>
      <point x="108" y="-404" type="line"/>
      <point x="173" y="-416"/>
      <point x="225" y="-419"/>
      <point x="282" y="-419" type="curve" smooth="yes"/>
      <point x="545" y="-419"/>
      <point x="701" y="-271"/>
      <point x="701" y="6" type="curve" smooth="yes"/>
      <point x="701" y="815" type="line"/>
      <point x="928" y="815" type="line"/>
    </contour>
  </outline>
</glyph>
<glyph name="Ghook" format="2">
  <advance height="2479" width="1792"/>
  <unicode hex="0193"/>
  <anchor x="803" y="6" name="bottom"/>
  <anchor x="806" y="1676" name="top"/>
  <outline>
    <contour>
      <point x="1472" y="998" type="line"/>
      <point x="1472" y="1271" type="line" smooth="yes"/>
      <point x="1472" y="1396"/>
      <point x="1577" y="1414"/>
      <point x="1684" y="1414" type="curve" smooth="yes"/>
      <point x="1719" y="1414"/>
      <point x="1754" y="1408"/>
      <point x="1792" y="1405" type="curve"/>
      <point x="1792" y="1719" type="line"/>
      <point x="1725" y="1734"/>
      <point x="1673" y="1743"/>
      <point x="1615" y="1743" type="curve" smooth="yes"/>
      <point x="1332" y="1743"/>
      <point x="1053" y="1577"/>
      <point x="1056" y="1271" type="curve" smooth="yes"/>
      <point x="1059" y="998" type="line"/>
    </contour>
    <component base="G"/>
  </outline>
</glyph>
<glyph name="Gamma-latin" format="2">
  <advance height="2479" width="1681"/>
  <unicode hex="0194"/>
  <outline>
    <contour>
      <point x="99" y="1489" type="line"/>
      <point x="803" y="169" type="line" smooth="yes"/>
      <point x="850" y="79"/>
      <point x="881" y="-36"/>
      <point x="881" y="-116" type="curve" smooth="yes"/>
      <point x="881" y="-165"/>
      <point x="869" y="-186"/>
      <point x="841" y="-186" type="curve" smooth="yes"/>
      <point x="812" y="-186"/>
      <point x="800" y="-164"/>
      <point x="800" y="-118" type="curve" smooth="yes"/>
      <point x="800" y="-38"/>
      <point x="831" y="74"/>
      <point x="881" y="169" type="curve" smooth="yes"/>
      <point x="1583" y="1489" type="line"/>
      <point x="1114" y="1489" type="line"/>
      <point x="739" y="688" type="line" smooth="yes"/>
      <point x="438" y="46"/>
      <point x="401" y="-55"/>
      <point x="401" y="-140" type="curve" smooth="yes"/>
      <point x="401" y="-327"/>
      <point x="581" y="-442"/>
      <point x="841" y="-442" type="curve" smooth="yes"/>
      <point x="1095" y="-442"/>
      <point x="1265" y="-315"/>
      <point x="1265" y="-151" type="curve" smooth="yes"/>
      <point x="1265" y="-28"/>
      <point x="1159" y="245"/>
      <point x="948" y="687" type="curve" smooth="yes"/>
      <point x="564" y="1489" type="line"/>
    </contour>
  </outline>
</glyph>
<glyph name="Nhookleft" format="2">
  <advance height="2479" width="1533"/>
  <unicode hex="019D"/>
  <anchor x="794" y="0" name="bottom"/>
  <anchor x="1507" y="0" name="right"/>
  <anchor x="794" y="1676" name="top"/>
  <outline>
    <contour>
      <point x="148" y="0" type="line"/>
      <point x="148" y="-35" type="line" smooth="yes"/>
      <point x="148" y="-102"/>
      <point x="71" y="-116"/>
      <point x="-3" y="-116" type="curve"/>
      <point x="-19" y="-116"/>
      <point x="-48" y="-119"/>
      <point x="-70" y="-116" type="curve"/>
      <point x="-70" y="-413" type="line"/>
      <point x="-28" y="-419"/>
      <point x="65" y="-419"/>
      <point x="105" y="-419" type="curve"/>
      <point x="316" y="-419"/>
      <point x="553" y="-387"/>
      <point x="553" y="-35" type="curve" smooth="yes"/>
      <point x="553" y="0" type="line"/>
    </contour>
    <component base="N" xOffset="52"/>
  </outline>
</glyph>
<glyph name="Ohorn" format="2">
  <advance height="2479" width="1719"/>
  <unicode hex="01A0"/>
  <anchor x="815" y="0" name="bottom"/>
  <anchor x="1021" y="6" name="ogonek"/>
  <anchor x="172" y="1489" name="tonos"/>
  <anchor x="815" y="1676" name="top"/>
  <outline>
    <contour>
      <point x="1478" y="1539" type="line"/>
      <point x="1478" y="1350"/>
      <point x="1449" y="1239"/>
      <point x="1315" y="1239" type="curve"/>
      <point x="1315" y="1068" type="line"/>
      <point x="1585" y="1068"/>
      <point x="1696" y="1242"/>
      <point x="1696" y="1539" type="curve"/>
    </contour>
    <component base="O"/>
  </outline>
</glyph>
<glyph name="ohorn" format="2">
  <advance height="2479" width="1341"/>
  <unicode hex="01A1"/>
  <anchor x="640" y="0" name="bottom"/>
  <anchor x="806" y="0" name="ogonek"/>
  <anchor x="640" y="1303" name="top"/>
  <outline>
    <contour>
      <point x="1140" y="1169" type="line"/>
      <point x="1140" y="989"/>
      <point x="1100" y="884"/>
      <point x="940" y="884" type="curve"/>
      <point x="940" y="759" type="line"/>
      <point x="1213" y="759"/>
      <point x="1341" y="908"/>
      <point x="1341" y="1169" type="curve"/>
    </contour>
    <component base="o"/>
  </outline>
</glyph>
<glyph name="Oi" format="2">
  <advance height="2479" width="2010"/>
  <unicode hex="01A2"/>
  <outline>
    <contour>
      <point x="1379" y="966" type="line"/>
      <point x="1001" y="966" type="line"/>
      <point x="1001" y="340" type="line"/>
      <point x="965" y="317"/>
      <point x="895" y="291"/>
      <point x="800" y="291" type="curve" smooth="yes"/>
      <point x="558" y="291"/>
      <point x="489" y="451"/>
      <point x="489" y="689" type="curve" smooth="yes"/>
      <point x="489" y="777" type="line"/>
      <point x="90" y="774" type="line"/>
      <point x="90" y="689" type="line" smooth="yes"/>
      <point x="90" y="241"/>
      <point x="347" y="-20"/>
      <point x="787" y="-20" type="curve" smooth="yes"/>
      <point x="1083" y="-20"/>
      <point x="1297" y="96"/>
      <point x="1379" y="177" type="curve"/>
    </contour>
    <contour>
      <point x="1379" y="1312" type="line"/>
      <point x="1297" y="1396"/>
      <point x="1086" y="1510"/>
      <point x="787" y="1510" type="curve" smooth="yes"/>
      <point x="347" y="1510"/>
      <point x="90" y="1251"/>
      <point x="90" y="800" type="curve" smooth="yes"/>
      <point x="90" y="698" type="line"/>
      <point x="489" y="695" type="line"/>
      <point x="489" y="800" type="line" smooth="yes"/>
      <point x="489" y="1053"/>
      <point x="546" y="1199"/>
      <point x="803" y="1199" type="curve" smooth="yes"/>
      <point x="875" y="1199"/>
      <point x="953" y="1187"/>
      <point x="1001" y="1152" type="curve"/>
      <point x="1001" y="529" type="line"/>
      <point x="1379" y="535" type="line"/>
    </contour>
    <contour>
      <point x="1914" y="1489" type="line"/>
      <point x="1635" y="1489" type="line"/>
      <point x="1164" y="1265" type="line"/>
      <point x="1164" y="832" type="line"/>
      <point x="1542" y="1015" type="line"/>
      <point x="1542" y="-419" type="line"/>
      <point x="1914" y="-419" type="line"/>
    </contour>
  </outline>
</glyph>
<glyph name="Phook" format="2">
  <advance height="2479" width="1839"/>
  <unicode hex="01A4"/>
  <anchor x="571" y="1489" name="tonos"/>
  <anchor x="1152" y="1676" name="top"/>
  <outline>
    <contour>
      <point x="410" y="870" type="line"/>
      <point x="410" y="977" type="line" smooth="yes"/>
      <point x="409" y="1065"/>
      <point x="444" y="1167"/>
      <point x="567" y="1167" type="curve" smooth="yes"/>
      <point x="832" y="1167" type="line" name="hr00"/>
      <point x="832" y="1489" type="line"/>
      <point x="567" y="1489" type="line" smooth="yes"/>
      <point x="255" y="1489"/>
      <point x="54" y="1329"/>
      <point x="55" y="1047" type="curve" smooth="yes"/>
      <point x="55" y="870" type="line"/>
    </contour>
    <component base="P" xOffset="495"/>
  </outline>
</glyph>
<glyph name="Tonetwo" format="2">
  <advance height="2479" width="1364"/>
  <unicode hex="01A7"/>
  <anchor x="675" y="0" name="bottom"/>
  <anchor x="678" y="0" name="cedilla"/>
  <anchor x="681" y="1676" name="top"/>
  <outline>
    <contour>
      <point x="465" y="1024" type="line"/>
      <point x="473" y="1121"/>
      <point x="535" y="1178"/>
      <point x="666" y="1178" type="curve" smooth="yes"/>
      <point x="791" y="1178"/>
      <point x="846" y="1130"/>
      <point x="847" y="1065" type="curve" smooth="yes"/>
      <point x="850" y="993"/>
      <point x="787" y="952"/>
      <point x="646" y="922" type="curve" smooth="yes"/>
      <point x="524" y="896" type="line" smooth="yes"/>
      <point x="195" y="825"/>
      <point x="60" y="666"/>
      <point x="58" y="439" type="curve" smooth="yes"/>
      <point x="60" y="145"/>
      <point x="286" y="-17"/>
      <point x="663" y="-17" type="curve" smooth="yes"/>
      <point x="1052" y="-17"/>
      <point x="1305" y="150"/>
      <point x="1306" y="524" type="curve"/>
      <point x="922" y="524" type="line"/>
      <point x="916" y="387"/>
      <point x="824" y="314"/>
      <point x="669" y="314" type="curve" smooth="yes"/>
      <point x="540" y="314"/>
      <point x="473" y="366"/>
      <point x="471" y="439" type="curve" smooth="yes" name="hr00"/>
      <point x="473" y="507"/>
      <point x="529" y="548"/>
      <point x="695" y="585" type="curve" smooth="yes"/>
      <point x="844" y="617" type="line" smooth="yes"/>
      <point x="1108" y="673"/>
      <point x="1269" y="803"/>
      <point x="1268" y="1036" type="curve" smooth="yes"/>
      <point x="1271" y="1319"/>
      <point x="1020" y="1510"/>
      <point x="666" y="1510" type="curve" smooth="yes"/>
      <point x="305" y="1510"/>
      <point x="80" y="1316"/>
      <point x="79" y="1024" type="curve"/>
    </contour>
  </outline>
</glyph>
<glyph name="tpalatalhook" format="2">
  <advance height="2479" width="838"/>
  <unicode hex="01AB"/>
  <anchor x="464" y="0" name="bottom"/>
  <anchor x="570" y="0" name="cedilla"/>
  <anchor x="705" y="1562" name="raccent"/>
  <anchor x="375" y="1542" name="top"/>
  <outline>
    <contour>
      <point x="550" y="268" type="line"/>
      <point x="550" y="-35" type="line" smooth="yes"/>
      <point x="550" y="-143"/>
      <point x="436" y="-160"/>
      <point x="367" y="-160" type="curve" smooth="yes"/>
      <point x="328" y="-160"/>
      <point x="302" y="-157"/>
      <point x="273" y="-154" type="curve"/>
      <point x="273" y="-399" type="line"/>
      <point x="328" y="-410"/>
      <point x="369" y="-416"/>
      <point x="425" y="-416" type="curve" smooth="yes"/>
      <point x="660" y="-416"/>
      <point x="797" y="-279"/>
      <point x="797" y="-35" type="curve" smooth="yes"/>
      <point x="797" y="320" type="line"/>
    </contour>
    <component base="t"/>
  </outline>
</glyph>
<glyph name="Thook" format="2">
  <advance height="2479" width="1469"/>
  <unicode hex="01AC"/>
  <outline>
    <contour>
      <point x="765" y="1489" type="line"/>
      <point x="538" y="1489" type="line" smooth="yes"/>
      <point x="220" y="1489"/>
      <point x="55" y="1324"/>
      <point x="55" y="1044" type="curve" smooth="yes"/>
      <point x="55" y="864" type="line"/>
      <point x="381" y="864" type="line"/>
      <point x="381" y="972" type="line" smooth="yes"/>
      <point x="381" y="1065"/>
      <point x="406" y="1164"/>
      <point x="538" y="1164" type="curve" smooth="yes"/>
      <point x="765" y="1164" type="line"/>
    </contour>
    <contour>
      <point x="1414" y="1489" type="line"/>
      <point x="556" y="1489" type="line"/>
      <point x="556" y="1164" type="line"/>
      <point x="567" y="1164" type="line"/>
      <point x="567" y="0" type="line"/>
      <point x="966" y="0" type="line"/>
      <point x="966" y="1164" type="line"/>
      <point x="1414" y="1164" type="line"/>
    </contour>
  </outline>
</glyph>
<glyph name="thook" format="2">
  <advance height="2479" width="858"/>
  <unicode hex="01AD"/>
  <outline>
    <contour>
      <point x="593" y="-16" type="curve" smooth="yes"/>
      <point x="684" y="-11"/>
      <point x="752" y="8"/>
      <point x="788" y="19" type="curve"/>
      <point x="730" y="301" type="line"/>
      <point x="715" y="297"/>
      <point x="676" y="289"/>
      <point x="652" y="289" type="curve" smooth="yes"/>
      <point x="599" y="289"/>
      <point x="576" y="313"/>
      <point x="576" y="359" type="curve" smooth="yes"/>
      <point x="576" y="1126" type="line"/>
      <point x="175" y="1126" type="line"/>
      <point x="175" y="321" type="line"/>
      <point x="172" y="87"/>
      <point x="316" y="-31"/>
    </contour>
    <contour>
      <point x="32" y="826" type="line"/>
      <point x="768" y="826" type="line"/>
      <point x="768" y="1117" type="line"/>
      <point x="32" y="1117" type="line"/>
    </contour>
    <contour>
      <point x="175" y="913" type="line"/>
      <point x="576" y="913" type="line"/>
      <point x="576" y="1126" type="line" smooth="yes"/>
      <point x="576" y="1193"/>
      <point x="658" y="1207"/>
      <point x="727" y="1207" type="curve" smooth="yes"/>
      <point x="757" y="1207"/>
      <point x="786" y="1204"/>
      <point x="817" y="1201" type="curve"/>
      <point x="817" y="1498" type="line"/>
      <point x="772" y="1501"/>
      <point x="705" y="1510"/>
      <point x="620" y="1510" type="curve" smooth="yes"/>
      <point x="414" y="1510"/>
      <point x="175" y="1478"/>
      <point x="175" y="1126" type="curve" smooth="yes"/>
    </contour>
  </outline>
</glyph>
<glyph name="Uhorn" format="2">
  <advance height="2479" width="1789"/>
  <unicode hex="01AF"/>
  <anchor x="739" y="9" name="bottom"/>
  <anchor x="960" y="10" name="ogonek"/>
  <anchor x="867" y="0" name="right"/>
  <anchor x="739" y="1676" name="top"/>
  <outline>
    <contour>
      <point x="1513" y="1519" type="line"/>
      <point x="1513" y="1327"/>
      <point x="1516" y="1201"/>
      <point x="1280" y="1201" type="curve"/>
      <point x="1280" y="1024" type="line"/>
      <point x="1644" y="1024"/>
      <point x="1734" y="1213"/>
      <point x="1734" y="1519" type="curve"/>
    </contour>
    <component base="U"/>
  </outline>
</glyph>
<glyph name="Upsilon-latin" format="2">
  <advance height="2479" width="1617"/>
  <unicode hex="01B1"/>
  <outline>
    <contour>
      <point x="73" y="666" type="curve" smooth="yes"/>
      <point x="73" y="265"/>
      <point x="378" y="-20"/>
      <point x="809" y="-20" type="curve" smooth="yes"/>
      <point x="1239" y="-20"/>
      <point x="1545" y="265"/>
      <point x="1545" y="666" type="curve"/>
      <point x="1545" y="893"/>
      <point x="1446" y="1053"/>
      <point x="1289" y="1152" type="curve"/>
      <point x="1289" y="1164" type="line"/>
      <point x="1545" y="1164" type="line"/>
      <point x="1545" y="1489" type="line"/>
      <point x="913" y="1489" type="line"/>
      <point x="913" y="1082" type="line"/>
      <point x="1047" y="1030"/>
      <point x="1132" y="881"/>
      <point x="1132" y="707" type="curve" smooth="yes"/>
      <point x="1132" y="489"/>
      <point x="998" y="335"/>
      <point x="809" y="335" type="curve" smooth="yes"/>
      <point x="620" y="335"/>
      <point x="486" y="489"/>
      <point x="486" y="707" type="curve"/>
      <point x="486" y="881"/>
      <point x="570" y="1030"/>
      <point x="704" y="1082" type="curve"/>
      <point x="704" y="1489" type="line"/>
      <point x="73" y="1489" type="line"/>
      <point x="73" y="1164" type="line"/>
      <point x="329" y="1164" type="line"/>
      <point x="329" y="1152" type="line"/>
      <point x="172" y="1053"/>
      <point x="73" y="893"/>
    </contour>
  </outline>
</glyph>
<glyph name="tonefive" format="2">
  <advance height="2479" width="1498"/>
  <unicode hex="01BD"/>
  <outline>
    <contour>
      <point x="652" y="454" type="line" name="hr00"/>
      <point x="671" y="463"/>
      <point x="718" y="465"/>
      <point x="788" y="465" type="curve" smooth="yes"/>
      <point x="881" y="465"/>
      <point x="939" y="431"/>
      <point x="940" y="378" type="curve" smooth="yes"/>
      <point x="939" y="317"/>
      <point x="892" y="285"/>
      <point x="797" y="285" type="curve" smooth="yes"/>
      <point x="700" y="285"/>
      <point x="642" y="297"/>
      <point x="631" y="346" type="curve"/>
      <point x="256" y="335" type="line"/>
      <point x="255" y="84"/>
      <point x="505" y="-17"/>
      <point x="797" y="-17" type="curve" smooth="yes"/>
      <point x="1163" y="-17"/>
      <point x="1314" y="134"/>
      <point x="1315" y="343" type="curve" smooth="yes"/>
      <point x="1314" y="564"/>
      <point x="1163" y="695"/>
      <point x="905" y="695" type="curve" smooth="yes"/>
      <point x="796" y="695"/>
      <point x="718" y="675"/>
      <point x="672" y="655" type="curve"/>
      <point x="698" y="797" type="line"/>
      <point x="1225" y="797" type="line"/>
      <point x="1225" y="1082" type="line"/>
      <point x="396" y="1082" type="line"/>
      <point x="305" y="465" type="line"/>
    </contour>
    <contour>
      <point x="512" y="1082" type="line"/>
      <point x="183" y="1082" type="line"/>
      <point x="183" y="797" type="line"/>
      <point x="512" y="797" type="line"/>
    </contour>
  </outline>
</glyph>
<glyph name="Hwair" format="2">
  <advance height="2479" width="2312"/>
  <unicode hex="01F6"/>
  <outline>
    <contour>
      <point x="1623" y="-20" type="curve" smooth="yes"/>
      <point x="1990" y="-20"/>
      <point x="2211" y="186"/>
      <point x="2211" y="521" type="curve" smooth="yes"/>
      <point x="2211" y="1068" type="line"/>
      <point x="1807" y="1068" type="line"/>
      <point x="1807" y="521" type="line" smooth="yes"/>
      <point x="1807" y="390"/>
      <point x="1737" y="311"/>
      <point x="1623" y="311" type="curve" smooth="yes"/>
      <point x="1510" y="311"/>
      <point x="1440" y="390"/>
      <point x="1440" y="521" type="curve" smooth="yes"/>
      <point x="1440" y="1489" type="line"/>
      <point x="1036" y="1489" type="line"/>
      <point x="1036" y="908" type="line"/>
      <point x="500" y="908" type="line"/>
      <point x="500" y="1489" type="line"/>
      <point x="96" y="1489" type="line"/>
      <point x="96" y="0" type="line"/>
      <point x="500" y="0" type="line"/>
      <point x="500" y="582" type="line"/>
      <point x="1036" y="582" type="line"/>
      <point x="1036" y="521" type="line" smooth="yes"/>
      <point x="1036" y="186"/>
      <point x="1260" y="-20"/>
    </contour>
  </outline>
</glyph>
<glyph name="Yogh" format="2">
  <advance height="2479" width="1457"/>
  <unicode hex="021C"/>
  <anchor x="707" y="1676" name="top"/>
  <outline>
    <contour>
      <point x="705" y="-442" type="curve" smooth="yes"/>
      <point x="1104" y="-442"/>
      <point x="1411" y="-164"/>
      <point x="1411" y="225" type="curve" smooth="yes"/>
      <point x="1411" y="529"/>
      <point x="1223" y="709"/>
      <point x="844" y="751" type="curve"/>
      <point x="675" y="553" type="line"/>
      <point x="873" y="553"/>
      <point x="986" y="429"/>
      <point x="986" y="225" type="curve" smooth="yes"/>
      <point x="986" y="20"/>
      <point x="872" y="-108"/>
      <point x="709" y="-108" type="curve" smooth="yes"/>
      <point x="566" y="-108"/>
      <point x="468" y="-9"/>
      <point x="463" y="137" type="curve"/>
      <point x="55" y="137" type="line"/>
      <point x="61" y="-199"/>
      <point x="333" y="-442"/>
    </contour>
    <contour>
      <point x="364" y="319" type="line"/>
      <point x="1023" y="433"/>
      <point x="1350" y="692"/>
      <point x="1350" y="1048" type="curve" smooth="yes"/>
      <point x="1350" y="1343"/>
      <point x="1127" y="1510"/>
      <point x="738" y="1510" type="curve" smooth="yes"/>
      <point x="330" y="1510"/>
      <point x="102" y="1327"/>
      <point x="102" y="1007" type="curve"/>
      <point x="495" y="1007" type="line"/>
      <point x="495" y="1097"/>
      <point x="576" y="1158"/>
      <point x="718" y="1158" type="curve" smooth="yes"/>
      <point x="868" y="1158"/>
      <point x="957" y="1090"/>
      <point x="957" y="981" type="curve" smooth="yes"/>
      <point x="957" y="820"/>
      <point x="761" y="714"/>
      <point x="364" y="644" type="curve"/>
    </contour>
  </outline>
</glyph>
<glyph name="yogh" format="2">
  <advance height="2479" width="1305"/>
  <unicode hex="021D"/>
  <outline>
    <contour>
      <point x="336" y="144" type="line"/>
      <point x="877" y="304"/>
      <point x="1187" y="545"/>
      <point x="1187" y="804" type="curve" smooth="yes"/>
      <point x="1187" y="1014"/>
      <point x="983" y="1132"/>
      <point x="652" y="1132" type="curve" smooth="yes"/>
      <point x="285" y="1132"/>
      <point x="70" y="986"/>
      <point x="71" y="733" type="curve"/>
      <point x="458" y="733" type="line"/>
      <point x="456" y="812"/>
      <point x="519" y="858"/>
      <point x="621" y="858" type="curve" smooth="yes"/>
      <point x="714" y="858"/>
      <point x="783" y="820"/>
      <point x="783" y="751" type="curve" smooth="yes"/>
      <point x="783" y="642"/>
      <point x="620" y="521"/>
      <point x="336" y="420" type="curve"/>
    </contour>
    <contour>
      <point x="634" y="-441" type="curve" smooth="yes"/>
      <point x="981" y="-441"/>
      <point x="1239" y="-239"/>
      <point x="1238" y="44" type="curve" smooth="yes"/>
      <point x="1238" y="266"/>
      <point x="1080" y="422"/>
      <point x="762" y="463" type="curve"/>
      <point x="570" y="244" type="line"/>
      <point x="755" y="244"/>
      <point x="846" y="172"/>
      <point x="846" y="55" type="curve" smooth="yes"/>
      <point x="846" y="-61"/>
      <point x="756" y="-139"/>
      <point x="626" y="-139" type="curve" smooth="yes"/>
      <point x="533" y="-139"/>
      <point x="455" y="-99"/>
      <point x="454" y="-47" type="curve"/>
      <point x="67" y="-47" type="line"/>
      <point x="69" y="-271"/>
      <point x="316" y="-441"/>
    </contour>
  </outline>
</glyph>
<glyph name="Nlongrightleg" format="2">
  <advance height="2479" width="1324"/>
  <unicode hex="0220"/>
  <outline>
    <contour>
      <point x="823" y="-419" type="line"/>
      <point x="1228" y="-419" type="line"/>
      <point x="1228" y="1085" type="line" smooth="yes"/>
      <point x="1228" y="1328"/>
      <point x="1072" y="1504"/>
      <point x="835" y="1504" type="curve" smooth="yes"/>
      <point x="671" y="1504"/>
      <point x="540" y="1418"/>
      <point x="492" y="1277" type="curve"/>
      <point x="480" y="1277" type="line"/>
      <point x="480" y="1489" type="line"/>
      <point x="96" y="1489" type="line"/>
      <point x="96" y="0" type="line"/>
      <point x="500" y="0" type="line"/>
      <point x="500" y="1001" type="line" smooth="yes"/>
      <point x="500" y="1111"/>
      <point x="564" y="1178"/>
      <point x="663" y="1178" type="curve" smooth="yes"/>
      <point x="764" y="1178"/>
      <point x="823" y="1111"/>
      <point x="823" y="1001" type="curve" smooth="yes"/>
    </contour>
  </outline>
</glyph>
<glyph name="ou" format="2">
  <advance height="2479" width="1425"/>
  <unicode hex="0223"/>
  <outline>
    <contour>
      <point x="704" y="928" type="line" name="hr00"/>
      <point x="367" y="928"/>
      <point x="131" y="800"/>
      <point x="131" y="474" type="curve" smooth="yes"/>
      <point x="131" y="157"/>
      <point x="367" y="-20"/>
      <point x="704" y="-20" type="curve" smooth="yes"/>
      <point x="724" y="-20" type="line" smooth="yes"/>
      <point x="1059" y="-20"/>
      <point x="1295" y="157"/>
      <point x="1295" y="474" type="curve" smooth="yes"/>
      <point x="1295" y="800"/>
      <point x="1056" y="928"/>
      <point x="724" y="928" type="curve" smooth="yes"/>
    </contour>
    <contour>
      <point x="724" y="666" type="line"/>
      <point x="858" y="666"/>
      <point x="916" y="582"/>
      <point x="916" y="474" type="curve" smooth="yes"/>
      <point x="916" y="367"/>
      <point x="858" y="282"/>
      <point x="724" y="282" type="curve" smooth="yes"/>
      <point x="704" y="282" type="line" smooth="yes"/>
      <point x="576" y="282"/>
      <point x="509" y="367"/>
      <point x="509" y="474" type="curve" smooth="yes"/>
      <point x="509" y="582"/>
      <point x="576" y="666"/>
      <point x="704" y="666" type="curve" smooth="yes"/>
    </contour>
    <contour>
      <point x="721" y="966" type="curve" smooth="yes"/>
      <point x="704" y="966" type="line" smooth="yes"/>
      <point x="561" y="966"/>
      <point x="509" y="1018"/>
      <point x="509" y="1135" type="curve" smooth="yes"/>
      <point x="509" y="1216"/>
      <point x="550" y="1257"/>
      <point x="591" y="1265" type="curve"/>
      <point x="591" y="1556" type="line"/>
      <point x="311" y="1559"/>
      <point x="131" y="1420"/>
      <point x="131" y="1143" type="curve" smooth="yes"/>
      <point x="131" y="823"/>
      <point x="367" y="707"/>
      <point x="704" y="707" type="curve" smooth="yes"/>
      <point x="721" y="707" type="line" smooth="yes"/>
      <point x="1062" y="707"/>
      <point x="1295" y="823"/>
      <point x="1295" y="1143" type="curve" smooth="yes"/>
      <point x="1295" y="1425"/>
      <point x="1111" y="1559"/>
      <point x="835" y="1556" type="curve"/>
      <point x="835" y="1265" type="line"/>
      <point x="876" y="1257"/>
      <point x="922" y="1216"/>
      <point x="922" y="1135" type="curve" smooth="yes"/>
      <point x="922" y="1021"/>
      <point x="867" y="966"/>
    </contour>
  </outline>
</glyph>
<glyph name="zhook" format="2">
  <advance height="2479" width="1201"/>
  <unicode hex="0225"/>
  <outline>
    <contour>
      <point x="817" y="-297" type="line"/>
      <point x="1143" y="-297" type="line"/>
      <point x="1143" y="-143" type="line"/>
      <point x="1143" y="143"/>
      <point x="972" y="303"/>
      <point x="660" y="303" type="curve" smooth="yes"/>
      <point x="605" y="303" type="line"/>
      <point x="1076" y="908" type="line"/>
      <point x="1076" y="1117" type="line"/>
      <point x="145" y="1117" type="line"/>
      <point x="145" y="815" type="line"/>
      <point x="585" y="815" type="line"/>
      <point x="113" y="207" type="line"/>
      <point x="113" y="0" type="line"/>
      <point x="660" y="0" type="line" smooth="yes"/>
      <point x="797" y="0"/>
      <point x="817" y="-119"/>
      <point x="817" y="-209" type="curve" smooth="yes"/>
    </contour>
  </outline>
</glyph>
<glyph name="lcurl" format="2">
  <advance height="2479" width="972"/>
  <unicode hex="0234"/>
  <outline>
    <contour>
      <point x="73" y="308" type="line"/>
      <point x="73" y="47" type="line"/>
      <point x="71" y="-303"/>
      <point x="368" y="-419"/>
      <point x="547" y="-419" type="curve" smooth="yes"/>
      <point x="764" y="-419"/>
      <point x="897" y="-244"/>
      <point x="899" y="-93" type="curve" smooth="yes"/>
      <point x="897" y="55"/>
      <point x="772" y="201"/>
      <point x="579" y="201" type="curve" smooth="yes"/>
      <point x="377" y="201"/>
      <point x="92" y="44"/>
      <point x="-116" y="-84" type="curve" smooth="yes"/>
      <point x="-236" y="-157" type="line"/>
      <point x="-55" y="-372" type="line"/>
      <point x="148" y="-227" type="line" smooth="yes"/>
      <point x="316" y="-108"/>
      <point x="420" y="-52"/>
      <point x="544" y="-52" type="curve" smooth="yes"/>
      <point x="580" y="-52"/>
      <point x="601" y="-93"/>
      <point x="602" y="-105" type="curve" smooth="yes"/>
      <point x="601" y="-134"/>
      <point x="577" y="-166"/>
      <point x="553" y="-166" type="curve" smooth="yes"/>
      <point x="487" y="-166"/>
      <point x="473" y="-125"/>
      <point x="474" y="-55" type="curve"/>
      <point x="474" y="308" type="line"/>
    </contour>
    <contour>
      <point x="474" y="1489" type="line"/>
      <point x="73" y="1489" type="line"/>
      <point x="73" y="0" type="line"/>
      <point x="474" y="0" type="line"/>
    </contour>
  </outline>
</glyph>
<glyph name="ncurl" format="2">
  <advance height="2479" width="1693"/>
  <unicode hex="0235"/>
  <anchor x="663" y="0" name="bottom"/>
  <anchor x="663" y="1303" name="top"/>
  <outline>
    <contour>
      <point x="826" y="93" type="line"/>
      <point x="826" y="0" type="line" smooth="yes"/>
      <point x="826" y="-273"/>
      <point x="1039" y="-353"/>
      <point x="1236" y="-352" type="curve" smooth="yes"/>
      <point x="1495" y="-351"/>
      <point x="1653" y="-215"/>
      <point x="1652" y="-26" type="curve" smooth="yes"/>
      <point x="1652" y="159"/>
      <point x="1498" y="294"/>
      <point x="1300" y="294" type="curve" smooth="yes"/>
      <point x="1084" y="294"/>
      <point x="912" y="308"/>
      <point x="681" y="32" type="curve" smooth="yes"/>
      <point x="561" y="-111" type="line"/>
      <point x="745" y="-265" type="line"/>
      <point x="893" y="-87" type="line" smooth="yes"/>
      <point x="1012" y="55"/>
      <point x="1227" y="78"/>
      <point x="1280" y="76" type="curve" smooth="yes"/>
      <point x="1319" y="74"/>
      <point x="1356" y="47"/>
      <point x="1356" y="0" type="curve" smooth="yes"/>
      <point x="1356" y="-47"/>
      <point x="1332" y="-76"/>
      <point x="1295" y="-76" type="curve" smooth="yes"/>
      <point x="1253" y="-76"/>
      <point x="1228" y="-47"/>
      <point x="1228" y="0" type="curve" smooth="yes"/>
      <point x="1228" y="93" type="line"/>
    </contour>
    <component base="n"/>
  </outline>
</glyph>
<glyph name="dbdigraph" format="2">
  <advance height="2479" width="2051"/>
  <unicode hex="0238"/>
  <outline>
    <contour>
      <point x="506" y="-15" type="curve" smooth="yes"/>
      <point x="663" y="-15"/>
      <point x="771" y="70"/>
      <point x="817" y="183" type="curve"/>
      <point x="826" y="183" type="line"/>
      <point x="826" y="0" type="line"/>
      <point x="1225" y="0" type="line"/>
      <point x="1225" y="183" type="line"/>
      <point x="1233" y="183" type="line"/>
      <point x="1280" y="70"/>
      <point x="1388" y="-15"/>
      <point x="1545" y="-15" type="curve" smooth="yes"/>
      <point x="1783" y="-15"/>
      <point x="1984" y="172"/>
      <point x="1984" y="559" type="curve" smooth="yes"/>
      <point x="1984" y="963"/>
      <point x="1769" y="1132"/>
      <point x="1548" y="1132" type="curve" smooth="yes"/>
      <point x="1382" y="1132"/>
      <point x="1277" y="1036"/>
      <point x="1233" y="922" type="curve"/>
      <point x="1226" y="922" type="line"/>
      <point x="1226" y="1489" type="line"/>
      <point x="825" y="1489" type="line"/>
      <point x="825" y="922" type="line"/>
      <point x="817" y="922" type="line"/>
      <point x="774" y="1036"/>
      <point x="669" y="1132"/>
      <point x="503" y="1132" type="curve" smooth="yes"/>
      <point x="282" y="1132"/>
      <point x="67" y="963"/>
      <point x="67" y="559" type="curve" smooth="yes"/>
      <point x="67" y="172"/>
      <point x="268" y="-15"/>
    </contour>
    <contour>
      <point x="655" y="294" type="curve" smooth="yes"/>
      <point x="544" y="294"/>
      <point x="480" y="393"/>
      <point x="480" y="559" type="curve" smooth="yes"/>
      <point x="480" y="724"/>
      <point x="544" y="823"/>
      <point x="655" y="823" type="curve" smooth="yes"/>
      <point x="765" y="823"/>
      <point x="832" y="724"/>
      <point x="832" y="559" type="curve" smooth="yes"/>
      <point x="832" y="396"/>
      <point x="765" y="294"/>
    </contour>
    <contour>
      <point x="1396" y="294" type="curve" smooth="yes"/>
      <point x="1286" y="294"/>
      <point x="1219" y="396"/>
      <point x="1219" y="559" type="curve" smooth="yes"/>
      <point x="1219" y="724"/>
      <point x="1286" y="823"/>
      <point x="1396" y="823" type="curve" smooth="yes"/>
      <point x="1507" y="823"/>
      <point x="1571" y="724"/>
      <point x="1571" y="559" type="curve" smooth="yes"/>
      <point x="1571" y="393"/>
      <point x="1507" y="294"/>
    </contour>
  </outline>
</glyph>
<glyph name="Cstroke" format="2">
  <advance height="2479" width="1574"/>
  <unicode hex="023B"/>
  <anchor x="800" y="6" name="cedilla"/>
  <anchor x="809" y="1676" name="top"/>
  <outline>
    <contour>
      <point x="404" y="-189" type="line"/>
      <point x="611" y="-189" type="line"/>
      <point x="1175" y="1679" type="line"/>
      <point x="969" y="1679" type="line"/>
    </contour>
    <component base="C"/>
  </outline>
</glyph>
<glyph name="Tdiagonalstroke" format="2">
  <advance height="2479" width="1405"/>
  <unicode hex="023E"/>
  <unicode hex="2C66"/>
  <anchor x="701" y="0" name="bottom"/>
  <anchor x="695" y="0" name="cedilla"/>
  <anchor x="701" y="666" name="cross"/>
  <anchor x="1076" y="163" name="cyrtic"/>
  <anchor x="855" y="0" name="right"/>
  <anchor x="704" y="1676" name="top"/>
  <outline>
    <contour>
      <point x="346" y="-189" type="line"/>
      <point x="553" y="-189" type="line"/>
      <point x="1117" y="1679" type="line"/>
      <point x="911" y="1679" type="line"/>
    </contour>
    <component base="T"/>
  </outline>
</glyph>
<glyph name="sswashtail" format="2">
  <advance height="2479" width="1210"/>
  <unicode hex="023F"/>
  <anchor x="605" y="0" name="bottom"/>
  <anchor x="614" y="0" name="cedilla"/>
  <anchor x="605" y="1303" name="top"/>
  <outline>
    <contour>
      <point x="367" y="311" type="curve"/>
      <point x="128" y="169" type="line"/>
      <point x="291" y="-108" type="line" smooth="yes"/>
      <point x="371" y="-246"/>
      <point x="484" y="-419"/>
      <point x="701" y="-419" type="curve" smooth="yes"/>
      <point x="860" y="-419"/>
      <point x="967" y="-335"/>
      <point x="1050" y="-268" type="curve"/>
      <point x="940" y="-76" type="line"/>
      <point x="887" y="-119"/>
      <point x="820" y="-163"/>
      <point x="719" y="-163" type="curve" smooth="yes"/>
      <point x="621" y="-163"/>
      <point x="575" y="-116"/>
    </contour>
    <component base="s"/>
  </outline>
</glyph>
<glyph name="zswashtail" format="2">
  <advance height="2479" width="1428"/>
  <unicode hex="0240"/>
  <outline>
    <contour>
      <point x="454" y="303" type="line"/>
      <point x="454" y="0" type="line"/>
      <point x="500" y="0" type="line" smooth="yes"/>
      <point x="767" y="0"/>
      <point x="772" y="-419"/>
      <point x="1132" y="-419" type="curve" smooth="yes"/>
      <point x="1281" y="-419"/>
      <point x="1392" y="-343"/>
      <point x="1475" y="-268" type="curve"/>
      <point x="1350" y="-9" type="line"/>
      <point x="1316" y="-35"/>
      <point x="1238" y="-99"/>
      <point x="1169" y="-99" type="curve" smooth="yes"/>
      <point x="967" y="-99"/>
      <point x="964" y="303"/>
      <point x="611" y="303" type="curve" smooth="yes"/>
    </contour>
    <contour>
      <point x="605" y="303" type="line"/>
      <point x="1076" y="908" type="line"/>
      <point x="1076" y="1117" type="line"/>
      <point x="145" y="1117" type="line"/>
      <point x="145" y="815" type="line"/>
      <point x="585" y="815" type="line"/>
      <point x="113" y="207" type="line"/>
      <point x="113" y="0" type="line"/>
      <point x="605" y="0" type="line"/>
    </contour>
  </outline>
</glyph>
<glyph name="Glottalstop" format="2">
  <advance height="2479" width="1222"/>
  <unicode hex="0241"/>
  <outline>
    <contour>
      <point x="592" y="305" type="line"/>
      <point x="941" y="305"/>
      <point x="1170" y="567"/>
      <point x="1170" y="927" type="curve" smooth="yes"/>
      <point x="1170" y="1287"/>
      <point x="941" y="1524"/>
      <point x="583" y="1524" type="curve" smooth="yes"/>
      <point x="263" y="1524"/>
      <point x="56" y="1335"/>
      <point x="53" y="1044" type="curve"/>
      <point x="469" y="1044" type="line"/>
      <point x="480" y="1161"/>
      <point x="523" y="1199"/>
      <point x="599" y="1199" type="curve" smooth="yes"/>
      <point x="717" y="1199"/>
      <point x="754" y="1107"/>
      <point x="754" y="951" type="curve" smooth="yes"/>
      <point x="754" y="749"/>
      <point x="691" y="631"/>
      <point x="586" y="631" type="curve"/>
    </contour>
    <contour>
      <point x="439" y="0" type="line"/>
      <point x="843" y="0" type="line"/>
      <point x="843" y="631" type="line"/>
      <point x="439" y="631" type="line"/>
    </contour>
  </outline>
</glyph>
<glyph name="estroke" format="2">
  <advance height="2479" width="1245"/>
  <unicode hex="0247"/>
  <anchor x="623" y="0" name="bottom"/>
  <anchor x="628" y="0" name="cedilla"/>
  <anchor x="957" y="49" name="ogonek"/>
  <anchor x="623" y="1303" name="top"/>
  <outline>
    <contour>
      <point x="1024" y="1489" type="line"/>
      <point x="817" y="1489" type="line"/>
      <point x="236" y="-419" type="line"/>
      <point x="439" y="-419" type="line"/>
    </contour>
    <component base="e"/>
  </outline>
</glyph>
<glyph name="qhooktail" format="2">
  <advance height="2479" width="1460"/>
  <unicode hex="024B"/>
  <outline>
    <contour>
      <point x="1260" y="-419" type="curve" smooth="yes"/>
      <point x="1350" y="-419"/>
      <point x="1420" y="-410"/>
      <point x="1460" y="-407" type="curve"/>
      <point x="1460" y="-111" type="line"/>
      <point x="1428" y="-113"/>
      <point x="1399" y="-116"/>
      <point x="1370" y="-116" type="curve" smooth="yes"/>
      <point x="1300" y="-116"/>
      <point x="1219" y="-102"/>
      <point x="1219" y="-35" type="curve" smooth="yes"/>
      <point x="1219" y="47" type="line"/>
      <point x="817" y="47" type="line"/>
      <point x="817" y="-35" type="line" smooth="yes"/>
      <point x="817" y="-364"/>
      <point x="1015" y="-419"/>
    </contour>
    <contour>
      <point x="500" y="-15" type="curve" smooth="yes"/>
      <point x="657" y="-15"/>
      <point x="765" y="70"/>
      <point x="812" y="183" type="curve"/>
      <point x="977" y="183" type="line"/>
      <point x="977" y="922" type="line"/>
      <point x="812" y="922" type="line"/>
      <point x="768" y="1036"/>
      <point x="663" y="1132"/>
      <point x="497" y="1132" type="curve" smooth="yes"/>
      <point x="276" y="1132"/>
      <point x="61" y="963"/>
      <point x="61" y="559" type="curve" smooth="yes"/>
      <point x="61" y="172"/>
      <point x="262" y="-15"/>
    </contour>
    <contour>
      <point x="1219" y="47" type="line"/>
      <point x="1219" y="1117" type="line"/>
      <point x="820" y="1117" type="line"/>
      <point x="820" y="861" type="line"/>
      <point x="908" y="559" type="line"/>
      <point x="817" y="250" type="line"/>
      <point x="817" y="47" type="line"/>
    </contour>
    <contour>
      <point x="649" y="294" type="curve" smooth="yes"/>
      <point x="538" y="294"/>
      <point x="474" y="393"/>
      <point x="474" y="559" type="curve" smooth="yes"/>
      <point x="474" y="724"/>
      <point x="538" y="823"/>
      <point x="649" y="823" type="curve" smooth="yes"/>
      <point x="759" y="823"/>
      <point x="826" y="724"/>
      <point x="826" y="559" type="curve" smooth="yes"/>
      <point x="826" y="396"/>
      <point x="759" y="294"/>
    </contour>
  </outline>
</glyph>
<glyph name="Rstroke" format="2">
  <advance height="2479" width="1423"/>
  <unicode hex="024C"/>
  <anchor x="742" y="0" name="bottom"/>
  <anchor x="719" y="1676" name="top"/>
  <outline>
    <contour>
      <point x="381" y="527" type="line"/>
      <point x="381" y="812" type="line"/>
      <point x="12" y="812" type="line"/>
      <point x="12" y="527" type="line"/>
    </contour>
    <component base="R" xOffset="44"/>
  </outline>
</glyph>
<glyph name="Ystroke" format="2">
  <advance height="2479" width="1565"/>
  <unicode hex="024E"/>
  <anchor x="783" y="0" name="bottom"/>
  <anchor x="783" y="556" name="cross"/>
  <anchor x="983" y="0" name="ogonek"/>
  <anchor x="-70" y="1489" name="tonos"/>
  <anchor x="783" y="1676" name="top"/>
  <outline>
    <contour>
      <point x="1539" y="1175" type="line"/>
      <point x="26" y="1175" type="line"/>
      <point x="26" y="986" type="line"/>
      <point x="1539" y="986" type="line"/>
    </contour>
    <component base="Y"/>
  </outline>
</glyph>
<glyph name="bhook" format="2">
  <advance height="2479" width="1321"/>
  <unicode hex="0253"/>
  <outline>
    <contour>
      <point x="815" y="-15" type="curve" smooth="yes"/>
      <point x="1053" y="-15"/>
      <point x="1254" y="172"/>
      <point x="1254" y="559" type="curve" smooth="yes"/>
      <point x="1254" y="963"/>
      <point x="1039" y="1132"/>
      <point x="817" y="1132" type="curve" smooth="yes"/>
      <point x="652" y="1132"/>
      <point x="547" y="1036"/>
      <point x="503" y="922" type="curve"/>
      <point x="497" y="922" type="line"/>
      <point x="497" y="1126" type="line" smooth="yes"/>
      <point x="497" y="1193"/>
      <point x="593" y="1207"/>
      <point x="666" y="1207" type="curve" smooth="yes"/>
      <point x="695" y="1207"/>
      <point x="721" y="1204"/>
      <point x="753" y="1201" type="curve"/>
      <point x="753" y="1498" type="line"/>
      <point x="707" y="1501"/>
      <point x="652" y="1510"/>
      <point x="556" y="1510" type="curve" smooth="yes"/>
      <point x="346" y="1510"/>
      <point x="96" y="1487"/>
      <point x="96" y="1126" type="curve" smooth="yes"/>
      <point x="96" y="0" type="line"/>
      <point x="495" y="0" type="line"/>
      <point x="495" y="183" type="line"/>
      <point x="503" y="183" type="line"/>
      <point x="550" y="70"/>
      <point x="657" y="-15"/>
    </contour>
    <contour>
      <point x="666" y="294" type="curve" smooth="yes"/>
      <point x="556" y="294"/>
      <point x="489" y="396"/>
      <point x="489" y="559" type="curve" smooth="yes"/>
      <point x="489" y="724"/>
      <point x="556" y="823"/>
      <point x="666" y="823" type="curve" smooth="yes"/>
      <point x="777" y="823"/>
      <point x="841" y="724"/>
      <point x="841" y="559" type="curve" smooth="yes"/>
      <point x="841" y="393"/>
      <point x="777" y="294"/>
    </contour>
  </outline>
</glyph>
<glyph name="ccurl" format="2">
  <advance height="2479" width="1254"/>
  <unicode hex="0255"/>
  <outline>
    <contour>
      <point x="652" y="-20" type="curve"/>
      <point x="652" y="273" type="line"/>
      <point x="547" y="273"/>
      <point x="477" y="375"/>
      <point x="477" y="559" type="curve" smooth="yes"/>
      <point x="477" y="742"/>
      <point x="547" y="832"/>
      <point x="652" y="832" type="curve" smooth="yes"/>
      <point x="742" y="832"/>
      <point x="800" y="768"/>
      <point x="812" y="652" type="curve"/>
      <point x="1184" y="652" type="line"/>
      <point x="1181" y="943"/>
      <point x="975" y="1132"/>
      <point x="646" y="1132" type="curve" smooth="yes"/>
      <point x="282" y="1132"/>
      <point x="67" y="899"/>
      <point x="67" y="556" type="curve" smooth="yes"/>
      <point x="67" y="201"/>
      <point x="291" y="-20"/>
    </contour>
    <contour>
      <point x="431" y="-140" type="line"/>
      <point x="713" y="305"/>
      <point x="763" y="364"/>
      <point x="817" y="364" type="curve" smooth="yes"/>
      <point x="839" y="364"/>
      <point x="852" y="349"/>
      <point x="849" y="329" type="curve" smooth="yes"/>
      <point x="845" y="296"/>
      <point x="788" y="273"/>
      <point x="652" y="273" type="curve"/>
      <point x="652" y="-20" type="line"/>
      <point x="1031" y="-20"/>
      <point x="1191" y="155"/>
      <point x="1190" y="340" type="curve" smooth="yes"/>
      <point x="1188" y="516"/>
      <point x="1044" y="605"/>
      <point x="852" y="605" type="curve" smooth="yes"/>
      <point x="585" y="605"/>
      <point x="454" y="431"/>
      <point x="180" y="15" type="curve"/>
    </contour>
  </outline>
</glyph>
<glyph name="dtail" format="2">
  <advance height="2479" width="1327"/>
  <unicode hex="0256"/>
  <anchor x="660" y="0" name="bottom"/>
  <anchor x="1024" y="1280" name="cross"/>
  <anchor x="1341" y="1489" name="raccent"/>
  <anchor x="547" y="1489" name="top"/>
  <outline>
    <contour>
      <point x="1265" y="-419" type="curve" smooth="yes"/>
      <point x="1356" y="-419"/>
      <point x="1426" y="-410"/>
      <point x="1466" y="-407" type="curve"/>
      <point x="1466" y="-111" type="line"/>
      <point x="1435" y="-113"/>
      <point x="1406" y="-116"/>
      <point x="1376" y="-116" type="curve" smooth="yes"/>
      <point x="1307" y="-116"/>
      <point x="1225" y="-102"/>
      <point x="1225" y="-35" type="curve" smooth="yes"/>
      <point x="1225" y="247" type="line"/>
      <point x="826" y="247" type="line"/>
      <point x="826" y="-35" type="line" smooth="yes"/>
      <point x="826" y="-364"/>
      <point x="1022" y="-419"/>
    </contour>
    <component base="d"/>
  </outline>
</glyph>
<glyph name="schwahook" format="2">
  <advance height="2479" width="1728"/>
  <unicode hex="025A"/>
  <outline>
    <contour>
      <point x="617" y="-15" type="curve" smooth="yes"/>
      <point x="963" y="-15"/>
      <point x="1184" y="215"/>
      <point x="1184" y="561" type="curve" smooth="yes"/>
      <point x="1184" y="923"/>
      <point x="966" y="1137"/>
      <point x="608" y="1137" type="curve" smooth="yes"/>
      <point x="298" y="1137"/>
      <point x="99" y="989"/>
      <point x="61" y="756" type="curve"/>
      <point x="428" y="756" type="line"/>
      <point x="451" y="820"/>
      <point x="517" y="855"/>
      <point x="599" y="855" type="curve" smooth="yes"/>
      <point x="677" y="855"/>
      <point x="734" y="808"/>
      <point x="764" y="721" type="curve"/>
      <point x="61" y="559" type="line"/>
      <point x="61" y="551" type="line" smooth="yes"/>
      <point x="61" y="200"/>
      <point x="280" y="-15"/>
    </contour>
    <contour>
      <point x="608" y="268" type="curve" smooth="yes"/>
      <point x="513" y="268"/>
      <point x="440" y="329"/>
      <point x="432" y="417" type="curve"/>
      <point x="786" y="499" type="line"/>
      <point x="786" y="496"/>
      <point x="785" y="493"/>
      <point x="785" y="490" type="curve" smooth="yes"/>
      <point x="772" y="347"/>
      <point x="709" y="268"/>
    </contour>
    <contour>
      <point x="1513" y="256" type="curve" smooth="yes"/>
      <point x="1583" y="256"/>
      <point x="1647" y="279"/>
      <point x="1699" y="308" type="curve"/>
      <point x="1649" y="541" type="line"/>
      <point x="1630" y="538"/>
      <point x="1609" y="541"/>
      <point x="1591" y="541" type="curve" smooth="yes"/>
      <point x="1476" y="541"/>
      <point x="1473" y="666"/>
      <point x="1437" y="896" type="curve"/>
      <point x="986" y="788" type="line"/>
      <point x="986" y="527" type="line"/>
      <point x="1212" y="569" type="line"/>
      <point x="1269" y="378"/>
      <point x="1303" y="256"/>
    </contour>
  </outline>
</glyph>
<glyph name="eopenreversed" format="2">
  <advance height="2479" width="1219"/>
  <unicode hex="025C"/>
  <anchor x="588" y="1303" name="top"/>
  <outline>
    <contour>
      <point x="675" y="588" type="curve"/>
      <point x="401" y="588" type="line"/>
      <point x="401" y="445" type="line"/>
      <point x="576" y="445" type="line" smooth="yes"/>
      <point x="653" y="445"/>
      <point x="755" y="431"/>
      <point x="756" y="349" type="curve" smooth="yes"/>
      <point x="755" y="305"/>
      <point x="705" y="253"/>
      <point x="593" y="253" type="curve" smooth="yes"/>
      <point x="473" y="253"/>
      <point x="420" y="279"/>
      <point x="422" y="320" type="curve"/>
      <point x="49" y="320" type="line"/>
      <point x="48" y="84"/>
      <point x="310" y="-20"/>
      <point x="561" y="-20" type="curve" smooth="yes"/>
      <point x="877" y="-20"/>
      <point x="1127" y="102"/>
      <point x="1129" y="305" type="curve" smooth="yes"/>
      <point x="1127" y="489"/>
      <point x="956" y="588"/>
    </contour>
    <contour>
      <point x="401" y="547" type="line"/>
      <point x="675" y="547" type="line"/>
      <point x="927" y="547"/>
      <point x="1110" y="666"/>
      <point x="1111" y="815" type="curve"/>
      <point x="1110" y="1021"/>
      <point x="877" y="1132"/>
      <point x="561" y="1132" type="curve" smooth="yes"/>
      <point x="292" y="1132"/>
      <point x="63" y="1007"/>
      <point x="64" y="791" type="curve"/>
      <point x="442" y="791" type="line"/>
      <point x="441" y="847"/>
      <point x="505" y="858"/>
      <point x="588" y="858" type="curve" smooth="yes"/>
      <point x="691" y="858"/>
      <point x="732" y="812"/>
      <point x="733" y="774" type="curve"/>
      <point x="732" y="724"/>
      <point x="668" y="692"/>
      <point x="576" y="692" type="curve" smooth="yes"/>
      <point x="401" y="692" type="line"/>
    </contour>
  </outline>
</glyph>
<glyph name="eopenreversedclosed" format="2">
  <advance height="2479" width="1228"/>
  <unicode hex="025E"/>
  <outline>
    <contour>
      <point x="599" y="-20" type="curve" smooth="yes"/>
      <point x="901" y="-20"/>
      <point x="1125" y="102"/>
      <point x="1126" y="305" type="curve" smooth="yes"/>
      <point x="1125" y="489"/>
      <point x="980" y="588"/>
      <point x="710" y="588" type="curve"/>
      <point x="599" y="588" type="line"/>
      <point x="599" y="451" type="line"/>
      <point x="611" y="451" type="line" smooth="yes"/>
      <point x="692" y="451"/>
      <point x="747" y="428"/>
      <point x="748" y="349" type="curve" smooth="yes"/>
      <point x="747" y="305"/>
      <point x="724" y="256"/>
      <point x="628" y="256" type="curve" smooth="yes"/>
      <point x="526" y="256"/>
      <point x="450" y="335"/>
      <point x="451" y="570" type="curve"/>
      <point x="76" y="570" type="line"/>
      <point x="75" y="148"/>
      <point x="357" y="-20"/>
    </contour>
    <contour>
      <point x="710" y="547" type="line" smooth="yes"/>
      <point x="948" y="547"/>
      <point x="1105" y="666"/>
      <point x="1105" y="815" type="curve" smooth="yes"/>
      <point x="1105" y="1021"/>
      <point x="901" y="1132"/>
      <point x="599" y="1132" type="curve" smooth="yes"/>
      <point x="340" y="1132"/>
      <point x="75" y="975"/>
      <point x="76" y="570" type="curve"/>
      <point x="451" y="570" type="line"/>
      <point x="450" y="823"/>
      <point x="558" y="858"/>
      <point x="625" y="858" type="curve" smooth="yes"/>
      <point x="712" y="858"/>
      <point x="727" y="812"/>
      <point x="727" y="774" type="curve" smooth="yes"/>
      <point x="727" y="724"/>
      <point x="692" y="687"/>
      <point x="611" y="687" type="curve" smooth="yes"/>
      <point x="599" y="687" type="line"/>
      <point x="599" y="547" type="line"/>
    </contour>
  </outline>
</glyph>
<glyph name="ghook" format="2">
  <advance height="2479" width="1379"/>
  <unicode hex="0260"/>
  <anchor x="646" y="-416" name="bottom"/>
  <anchor x="1030" y="567" name="cross"/>
  <anchor x="646" y="1303" name="top"/>
  <outline>
    <contour>
      <point x="1233" y="1044" type="line"/>
      <point x="1233" y="1126" type="line" smooth="yes"/>
      <point x="1233" y="1193"/>
      <point x="1327" y="1207"/>
      <point x="1399" y="1207" type="curve" smooth="yes"/>
      <point x="1429" y="1207"/>
      <point x="1423" y="1207"/>
      <point x="1489" y="1201" type="curve"/>
      <point x="1489" y="1498" type="line"/>
      <point x="1441" y="1501"/>
      <point x="1388" y="1510"/>
      <point x="1289" y="1510" type="curve" smooth="yes"/>
      <point x="1080" y="1510"/>
      <point x="832" y="1478"/>
      <point x="832" y="1126" type="curve" smooth="yes"/>
      <point x="832" y="1044" type="line"/>
    </contour>
    <component base="g" xOffset="6"/>
  </outline>
</glyph>
<glyph name="ramshorn" format="2">
  <advance height="2479" width="1356"/>
  <unicode hex="0264"/>
  <outline>
    <contour>
      <point x="678" y="-20" type="curve"/>
      <point x="678" y="230" type="line"/>
      <point x="647" y="230"/>
      <point x="641" y="250"/>
      <point x="643" y="262" type="curve" smooth="yes"/>
      <point x="641" y="308"/>
      <point x="709" y="409"/>
      <point x="864" y="623" type="curve" smooth="yes"/>
      <point x="958" y="751"/>
      <point x="1005" y="815"/>
      <point x="1065" y="815" type="curve" smooth="yes"/>
      <point x="1098" y="815"/>
      <point x="1140" y="788"/>
      <point x="1169" y="762" type="curve"/>
      <point x="1338" y="977" type="line"/>
      <point x="1264" y="1059"/>
      <point x="1174" y="1132"/>
      <point x="1024" y="1132" type="curve" smooth="yes"/>
      <point x="836" y="1132"/>
      <point x="711" y="1018"/>
      <point x="486" y="641" type="curve" smooth="yes"/>
      <point x="385" y="473"/>
      <point x="321" y="358"/>
      <point x="321" y="240" type="curve" smooth="yes"/>
      <point x="321" y="61"/>
      <point x="470" y="-20"/>
    </contour>
    <contour>
      <point x="678" y="-20" type="line"/>
      <point x="880" y="-20"/>
      <point x="1031" y="57"/>
      <point x="1031" y="240" type="curve" smooth="yes"/>
      <point x="1031" y="359"/>
      <point x="969" y="475"/>
      <point x="881" y="621" type="curve" smooth="yes"/>
      <point x="641" y="1018"/>
      <point x="518" y="1132"/>
      <point x="332" y="1132" type="curve" smooth="yes"/>
      <point x="183" y="1132"/>
      <point x="89" y="1059"/>
      <point x="20" y="977" type="curve"/>
      <point x="183" y="762" type="line"/>
      <point x="210" y="788"/>
      <point x="255" y="815"/>
      <point x="288" y="815" type="curve" smooth="yes"/>
      <point x="336" y="815"/>
      <point x="393" y="761"/>
      <point x="543" y="551" type="curve" smooth="yes"/>
      <point x="641" y="413"/>
      <point x="708" y="308"/>
      <point x="710" y="262" type="curve" smooth="yes"/>
      <point x="708" y="250"/>
      <point x="703" y="230"/>
      <point x="678" y="230" type="curve"/>
    </contour>
  </outline>
</glyph>
<glyph name="hhook" format="2">
  <advance height="2479" width="1324"/>
  <unicode hex="0266"/>
  <anchor x="663" y="0" name="bottom"/>
  <anchor x="663" y="1303" name="top"/>
  <outline>
    <contour>
      <point x="483" y="1117" type="line"/>
      <point x="483" y="1129" type="line" smooth="yes"/>
      <point x="483" y="1196"/>
      <point x="577" y="1207"/>
      <point x="646" y="1207" type="curve" smooth="yes"/>
      <point x="679" y="1207"/>
      <point x="705" y="1204"/>
      <point x="736" y="1201" type="curve"/>
      <point x="736" y="1498" type="line"/>
      <point x="690" y="1501"/>
      <point x="635" y="1510"/>
      <point x="538" y="1510" type="curve" smooth="yes"/>
      <point x="329" y="1510"/>
      <point x="102" y="1481"/>
      <point x="102" y="1129" type="curve" smooth="yes"/>
      <point x="102" y="1117" type="line"/>
    </contour>
    <component base="n"/>
  </outline>
</glyph>
<glyph name="henghook" format="2">
  <advance height="2479" width="1324"/>
  <unicode hex="0267"/>
  <anchor x="663" y="0" name="bottom"/>
  <anchor x="663" y="1303" name="top"/>
  <outline>
    <contour>
      <point x="826" y="0" type="line"/>
      <point x="826" y="-35" type="line" smooth="yes"/>
      <point x="826" y="-102"/>
      <point x="743" y="-116"/>
      <point x="675" y="-116" type="curve" smooth="yes"/>
      <point x="641" y="-116"/>
      <point x="615" y="-113"/>
      <point x="585" y="-111" type="curve"/>
      <point x="585" y="-407" type="line"/>
      <point x="630" y="-410"/>
      <point x="685" y="-419"/>
      <point x="783" y="-419" type="curve" smooth="yes"/>
      <point x="1025" y="-419"/>
      <point x="1228" y="-364"/>
      <point x="1228" y="-35" type="curve" smooth="yes"/>
      <point x="1228" y="0" type="line"/>
    </contour>
    <component base="hhook"/>
  </outline>
</glyph>
<glyph name="Ismall" format="2">
  <advance height="2479" width="1140"/>
  <unicode hex="026A"/>
  <outline>
    <contour>
      <point x="931" y="1117" type="line" name="hr00"/>
      <point x="209" y="1117" type="line"/>
      <point x="209" y="817" type="line"/>
      <point x="931" y="817" type="line"/>
    </contour>
    <contour>
      <point x="769" y="1117" type="line"/>
      <point x="368" y="1117" type="line"/>
      <point x="368" y="0" type="line"/>
      <point x="769" y="0" type="line"/>
    </contour>
    <contour>
      <point x="931" y="303" type="line"/>
      <point x="209" y="303" type="line"/>
      <point x="209" y="0" type="line"/>
      <point x="931" y="0" type="line"/>
    </contour>
  </outline>
</glyph>
<glyph name="lbelt" format="2">
  <advance height="2479" width="1146"/>
  <unicode hex="026C"/>
  <outline>
    <contour>
      <point x="1120" y="518" type="line"/>
      <point x="1120" y="759" type="line"/>
      <point x="431" y="759" type="line" smooth="yes"/>
      <point x="372" y="759"/>
      <point x="348" y="788"/>
      <point x="349" y="815" type="curve" smooth="yes"/>
      <point x="348" y="841"/>
      <point x="386" y="867"/>
      <point x="436" y="867" type="curve" smooth="yes"/>
      <point x="482" y="867"/>
      <point x="500" y="832"/>
      <point x="500" y="759" type="curve" smooth="yes"/>
      <point x="500" y="399" type="line"/>
      <point x="902" y="399" type="line"/>
      <point x="902" y="649" type="line" smooth="yes"/>
      <point x="901" y="890"/>
      <point x="811" y="1132"/>
      <point x="442" y="1132" type="curve" smooth="yes"/>
      <point x="153" y="1132"/>
      <point x="25" y="977"/>
      <point x="26" y="803" type="curve" smooth="yes"/>
      <point x="25" y="640"/>
      <point x="130" y="518"/>
      <point x="384" y="518" type="curve" smooth="yes"/>
    </contour>
    <contour>
      <point x="902" y="1489" type="line"/>
      <point x="500" y="1489" type="line"/>
      <point x="500" y="0" type="line"/>
      <point x="902" y="0" type="line"/>
    </contour>
  </outline>
</glyph>
<glyph name="lhookretroflex" format="2">
  <advance height="2479" width="745"/>
  <unicode hex="026D"/>
  <anchor x="303" y="0" name="bottom"/>
  <anchor x="303" y="768" name="cross"/>
  <anchor x="620" y="1489" name="raccent"/>
  <anchor x="303" y="1676" name="top"/>
  <outline>
    <contour>
      <point x="503" y="0" type="line"/>
      <point x="102" y="0" type="line"/>
      <point x="102" y="-35" type="line" smooth="yes"/>
      <point x="102" y="-364"/>
      <point x="300" y="-419"/>
      <point x="547" y="-419" type="curve" smooth="yes"/>
      <point x="644" y="-419"/>
      <point x="699" y="-410"/>
      <point x="745" y="-407" type="curve"/>
      <point x="745" y="-111" type="line"/>
      <point x="713" y="-113"/>
      <point x="684" y="-116"/>
      <point x="655" y="-116" type="curve" smooth="yes"/>
      <point x="585" y="-116"/>
      <point x="503" y="-102"/>
      <point x="503" y="-35" type="curve" smooth="yes"/>
    </contour>
    <component base="l"/>
  </outline>
</glyph>
<glyph name="lezh" format="2">
  <advance height="2479" width="1713"/>
  <unicode hex="026E"/>
  <anchor x="297" y="0" name="bottom"/>
  <anchor x="297" y="768" name="cross"/>
  <anchor x="614" y="1489" name="raccent"/>
  <anchor x="297" y="1676" name="top"/>
  <outline>
    <contour>
      <point x="1063" y="-442" type="curve" smooth="yes"/>
      <point x="1410" y="-441"/>
      <point x="1668" y="-239"/>
      <point x="1667" y="45" type="curve" smooth="yes"/>
      <point x="1667" y="266"/>
      <point x="1509" y="422"/>
      <point x="1191" y="463" type="curve"/>
      <point x="1191" y="474" type="line"/>
      <point x="1593" y="823" type="line"/>
      <point x="1593" y="1117" type="line"/>
      <point x="487.25" y="1117.0" type="line"/>
      <point x="487.25" y="791.0" type="line"/>
      <point x="1113" y="791" type="line"/>
      <point x="1113" y="783" type="line"/>
      <point x="810" y="512" type="line"/>
      <point x="810" y="244" type="line"/>
      <point x="999" y="244" type="line" smooth="yes"/>
      <point x="1184" y="244"/>
      <point x="1275" y="172"/>
      <point x="1276" y="55" type="curve" smooth="yes"/>
      <point x="1275" y="-61"/>
      <point x="1185" y="-139"/>
      <point x="1055" y="-140" type="curve" smooth="yes"/>
      <point x="962" y="-139"/>
      <point x="884" y="-99"/>
      <point x="883" y="-47" type="curve"/>
      <point x="496" y="-47" type="line"/>
      <point x="498" y="-271"/>
      <point x="745" y="-441"/>
    </contour>
    <component base="l" xOffset="-6"/>
  </outline>
</glyph>
<glyph name="mhook" format="2">
  <advance height="2479" width="1926"/>
  <unicode hex="0271"/>
  <anchor x="966" y="0" name="bottom"/>
  <anchor x="966" y="1303" name="top"/>
  <outline>
    <contour>
      <point x="1428" y="0" type="line"/>
      <point x="1428" y="-35" type="line" smooth="yes"/>
      <point x="1428" y="-102"/>
      <point x="1348" y="-116"/>
      <point x="1277" y="-116" type="curve" smooth="yes"/>
      <point x="1246" y="-116"/>
      <point x="1220" y="-113"/>
      <point x="1187" y="-111" type="curve"/>
      <point x="1187" y="-407" type="line"/>
      <point x="1234" y="-410"/>
      <point x="1289" y="-419"/>
      <point x="1385" y="-419" type="curve" smooth="yes"/>
      <point x="1630" y="-419"/>
      <point x="1830" y="-364"/>
      <point x="1830" y="-35" type="curve" smooth="yes"/>
      <point x="1830" y="0" type="line"/>
    </contour>
    <component base="m"/>
  </outline>
</glyph>
<glyph name="nhookretroflex" format="2">
  <advance height="2479" width="1411"/>
  <unicode hex="0273"/>
  <anchor x="663" y="0" name="bottom"/>
  <anchor x="663" y="1303" name="top"/>
  <outline>
    <contour>
      <point x="1228" y="0" type="line"/>
      <point x="826" y="0" type="line"/>
      <point x="826" y="-35" type="line" smooth="yes"/>
      <point x="826" y="-364"/>
      <point x="1025" y="-419"/>
      <point x="1268" y="-419" type="curve" smooth="yes"/>
      <point x="1368" y="-419"/>
      <point x="1420" y="-410"/>
      <point x="1469" y="-407" type="curve"/>
      <point x="1469" y="-111" type="line"/>
      <point x="1403" y="-116"/>
      <point x="1409" y="-116"/>
      <point x="1379" y="-116" type="curve" smooth="yes"/>
      <point x="1307" y="-116"/>
      <point x="1228" y="-102"/>
      <point x="1228" y="-35" type="curve" smooth="yes"/>
    </contour>
    <component base="n"/>
  </outline>
</glyph>
<glyph name="rlonglegturned" format="2">
  <advance height="2479" width="887"/>
  <unicode hex="027A"/>
  <outline>
    <contour>
      <point x="131" y="-15" type="curve"/>
      <point x="250" y="-15"/>
      <point x="343" y="55"/>
      <point x="384" y="212" type="curve"/>
      <point x="396" y="212" type="line"/>
      <point x="396" y="0" type="line"/>
      <point x="785" y="0" type="line"/>
      <point x="785" y="1510" type="line"/>
      <point x="384" y="1510" type="line"/>
      <point x="384" y="535" type="line" smooth="yes"/>
      <point x="384" y="407"/>
      <point x="296" y="323"/>
      <point x="177" y="323" type="curve" smooth="yes"/>
      <point x="136" y="323"/>
      <point x="69" y="329"/>
      <point x="29" y="343" type="curve"/>
      <point x="29" y="1" type="line"/>
      <point x="61" y="-9"/>
      <point x="96" y="-15"/>
    </contour>
  </outline>
</glyph>
<glyph name="Rsmall" format="2">
  <advance height="2479" width="1207"/>
  <unicode hex="0280"/>
  <outline>
    <contour>
      <point x="90" y="0" type="line"/>
      <point x="463" y="0" type="line"/>
      <point x="463" y="817" type="line"/>
      <point x="614" y="817" type="line"/>
      <point x="715" y="817"/>
      <point x="761" y="759"/>
      <point x="759" y="713" type="curve"/>
      <point x="761" y="663"/>
      <point x="712" y="611"/>
      <point x="605" y="611" type="curve"/>
      <point x="320" y="611" type="line"/>
      <point x="320" y="369" type="line"/>
      <point x="605" y="369" type="line"/>
      <point x="933" y="369"/>
      <point x="1140" y="518"/>
      <point x="1137" y="727" type="curve"/>
      <point x="1140" y="954"/>
      <point x="936" y="1117"/>
      <point x="614" y="1117" type="curve"/>
      <point x="90" y="1117" type="line"/>
    </contour>
    <contour>
      <point x="780" y="0" type="line"/>
      <point x="1149" y="0" type="line"/>
      <point x="844" y="599" type="line"/>
      <point x="474" y="599" type="line"/>
    </contour>
  </outline>
</glyph>
<glyph name="Rsmallinverted" format="2">
  <advance height="2479" width="1207"/>
  <unicode hex="0281"/>
  <outline>
    <contour>
      <point x="90" y="0" type="line"/>
      <point x="614" y="0" type="line"/>
      <point x="936" y="0"/>
      <point x="1140" y="163"/>
      <point x="1137" y="390" type="curve"/>
      <point x="1140" y="599"/>
      <point x="933" y="748"/>
      <point x="605" y="748" type="curve"/>
      <point x="320" y="748" type="line"/>
      <point x="320" y="506" type="line"/>
      <point x="605" y="506" type="line"/>
      <point x="712" y="506"/>
      <point x="761" y="454"/>
      <point x="759" y="404" type="curve"/>
      <point x="761" y="358"/>
      <point x="715" y="300"/>
      <point x="614" y="300" type="curve"/>
      <point x="463" y="300" type="line"/>
      <point x="463" y="1117" type="line"/>
      <point x="90" y="1117" type="line"/>
    </contour>
    <contour>
      <point x="474" y="518" type="line"/>
      <point x="844" y="518" type="line"/>
      <point x="1149" y="1117" type="line"/>
      <point x="780" y="1117" type="line"/>
    </contour>
  </outline>
</glyph>
<glyph name="upsilon-latin" format="2">
  <advance height="2479" width="1233"/>
  <unicode hex="028A"/>
  <outline>
    <contour>
      <point x="617" y="-23" type="curve" smooth="yes"/>
      <point x="933" y="-23"/>
      <point x="1172" y="200"/>
      <point x="1172" y="463" type="curve" smooth="yes"/>
      <point x="1172" y="612"/>
      <point x="1095" y="735"/>
      <point x="979" y="809" type="curve"/>
      <point x="979" y="817" type="line"/>
      <point x="1172" y="817" type="line"/>
      <point x="1172" y="1117" type="line"/>
      <point x="695" y="1117" type="line"/>
      <point x="695" y="756" type="line"/>
      <point x="751" y="735"/>
      <point x="793" y="635"/>
      <point x="794" y="519" type="curve" smooth="yes"/>
      <point x="793" y="370"/>
      <point x="723" y="270"/>
      <point x="617" y="271" type="curve" smooth="yes"/>
      <point x="511" y="270"/>
      <point x="440" y="369"/>
      <point x="439" y="518" type="curve" smooth="yes"/>
      <point x="439" y="634"/>
      <point x="481" y="735"/>
      <point x="538" y="756" type="curve"/>
      <point x="538" y="1117" type="line"/>
      <point x="61" y="1117" type="line"/>
      <point x="61" y="817" type="line"/>
      <point x="255" y="817" type="line"/>
      <point x="255" y="809" type="line"/>
      <point x="138" y="735"/>
      <point x="61" y="612"/>
      <point x="61" y="463" type="curve" smooth="yes"/>
      <point x="61" y="200"/>
      <point x="300" y="-23"/>
    </contour>
  </outline>
</glyph>
<glyph name="Ysmall" format="2">
  <advance height="2479" width="1274"/>
  <unicode hex="028F"/>
  <outline>
    <contour>
      <point x="436" y="0" type="line"/>
      <point x="838" y="0" type="line"/>
      <point x="838" y="352" type="line"/>
      <point x="1248" y="1117" type="line"/>
      <point x="788" y="1117" type="line"/>
      <point x="641" y="810" type="line"/>
      <point x="636" y="810" type="line"/>
      <point x="487" y="1117" type="line"/>
      <point x="26" y="1117" type="line"/>
      <point x="436" y="352" type="line"/>
    </contour>
  </outline>
</glyph>
<glyph name="zretroflexhook" format="2">
  <advance height="2479" width="1364"/>
  <unicode hex="0290"/>
  <anchor x="611" y="0" name="bottom"/>
  <anchor x="602" y="559" name="cross"/>
  <anchor x="605" y="1303" name="top"/>
  <outline>
    <contour>
      <point x="847" y="0" type="line"/>
      <point x="847" y="-55" type="line" smooth="yes"/>
      <point x="847" y="-297"/>
      <point x="980" y="-436"/>
      <point x="1219" y="-436" type="curve" smooth="yes"/>
      <point x="1271" y="-436"/>
      <point x="1309" y="-433"/>
      <point x="1364" y="-422" type="curve"/>
      <point x="1364" y="-177" type="line"/>
      <point x="1329" y="-180"/>
      <point x="1309" y="-183"/>
      <point x="1271" y="-183" type="curve" smooth="yes"/>
      <point x="1199" y="-183"/>
      <point x="1094" y="-157"/>
      <point x="1094" y="-55" type="curve" smooth="yes"/>
      <point x="1094" y="0" type="line"/>
    </contour>
    <component base="z"/>
  </outline>
</glyph>
<glyph name="ezhcurl" format="2">
  <advance height="2479" width="1452"/>
  <unicode hex="0293"/>
  <outline>
    <contour>
      <point x="157" y="1117" type="line"/>
      <point x="157" y="803" type="line"/>
      <point x="768" y="803" type="line"/>
      <point x="768" y="791" type="line"/>
      <point x="454" y="512" type="line"/>
      <point x="454" y="244" type="line"/>
      <point x="660" y="244" type="line" smooth="yes"/>
      <point x="794" y="244"/>
      <point x="873" y="175"/>
      <point x="873" y="84" type="curve" smooth="yes"/>
      <point x="873" y="-37"/>
      <point x="808" y="-143"/>
      <point x="640" y="-143" type="curve" smooth="yes"/>
      <point x="505" y="-143"/>
      <point x="424" y="-121"/>
      <point x="425" y="-87" type="curve" smooth="yes"/>
      <point x="425" y="-57"/>
      <point x="457" y="-38"/>
      <point x="512" y="-38" type="curve" smooth="yes"/>
      <point x="604" y="-38"/>
      <point x="711" y="-74"/>
      <point x="794" y="-134" type="curve" smooth="yes"/>
      <point x="1222" y="-442" type="line"/>
      <point x="1370" y="-253" type="line"/>
      <point x="925" y="64" type="line" smooth="yes"/>
      <point x="812" y="144"/>
      <point x="668" y="192"/>
      <point x="497" y="192" type="curve" smooth="yes"/>
      <point x="244" y="192"/>
      <point x="75" y="81"/>
      <point x="76" y="-105" type="curve" smooth="yes"/>
      <point x="76" y="-352"/>
      <point x="380" y="-442"/>
      <point x="596" y="-442" type="curve" smooth="yes"/>
      <point x="1016" y="-442"/>
      <point x="1216" y="-250"/>
      <point x="1216" y="15" type="curve" smooth="yes"/>
      <point x="1216" y="251"/>
      <point x="1086" y="431"/>
      <point x="835" y="463" type="curve"/>
      <point x="835" y="474" type="line"/>
      <point x="1251" y="852" type="line"/>
      <point x="1248" y="1117" type="line"/>
    </contour>
  </outline>
</glyph>
<glyph name="glottalstop" format="2">
  <advance height="2479" width="1239"/>
  <unicode hex="0294"/>
  <anchor x="649" y="228" name="cross"/>
  <outline>
    <contour>
      <point x="599" y="332" type="line"/>
      <point x="948" y="332"/>
      <point x="1178" y="567"/>
      <point x="1178" y="927" type="curve" smooth="yes"/>
      <point x="1178" y="1287"/>
      <point x="948" y="1524"/>
      <point x="591" y="1524" type="curve" smooth="yes"/>
      <point x="271" y="1524"/>
      <point x="63" y="1335"/>
      <point x="61" y="1044" type="curve"/>
      <point x="433" y="1044" type="line"/>
      <point x="444" y="1161"/>
      <point x="505" y="1225"/>
      <point x="586" y="1225" type="curve" smooth="yes"/>
      <point x="699" y="1225"/>
      <point x="768" y="1107"/>
      <point x="768" y="928" type="curve" smooth="yes"/>
      <point x="768" y="749"/>
      <point x="699" y="631"/>
      <point x="593" y="631" type="curve"/>
    </contour>
    <contour>
      <point x="448" y="0" type="line"/>
      <point x="849" y="0" type="line"/>
      <point x="849" y="631" type="line"/>
      <point x="448" y="631" type="line"/>
    </contour>
  </outline>
</glyph>
<glyph name="glottalstopreversed" format="2">
  <advance height="2479" width="1239"/>
  <unicode hex="0295"/>
  <anchor x="591" y="228" name="cross"/>
  <outline>
    <contour>
      <point x="640" y="332" type="curve"/>
      <point x="646" y="631" type="line"/>
      <point x="540" y="631"/>
      <point x="471" y="749"/>
      <point x="471" y="928" type="curve" smooth="yes"/>
      <point x="471" y="1107"/>
      <point x="540" y="1225"/>
      <point x="653" y="1225" type="curve" smooth="yes"/>
      <point x="735" y="1225"/>
      <point x="795" y="1161"/>
      <point x="806" y="1044" type="curve"/>
      <point x="1178" y="1044" type="line"/>
      <point x="1176" y="1335"/>
      <point x="969" y="1524"/>
      <point x="649" y="1524" type="curve" smooth="yes"/>
      <point x="291" y="1524"/>
      <point x="61" y="1287"/>
      <point x="61" y="927" type="curve" smooth="yes"/>
      <point x="61" y="567"/>
      <point x="291" y="332"/>
    </contour>
    <contour>
      <point x="390" y="0" type="line"/>
      <point x="791" y="0" type="line"/>
      <point x="791" y="631" type="line"/>
      <point x="390" y="631" type="line"/>
    </contour>
  </outline>
</glyph>
<glyph name="eopenclosed" format="2">
  <advance height="2479" width="1228"/>
  <unicode hex="029A"/>
  <outline>
    <contour>
      <point x="628" y="-20" type="curve" smooth="yes"/>
      <point x="871" y="-20"/>
      <point x="1153" y="148"/>
      <point x="1152" y="570" type="curve"/>
      <point x="777" y="570" type="line"/>
      <point x="777" y="335"/>
      <point x="702" y="256"/>
      <point x="599" y="256" type="curve" smooth="yes"/>
      <point x="504" y="256"/>
      <point x="481" y="305"/>
      <point x="480" y="349" type="curve" smooth="yes"/>
      <point x="481" y="428"/>
      <point x="536" y="451"/>
      <point x="617" y="451" type="curve" smooth="yes"/>
      <point x="628" y="451" type="line"/>
      <point x="628" y="588" type="line"/>
      <point x="518" y="588" type="line"/>
      <point x="248" y="588"/>
      <point x="103" y="489"/>
      <point x="102" y="305" type="curve" smooth="yes"/>
      <point x="103" y="102"/>
      <point x="327" y="-20"/>
    </contour>
    <contour>
      <point x="518" y="547" type="curve" smooth="yes"/>
      <point x="628" y="547" type="line"/>
      <point x="628" y="687" type="line"/>
      <point x="617" y="687" type="line" smooth="yes"/>
      <point x="536" y="687"/>
      <point x="501" y="724"/>
      <point x="500" y="774" type="curve" smooth="yes"/>
      <point x="501" y="812"/>
      <point x="516" y="858"/>
      <point x="602" y="858" type="curve" smooth="yes"/>
      <point x="670" y="858"/>
      <point x="777" y="823"/>
      <point x="777" y="570" type="curve"/>
      <point x="1152" y="570" type="line"/>
      <point x="1153" y="975"/>
      <point x="888" y="1132"/>
      <point x="628" y="1132" type="curve" smooth="yes"/>
      <point x="327" y="1132"/>
      <point x="123" y="1021"/>
      <point x="122" y="815" type="curve" smooth="yes"/>
      <point x="123" y="666"/>
      <point x="280" y="547"/>
    </contour>
  </outline>
</glyph>
<glyph name="Gsmallhook" format="2">
  <advance height="2479" width="1303"/>
  <unicode hex="029B"/>
  <outline>
    <contour>
      <point x="1105" y="746" type="line"/>
      <point x="1105" y="864" type="line" smooth="yes"/>
      <point x="1105" y="960"/>
      <point x="1151" y="992"/>
      <point x="1236" y="992" type="curve" smooth="yes"/>
      <point x="1271" y="992"/>
      <point x="1297" y="986"/>
      <point x="1327" y="983" type="curve"/>
      <point x="1327" y="1231" type="line"/>
      <point x="1273" y="1242"/>
      <point x="1236" y="1248"/>
      <point x="1178" y="1248" type="curve" smooth="yes"/>
      <point x="942" y="1248"/>
      <point x="791" y="1111"/>
      <point x="791" y="864" type="curve" smooth="yes"/>
      <point x="791" y="746" type="line"/>
    </contour>
    <component base="Gsmall"/>
  </outline>
</glyph>
<glyph name="Lsmall" format="2">
  <advance height="2479" width="1023"/>
  <unicode hex="029F"/>
  <outline>
    <contour>
      <point x="102" y="0" type="line"/>
      <point x="957" y="0" type="line"/>
      <point x="957" y="300" type="line"/>
      <point x="505" y="300" type="line"/>
      <point x="505" y="1117" type="line"/>
      <point x="102" y="1117" type="line"/>
    </contour>
  </outline>
</glyph>
<glyph name="dzcurl" format="2">
  <advance height="2479" width="2737"/>
  <unicode hex="02A5"/>
  <anchor x="660" y="0" name="bottom"/>
  <anchor x="1024" y="1280" name="cross"/>
  <anchor x="1341" y="1489" name="raccent"/>
  <anchor x="547" y="1489" name="top"/>
  <outline>
    <contour>
      <point x="1716" y="0" type="line"/>
      <point x="2301" y="0" type="line" smooth="yes"/>
      <point x="2564" y="0"/>
      <point x="2698" y="180"/>
      <point x="2700" y="358" type="curve" smooth="yes"/>
      <point x="2698" y="538"/>
      <point x="2559" y="655"/>
      <point x="2400" y="655" type="curve" smooth="yes"/>
      <point x="2192" y="655"/>
      <point x="2028" y="461"/>
      <point x="1716" y="12" type="curve" smooth="yes"/>
      <point x="1597" y="-160" type="line"/>
      <point x="1830" y="-297" type="line"/>
      <point x="2063" y="17" type="line" smooth="yes"/>
      <point x="2273" y="303"/>
      <point x="2308" y="367"/>
      <point x="2359" y="367" type="curve" smooth="yes"/>
      <point x="2381" y="367"/>
      <point x="2399" y="352"/>
      <point x="2400" y="343" type="curve" smooth="yes"/>
      <point x="2399" y="311"/>
      <point x="2387" y="303"/>
      <point x="2327" y="303" type="curve" smooth="yes"/>
      <point x="1716" y="303" type="line"/>
    </contour>
    <contour>
      <point x="2121" y="303" type="line"/>
      <point x="1757" y="303" type="line"/>
      <point x="2228" y="908" type="line"/>
      <point x="2228" y="1117" type="line"/>
      <point x="1065" y="1117" type="line"/>
      <point x="1065" y="815" type="line"/>
      <point x="1737" y="815" type="line"/>
      <point x="1265" y="207" type="line"/>
      <point x="1265" y="0" type="line"/>
      <point x="2121" y="0" type="line"/>
    </contour>
    <component base="d"/>
  </outline>
</glyph>
<glyph name="ts" format="2">
  <advance height="2479" width="1941"/>
  <unicode hex="02A6"/>
  <outline>
    <contour>
      <point x="631" y="-16" type="curve" smooth="yes"/>
      <point x="969" y="-16"/>
      <point x="1169" y="121"/>
      <point x="1188" y="361" type="curve"/>
      <point x="790" y="361" type="line"/>
      <point x="782" y="313"/>
      <point x="748" y="289"/>
      <point x="681" y="289" type="curve" smooth="yes"/>
      <point x="614" y="289"/>
      <point x="576" y="313"/>
      <point x="576" y="359" type="curve" smooth="yes"/>
      <point x="576" y="1385" type="line"/>
      <point x="175" y="1385" type="line"/>
      <point x="175" y="321" type="line"/>
      <point x="172" y="96"/>
      <point x="326" y="-16"/>
    </contour>
    <contour>
      <point x="32" y="826" type="line"/>
      <point x="768" y="826" type="line"/>
      <point x="768" y="1117" type="line"/>
      <point x="32" y="1117" type="line"/>
    </contour>
    <contour>
      <point x="1351" y="-20" type="curve" smooth="yes"/>
      <point x="1660" y="-20"/>
      <point x="1888" y="130"/>
      <point x="1889" y="369" type="curve" smooth="yes"/>
      <point x="1888" y="535"/>
      <point x="1777" y="631"/>
      <point x="1549" y="672" type="curve" smooth="yes"/>
      <point x="1322" y="713" type="line" smooth="yes"/>
      <point x="1237" y="728"/>
      <point x="1213" y="759"/>
      <point x="1215" y="791" type="curve" smooth="yes"/>
      <point x="1213" y="838"/>
      <point x="1271" y="864"/>
      <point x="1340" y="864" type="curve" smooth="yes"/>
      <point x="1419" y="864"/>
      <point x="1485" y="822"/>
      <point x="1491" y="753" type="curve"/>
      <point x="1860" y="753" type="line"/>
      <point x="1850" y="990"/>
      <point x="1654" y="1132"/>
      <point x="1331" y="1132" type="curve" smooth="yes"/>
      <point x="1012" y="1132"/>
      <point x="815" y="1001"/>
      <point x="816" y="768" type="curve" smooth="yes"/>
      <point x="815" y="592"/>
      <point x="929" y="479"/>
      <point x="1156" y="439" type="curve" smooth="yes"/>
      <point x="1354" y="404" type="line" smooth="yes"/>
      <point x="1441" y="389"/>
      <point x="1481" y="365"/>
      <point x="1482" y="323" type="curve" smooth="yes"/>
      <point x="1481" y="276"/>
      <point x="1428" y="250"/>
      <point x="1354" y="250" type="curve" smooth="yes"/>
      <point x="1263" y="250"/>
      <point x="1199" y="289"/>
      <point x="1188" y="361" type="curve"/>
      <point x="790" y="361" type="line"/>
      <point x="812" y="132"/>
      <point x="1009" y="-20"/>
    </contour>
  </outline>
</glyph>
<glyph name="tccurl" format="2">
  <advance height="2479" width="1908"/>
  <unicode hex="02A8"/>
  <outline>
    <contour>
      <point x="768" y="1117" type="line"/>
      <point x="32" y="1117" type="line"/>
      <point x="32" y="826" type="line"/>
      <point x="768" y="826" type="line"/>
    </contour>
    <contour>
      <point x="175" y="1385" type="line"/>
      <point x="175" y="326" type="line"/>
      <point x="172" y="108"/>
      <point x="287" y="-12"/>
      <point x="553" y="-12" type="curve" smooth="yes"/>
      <point x="826" y="-12"/>
      <point x="989" y="116"/>
      <point x="1120" y="221" type="curve" smooth="yes"/>
      <point x="1210" y="291"/>
      <point x="1342" y="352"/>
      <point x="1423" y="352" type="curve" smooth="yes"/>
      <point x="1461" y="352"/>
      <point x="1478" y="336"/>
      <point x="1478" y="320" type="curve" smooth="yes"/>
      <point x="1478" y="297"/>
      <point x="1458" y="285"/>
      <point x="1391" y="285" type="curve" smooth="yes"/>
      <point x="1249" y="285"/>
      <point x="1140" y="340"/>
      <point x="1140" y="559" type="curve" smooth="yes"/>
      <point x="1140" y="742"/>
      <point x="1210" y="832"/>
      <point x="1315" y="832" type="curve" smooth="yes"/>
      <point x="1405" y="832"/>
      <point x="1463" y="768"/>
      <point x="1475" y="652" type="curve"/>
      <point x="1847" y="652" type="line"/>
      <point x="1844" y="943"/>
      <point x="1638" y="1132"/>
      <point x="1309" y="1132" type="curve" smooth="yes"/>
      <point x="945" y="1132"/>
      <point x="730" y="899"/>
      <point x="730" y="556" type="curve" smooth="yes"/>
      <point x="730" y="212"/>
      <point x="945" y="-20"/>
      <point x="1315" y="-20" type="curve" smooth="yes"/>
      <point x="1656" y="-20"/>
      <point x="1845" y="176"/>
      <point x="1844" y="375" type="curve" smooth="yes"/>
      <point x="1844" y="538"/>
      <point x="1716" y="634"/>
      <point x="1498" y="634" type="curve" smooth="yes"/>
      <point x="1311" y="634"/>
      <point x="1105" y="564"/>
      <point x="881" y="381" type="curve" smooth="yes"/>
      <point x="780" y="298"/>
      <point x="717" y="265"/>
      <point x="652" y="265" type="curve" smooth="yes"/>
      <point x="599" y="265"/>
      <point x="576" y="288"/>
      <point x="576" y="335" type="curve" smooth="yes"/>
      <point x="576" y="1385" type="line"/>
    </contour>
  </outline>
</glyph>
<glyph name="lsdigraph" format="2">
  <advance height="2479" width="1725"/>
  <unicode hex="02AA"/>
  <anchor x="288" y="0" name="bottom"/>
  <anchor x="233" y="788" name="cross"/>
  <anchor x="550" y="1489" name="raccent"/>
  <anchor x="233" y="1676" name="top"/>
  <outline>
    <contour>
      <point x="391" y="-7" type="line"/>
      <point x="729" y="-7"/>
      <point x="953" y="121"/>
      <point x="972" y="361" type="curve"/>
      <point x="574" y="361" type="line"/>
      <point x="566" y="312"/>
      <point x="549" y="294"/>
      <point x="509" y="294" type="curve"/>
    </contour>
    <contour>
      <point x="1135" y="-20" type="curve" smooth="yes"/>
      <point x="1444" y="-20"/>
      <point x="1672" y="130"/>
      <point x="1673" y="369" type="curve" smooth="yes"/>
      <point x="1672" y="535"/>
      <point x="1561" y="631"/>
      <point x="1333" y="672" type="curve" smooth="yes"/>
      <point x="1106" y="713" type="line" smooth="yes"/>
      <point x="1021" y="728"/>
      <point x="997" y="759"/>
      <point x="999" y="791" type="curve" smooth="yes"/>
      <point x="997" y="838"/>
      <point x="1055" y="864"/>
      <point x="1124" y="864" type="curve" smooth="yes"/>
      <point x="1203" y="864"/>
      <point x="1269" y="822"/>
      <point x="1275" y="753" type="curve"/>
      <point x="1644" y="753" type="line"/>
      <point x="1634" y="990"/>
      <point x="1438" y="1132"/>
      <point x="1115" y="1132" type="curve" smooth="yes"/>
      <point x="796" y="1132"/>
      <point x="599" y="1001"/>
      <point x="600" y="768" type="curve" smooth="yes"/>
      <point x="599" y="592"/>
      <point x="713" y="479"/>
      <point x="940" y="439" type="curve" smooth="yes"/>
      <point x="1138" y="404" type="line" smooth="yes"/>
      <point x="1225" y="389"/>
      <point x="1265" y="365"/>
      <point x="1266" y="323" type="curve" smooth="yes"/>
      <point x="1265" y="276"/>
      <point x="1212" y="250"/>
      <point x="1138" y="250" type="curve" smooth="yes"/>
      <point x="1047" y="250"/>
      <point x="983" y="289"/>
      <point x="972" y="361" type="curve"/>
      <point x="574" y="361" type="line"/>
      <point x="596" y="132"/>
      <point x="793" y="-20"/>
    </contour>
    <component base="l.ss02" xOffset="-70"/>
  </outline>
</glyph>
<glyph name="lzdigraph" format="2">
  <advance height="2479" width="1722"/>
  <unicode hex="02AB"/>
  <outline>
    <contour>
      <point x="1603" y="303" type="line"/>
      <point x="716" y="303" type="line"/>
      <point x="716" y="0" type="line"/>
      <point x="1603" y="0" type="line"/>
    </contour>
    <contour>
      <point x="1591" y="908" type="line"/>
      <point x="1591" y="1117" type="line"/>
      <point x="1321" y="1117" type="line"/>
      <point x="628" y="207" type="line"/>
      <point x="628" y="0" type="line"/>
      <point x="899" y="0" type="line"/>
    </contour>
    <contour>
      <point x="1472" y="1117" type="line"/>
      <point x="288" y="1117" type="line"/>
      <point x="288" y="815" type="line"/>
      <point x="1472" y="815" type="line"/>
    </contour>
    <contour>
      <point x="503" y="1489" type="line"/>
      <point x="102" y="1489" type="line"/>
      <point x="102" y="0" type="line"/>
      <point x="503" y="0" type="line"/>
    </contour>
  </outline>
</glyph>
<glyph name="rturnedmod" format="2">
  <advance height="2479" width="634"/>
  <unicode hex="02B4"/>
  <outline>
    <contour>
      <point x="67" y="655" type="line"/>
      <point x="76" y="652"/>
      <point x="93" y="649"/>
      <point x="119" y="649" type="curve" smooth="yes"/>
      <point x="282" y="649"/>
      <point x="393" y="812"/>
      <point x="393" y="1041" type="curve"/>
      <point x="340" y="1036" type="line"/>
      <point x="340" y="937"/>
      <point x="268" y="899"/>
      <point x="166" y="899" type="curve" smooth="yes"/>
      <point x="119" y="899"/>
      <point x="87" y="905"/>
      <point x="67" y="911" type="curve"/>
    </contour>
    <contour>
      <point x="314" y="826" type="line"/>
      <point x="364" y="655" type="line"/>
      <point x="564" y="655" type="line"/>
      <point x="564" y="1460" type="line"/>
      <point x="314" y="1460" type="line"/>
    </contour>
  </outline>
</glyph>
<glyph name="Rsmallinvertedmod" format="2">
  <advance height="2479" width="1033"/>
  <unicode hex="02B6"/>
  <outline>
    <contour>
      <point x="678" y="1068" type="line"/>
      <point x="911" y="1460" type="line"/>
      <point x="631" y="1460" type="line"/>
      <point x="401" y="1068" type="line"/>
    </contour>
    <contour>
      <point x="497" y="655" type="line"/>
      <point x="732" y="655"/>
      <point x="884" y="774"/>
      <point x="884" y="937" type="curve" smooth="yes"/>
      <point x="884" y="1091"/>
      <point x="732" y="1239"/>
      <point x="495" y="1239" type="curve" smooth="yes"/>
      <point x="273" y="1239" type="line"/>
      <point x="273" y="1030" type="line"/>
      <point x="527" y="1030" type="line" smooth="yes"/>
      <point x="599" y="1030"/>
      <point x="639" y="995"/>
      <point x="640" y="948" type="curve" smooth="yes"/>
      <point x="639" y="896"/>
      <point x="599" y="867"/>
      <point x="532" y="867" type="curve" smooth="yes"/>
      <point x="369" y="867" type="line"/>
      <point x="369" y="1460" type="line"/>
      <point x="122" y="1460" type="line"/>
      <point x="122" y="655" type="line"/>
    </contour>
  </outline>
</glyph>
<glyph name="wmod" format="2">
  <advance height="2479" width="1184"/>
  <unicode hex="02B7"/>
  <outline>
    <contour>
      <point x="212" y="745" type="line"/>
      <point x="483" y="745" type="line"/>
      <point x="585" y="1137" type="line"/>
      <point x="599" y="1137" type="line"/>
      <point x="701" y="745" type="line"/>
      <point x="972" y="745" type="line"/>
      <point x="1172" y="1489" type="line"/>
      <point x="905" y="1489" type="line"/>
      <point x="823" y="1068" type="line"/>
      <point x="815" y="1068" type="line"/>
      <point x="724" y="1489" type="line"/>
      <point x="460" y="1489" type="line"/>
      <point x="372" y="1065" type="line"/>
      <point x="364" y="1065" type="line"/>
      <point x="279" y="1489" type="line"/>
      <point x="12" y="1489" type="line"/>
    </contour>
  </outline>
</glyph>
<glyph name="commaturnedmod" format="2">
  <advance height="2479" width="646"/>
  <unicode hex="02BB"/>
  <outline>
    <contour>
      <point x="140" y="1015" type="line"/>
      <point x="433" y="1015" type="line"/>
      <point x="433" y="1222" type="line" smooth="yes"/>
      <point x="435" y="1370"/>
      <point x="470" y="1460"/>
      <point x="506" y="1536" type="curve"/>
      <point x="332" y="1617" type="line"/>
      <point x="243" y="1533"/>
      <point x="141" y="1373"/>
      <point x="140" y="1222" type="curve" smooth="yes"/>
    </contour>
  </outline>
</glyph>
<glyph name="ringhalfright" format="2">
  <advance height="2479" width="332"/>
  <unicode hex="02BE"/>
  <anchor x="143" y="1140" name="_rhalfring"/>
  <outline>
    <contour>
      <point x="47" y="1108" type="line"/>
      <point x="160" y="1108"/>
      <point x="253" y="1187"/>
      <point x="253" y="1303" type="curve" smooth="yes"/>
      <point x="253" y="1423"/>
      <point x="160" y="1507"/>
      <point x="47" y="1507" type="curve"/>
      <point x="47" y="1366" type="line"/>
      <point x="85" y="1366"/>
      <point x="113" y="1340"/>
      <point x="113" y="1303" type="curve" smooth="yes"/>
      <point x="113" y="1270"/>
      <point x="85" y="1245"/>
      <point x="47" y="1245" type="curve"/>
    </contour>
  </outline>
</glyph>
<glyph name="glottalstopreversedmod" format="2">
  <advance height="2479" width="1050"/>
  <unicode hex="02C1"/>
  <outline>
    <contour>
      <point x="870" y="1527" type="line"/>
      <point x="869" y="1716"/>
      <point x="729" y="1809"/>
      <point x="535" y="1809" type="curve" smooth="yes"/>
      <point x="270" y="1809"/>
      <point x="183" y="1655"/>
      <point x="183" y="1428" type="curve" smooth="yes"/>
      <point x="183" y="1172" type="line" smooth="yes"/>
      <point x="183" y="963"/>
      <point x="299" y="832"/>
      <point x="535" y="832" type="curve" smooth="yes"/>
      <point x="649" y="832" type="line"/>
      <point x="649" y="1036" type="line"/>
      <point x="585" y="1036" type="line" smooth="yes"/>
      <point x="505" y="1036"/>
      <point x="441" y="1065"/>
      <point x="442" y="1158" type="curve" smooth="yes"/>
      <point x="442" y="1417" type="line" smooth="yes"/>
      <point x="441" y="1533"/>
      <point x="444" y="1609"/>
      <point x="529" y="1609" type="curve" smooth="yes"/>
      <point x="590" y="1609"/>
      <point x="616" y="1571"/>
      <point x="614" y="1527" type="curve"/>
    </contour>
    <contour>
      <point x="401" y="1036" type="line"/>
      <point x="401" y="655" type="line"/>
      <point x="666" y="655" type="line"/>
      <point x="666" y="1036" type="line"/>
    </contour>
  </outline>
</glyph>
<glyph name="arrowheadupmod" format="2">
  <advance height="2479" width="1033"/>
  <unicode hex="02C4"/>
  <outline>
    <contour>
      <point x="672" y="567" type="line"/>
      <point x="916" y="567" type="line"/>
      <point x="643" y="1361" type="line"/>
      <point x="457" y="1361" type="line"/>
      <point x="521" y="1004" type="line"/>
    </contour>
    <contour>
      <point x="116" y="567" type="line"/>
      <point x="367" y="567" type="line"/>
      <point x="512" y="1004" type="line"/>
      <point x="576" y="1361" type="line"/>
      <point x="393" y="1361" type="line"/>
    </contour>
  </outline>
</glyph>
<glyph name="arrowheaddownmod" format="2">
  <advance height="2479" width="1033"/>
  <unicode hex="02C5"/>
  <outline>
    <contour>
      <point x="457" y="567" type="line"/>
      <point x="643" y="567" type="line"/>
      <point x="916" y="1361" type="line"/>
      <point x="672" y="1361" type="line"/>
      <point x="521" y="928" type="line"/>
    </contour>
    <contour>
      <point x="393" y="567" type="line"/>
      <point x="576" y="567" type="line"/>
      <point x="512" y="928" type="line"/>
      <point x="367" y="1361" type="line"/>
      <point x="116" y="1361" type="line"/>
    </contour>
  </outline>
</glyph>
<glyph name="caron" format="2">
  <advance height="2479" width="1292"/>
  <unicode hex="02C7"/>
  <anchor x="646" y="1303" name="_top"/>
  <outline>
    <contour>
      <point x="503" y="1591" type="line"/>
      <point x="172" y="1591" type="line"/>
      <point x="172" y="1583" type="line"/>
      <point x="506" y="1251" type="line"/>
      <point x="785" y="1251" type="line"/>
      <point x="1120" y="1583" type="line"/>
      <point x="1120" y="1591" type="line"/>
      <point x="788" y="1591" type="line"/>
      <point x="646" y="1431" type="line"/>
    </contour>
  </outline>
</glyph>
<glyph name="verticallinelowmod" format="2">
  <advance height="2479" width="448"/>
  <unicode hex="02CC"/>
  <outline>
    <contour>
      <point x="335" y="-134" type="line"/>
      <point x="113" y="-134" type="line"/>
      <point x="113" y="-573" type="line"/>
      <point x="335" y="-573" type="line"/>
    </contour>
  </outline>
</glyph>
<glyph name="downtackmod" format="2">
  <advance height="2479" width="847"/>
  <unicode hex="02D5"/>
  <outline>
    <contour>
      <point x="145" y="396" type="line"/>
      <point x="701" y="396" type="line"/>
      <point x="701" y="608" type="line"/>
      <point x="145" y="608" type="line"/>
    </contour>
    <contour>
      <point x="308" y="140" type="line"/>
      <point x="538" y="140" type="line"/>
      <point x="538" y="608" type="line"/>
      <point x="308" y="608" type="line"/>
    </contour>
  </outline>
</glyph>
<glyph name="minusmod" format="2">
  <advance height="2479" width="905"/>
  <unicode hex="02D7"/>
  <outline>
    <contour>
      <point x="157" y="480" type="line"/>
      <point x="157" y="262" type="line"/>
      <point x="751" y="262" type="line"/>
      <point x="751" y="480" type="line"/>
    </contour>
  </outline>
</glyph>
<glyph name="breve" format="2">
  <advance height="2479" width="1033"/>
  <unicode hex="02D8"/>
  <anchor x="516" y="1303" name="_top"/>
  <anchor x="516" y="1655" name="mkmktop_acc"/>
  <outline>
    <contour>
      <point x="662" y="1519" type="line"/>
      <point x="661" y="1455"/>
      <point x="620" y="1396"/>
      <point x="516" y="1396" type="curve" smooth="yes"/>
      <point x="408" y="1396"/>
      <point x="367" y="1457"/>
      <point x="368" y="1519" type="curve"/>
      <point x="118" y="1519" type="line"/>
      <point x="117" y="1329"/>
      <point x="271" y="1207"/>
      <point x="516" y="1207" type="curve" smooth="yes"/>
      <point x="760" y="1207"/>
      <point x="914" y="1329"/>
      <point x="915" y="1519" type="curve"/>
    </contour>
  </outline>
</glyph>
<glyph name="dotaccent" format="2">
  <advance height="2479" width="669"/>
  <unicode hex="02D9"/>
  <anchor x="335" y="1303" name="_top"/>
  <outline>
    <contour>
      <point x="335" y="1233" type="curve" smooth="yes"/>
      <point x="444" y="1233"/>
      <point x="532" y="1316"/>
      <point x="532" y="1417" type="curve" smooth="yes"/>
      <point x="532" y="1518"/>
      <point x="444" y="1600"/>
      <point x="335" y="1600" type="curve" smooth="yes"/>
      <point x="225" y="1600"/>
      <point x="137" y="1518"/>
      <point x="137" y="1417" type="curve" smooth="yes"/>
      <point x="137" y="1316"/>
      <point x="225" y="1233"/>
    </contour>
  </outline>
</glyph>
<glyph name="ring" format="2">
  <advance height="2479" width="884"/>
  <unicode hex="02DA"/>
  <anchor x="442" y="1303" name="_top"/>
  <outline>
    <contour>
      <point x="442" y="1233" type="curve" smooth="yes"/>
      <point x="573" y="1233"/>
      <point x="681" y="1338"/>
      <point x="681" y="1466" type="curve" smooth="yes"/>
      <point x="681" y="1594"/>
      <point x="573" y="1699"/>
      <point x="442" y="1699" type="curve" smooth="yes"/>
      <point x="311" y="1699"/>
      <point x="204" y="1594"/>
      <point x="204" y="1466" type="curve" smooth="yes"/>
      <point x="204" y="1338"/>
      <point x="311" y="1233"/>
    </contour>
    <contour>
      <point x="442" y="1376" type="curve" smooth="yes"/>
      <point x="389" y="1375"/>
      <point x="346" y="1417"/>
      <point x="346" y="1466" type="curve" smooth="yes"/>
      <point x="346" y="1516"/>
      <point x="389" y="1556"/>
      <point x="442" y="1556" type="curve" smooth="yes"/>
      <point x="495" y="1557"/>
      <point x="538" y="1516"/>
      <point x="538" y="1466" type="curve" smooth="yes"/>
      <point x="538" y="1417"/>
      <point x="495" y="1377"/>
    </contour>
  </outline>
</glyph>
<glyph name="ogonek" format="2">
  <advance height="2479" width="640"/>
  <unicode hex="02DB"/>
  <anchor x="515" y="0" name="_ogonek"/>
  <outline>
    <contour>
      <point x="369" y="-404" type="curve" smooth="yes"/>
      <point x="447" y="-404"/>
      <point x="505" y="-381"/>
      <point x="544" y="-361" type="curve"/>
      <point x="497" y="-180" type="line"/>
      <point x="479" y="-183"/>
      <point x="462" y="-192"/>
      <point x="436" y="-192" type="curve" smooth="yes"/>
      <point x="398" y="-192"/>
      <point x="369" y="-166"/>
      <point x="369" y="-116" type="curve" smooth="yes"/>
      <point x="369" y="-58"/>
      <point x="421" y="-29"/>
      <point x="515" y="0" type="curve"/>
      <point x="183" y="99" type="line"/>
      <point x="98" y="61"/>
      <point x="63" y="-87"/>
      <point x="102" y="-212" type="curve" smooth="yes"/>
      <point x="139" y="-335"/>
      <point x="235" y="-404"/>
    </contour>
  </outline>
</glyph>
<glyph name="rhotichookmod" format="2">
  <advance height="2479" width="602"/>
  <unicode hex="02DE"/>
  <anchor x="-49" y="652" name="_rhotichook"/>
  <outline>
    <contour>
      <point x="-55" y="521" type="line"/>
      <point x="166" y="579" type="line"/>
      <point x="219" y="381"/>
      <point x="260" y="250"/>
      <point x="471" y="250" type="curve" smooth="yes"/>
      <point x="542" y="250"/>
      <point x="606" y="273"/>
      <point x="657" y="303" type="curve"/>
      <point x="608" y="535" type="line"/>
      <point x="588" y="532"/>
      <point x="568" y="535"/>
      <point x="550" y="535" type="curve" smooth="yes"/>
      <point x="434" y="535"/>
      <point x="431" y="660"/>
      <point x="396" y="890" type="curve"/>
      <point x="-55" y="783" type="line"/>
    </contour>
  </outline>
</glyph>
<glyph name="gammamod-latin" format="2">
  <advance height="2479" width="1030"/>
  <unicode hex="02E0"/>
  <outline>
    <contour>
      <point x="538" y="1053" type="line"/>
      <point x="445" y="655" type="line"/>
      <point x="634" y="655" type="line"/>
      <point x="948" y="1460" type="line"/>
      <point x="643" y="1460" type="line"/>
    </contour>
    <contour>
      <point x="390" y="1460" type="line"/>
      <point x="81" y="1460" type="line"/>
      <point x="393" y="655" type="line"/>
      <point x="588" y="655" type="line"/>
      <point x="495" y="1053" type="line"/>
    </contour>
    <contour>
      <point x="515" y="224" type="curve" smooth="yes"/>
      <point x="647" y="224"/>
      <point x="775" y="279"/>
      <point x="777" y="431" type="curve" smooth="yes"/>
      <point x="775" y="463"/>
      <point x="755" y="518"/>
      <point x="713" y="602" type="curve" smooth="yes"/>
      <point x="634" y="756" type="line"/>
      <point x="401" y="756" type="line"/>
      <point x="480" y="605" type="line" smooth="yes"/>
      <point x="516" y="532"/>
      <point x="543" y="492"/>
      <point x="544" y="460" type="curve" smooth="yes"/>
      <point x="543" y="425"/>
      <point x="543" y="399"/>
      <point x="515" y="399" type="curve" smooth="yes"/>
      <point x="484" y="399"/>
      <point x="481" y="431"/>
      <point x="483" y="460" type="curve" smooth="yes"/>
      <point x="481" y="492"/>
      <point x="519" y="529"/>
      <point x="559" y="605" type="curve" smooth="yes"/>
      <point x="634" y="756" type="line"/>
      <point x="381" y="756" type="line"/>
      <point x="297" y="591" type="line" smooth="yes"/>
      <point x="260" y="521"/>
      <point x="237" y="465"/>
      <point x="239" y="431" type="curve" smooth="yes"/>
      <point x="237" y="279"/>
      <point x="380" y="224"/>
    </contour>
  </outline>
</glyph>
<glyph name="tonebarhighmod" format="2">
  <advance height="2479" width="829"/>
  <unicode hex="02E6"/>
  <outline>
    <contour>
      <point x="759" y="1457" type="line"/>
      <point x="384" y="1457" type="line"/>
      <point x="384" y="0" type="line"/>
      <point x="759" y="0" type="line"/>
    </contour>
    <contour>
      <point x="727" y="1242" type="line"/>
      <point x="76" y="1242" type="line"/>
      <point x="76" y="940" type="line"/>
      <point x="727" y="940" type="line"/>
    </contour>
  </outline>
</glyph>
<glyph name="tonebarlowmod" format="2">
  <advance height="2479" width="829"/>
  <unicode hex="02E8"/>
  <outline>
    <contour>
      <point x="759" y="1457" type="line"/>
      <point x="384" y="1457" type="line"/>
      <point x="384" y="0" type="line"/>
      <point x="759" y="0" type="line"/>
    </contour>
    <contour>
      <point x="727" y="515" type="line"/>
      <point x="76" y="515" type="line"/>
      <point x="76" y="215" type="line"/>
      <point x="727" y="215" type="line"/>
    </contour>
  </outline>
</glyph>
<glyph name="tonebarextralowmod" format="2">
  <advance height="2479" width="829"/>
  <unicode hex="02E9"/>
  <outline>
    <contour>
      <point x="759" y="1457" type="line"/>
      <point x="384" y="1457" type="line"/>
      <point x="384" y="0" type="line"/>
      <point x="759" y="0" type="line"/>
    </contour>
    <contour>
      <point x="727" y="303" type="line"/>
      <point x="76" y="303" type="line"/>
      <point x="76" y="0" type="line"/>
      <point x="727" y="0" type="line"/>
    </contour>
  </outline>
</glyph>
<glyph name="yangdepartingtone" format="2">
  <advance height="2479" width="1097"/>
  <unicode hex="02EB"/>
  <outline>
    <contour>
      <point x="957" y="602" type="line"/>
      <point x="381" y="602" type="line"/>
      <point x="381" y="300" type="line"/>
      <point x="957" y="300" type="line"/>
    </contour>
    <contour>
      <point x="524" y="908" type="line"/>
      <point x="145" y="908" type="line"/>
      <point x="145" y="0" type="line"/>
      <point x="524" y="0" type="line"/>
    </contour>
  </outline>
</glyph>
<glyph name="voicingmod" format="2">
  <advance height="2479" width="1295"/>
  <unicode hex="02EC"/>
  <outline>
    <contour>
      <point x="497" y="-134" type="line"/>
      <point x="172" y="-134" type="line"/>
      <point x="172" y="-143" type="line"/>
      <point x="529" y="-433" type="line"/>
      <point x="771" y="-433" type="line"/>
      <point x="1123" y="-143" type="line"/>
      <point x="1123" y="-134" type="line"/>
      <point x="806" y="-134" type="line"/>
      <point x="649" y="-256" type="line"/>
    </contour>
  </outline>
</glyph>
<glyph name="unaspiratedmod" format="2">
  <advance height="2479" width="1041"/>
  <unicode hex="02ED"/>
  <outline>
    <contour>
      <point x="870" y="1600" type="line"/>
      <point x="172" y="1600" type="line"/>
      <point x="172" y="1393" type="line"/>
      <point x="870" y="1393" type="line"/>
    </contour>
    <contour>
      <point x="870" y="1344" type="line"/>
      <point x="172" y="1344" type="line"/>
      <point x="172" y="1137" type="line"/>
      <point x="870" y="1137" type="line"/>
    </contour>
  </outline>
</glyph>
<glyph name="lowuparrowheadmod" format="2">
  <advance height="2479" width="841"/>
  <unicode hex="02F0"/>
  <outline>
    <contour>
      <point x="416" y="-291" type="line"/>
      <point x="463" y="-73" type="line"/>
      <point x="332" y="-73" type="line"/>
      <point x="140" y="-556" type="line"/>
      <point x="314" y="-556" type="line"/>
    </contour>
    <contour>
      <point x="529" y="-556" type="line"/>
      <point x="701" y="-556" type="line"/>
      <point x="509" y="-73" type="line"/>
      <point x="381" y="-73" type="line"/>
      <point x="425" y="-291" type="line"/>
    </contour>
  </outline>
</glyph>
<glyph name="lowringmod" format="2">
  <advance height="2479" width="922"/>
  <unicode hex="02F3"/>
  <anchor x="461" y="0" name="_bottom"/>
  <outline>
    <contour>
      <point x="255" y="-215" type="curve" smooth="yes"/>
      <point x="255" y="-314"/>
      <point x="342" y="-390"/>
      <point x="461" y="-390" type="curve" smooth="yes"/>
      <point x="575" y="-390"/>
      <point x="662" y="-317"/>
      <point x="662" y="-215" type="curve" smooth="yes"/>
      <point x="662" y="-122"/>
      <point x="575" y="-44"/>
      <point x="461" y="-44" type="curve" smooth="yes"/>
      <point x="342" y="-44"/>
      <point x="255" y="-122"/>
    </contour>
    <contour>
      <point x="388" y="-215" type="curve" smooth="yes"/>
      <point x="388" y="-180"/>
      <point x="417" y="-154"/>
      <point x="461" y="-154" type="curve" smooth="yes"/>
      <point x="499" y="-154"/>
      <point x="525" y="-180"/>
      <point x="525" y="-215" type="curve" smooth="yes"/>
      <point x="525" y="-256"/>
      <point x="499" y="-282"/>
      <point x="461" y="-282" type="curve" smooth="yes"/>
      <point x="417" y="-282"/>
      <point x="388" y="-256"/>
    </contour>
  </outline>
</glyph>
<glyph name="lowtildemod" format="2">
  <advance height="2479" width="1033"/>
  <unicode hex="02F7"/>
  <outline>
    <contour>
      <point x="721" y="-113" type="line"/>
      <point x="722" y="-175"/>
      <point x="684" y="-195"/>
      <point x="643" y="-195" type="curve" smooth="yes"/>
      <point x="545" y="-195"/>
      <point x="457" y="-113"/>
      <point x="349" y="-113" type="curve" smooth="yes"/>
      <point x="207" y="-113"/>
      <point x="105" y="-256"/>
      <point x="105" y="-396" type="curve"/>
      <point x="311" y="-404" type="line"/>
      <point x="312" y="-349"/>
      <point x="350" y="-329"/>
      <point x="390" y="-329" type="curve" smooth="yes"/>
      <point x="495" y="-329"/>
      <point x="556" y="-404"/>
      <point x="684" y="-404" type="curve" smooth="yes"/>
      <point x="827" y="-404"/>
      <point x="929" y="-268"/>
      <point x="928" y="-125" type="curve"/>
    </contour>
  </outline>
</glyph>
<glyph name="beginlowtonemod" format="2">
  <advance height="2479" width="916"/>
  <unicode hex="02FB"/>
  <outline>
    <contour>
      <point x="236" y="-448" type="line"/>
      <point x="463" y="-448" type="line"/>
      <point x="463" y="-32" type="line"/>
      <point x="236" y="-32" type="line"/>
    </contour>
    <contour>
      <point x="236" y="-448" type="line"/>
      <point x="681" y="-448" type="line"/>
      <point x="681" y="-239" type="line"/>
      <point x="236" y="-239" type="line"/>
    </contour>
  </outline>
</glyph>
<glyph name="shelfmod" format="2">
  <advance height="2479" width="1039"/>
  <unicode hex="02FD"/>
  <outline>
    <contour>
      <point x="692" y="-224" type="line"/>
      <point x="273" y="-224" type="line"/>
      <point x="273" y="-439" type="line"/>
      <point x="692" y="-439" type="line"/>
    </contour>
    <contour>
      <point x="361" y="-44" type="line"/>
      <point x="134" y="-44" type="line"/>
      <point x="134" y="-439" type="line"/>
      <point x="361" y="-439" type="line"/>
    </contour>
    <contour>
      <point x="905" y="-44" type="line"/>
      <point x="678" y="-44" type="line"/>
      <point x="678" y="-439" type="line"/>
      <point x="905" y="-439" type="line"/>
    </contour>
  </outline>
</glyph>
<glyph name="openshelfmod" format="2">
  <advance height="2479" width="1047"/>
  <unicode hex="02FE"/>
  <outline>
    <contour>
      <point x="849" y="-233" type="line"/>
      <point x="337" y="-233" type="line"/>
      <point x="337" y="-448" type="line"/>
      <point x="849" y="-448" type="line"/>
    </contour>
    <contour>
      <point x="425" y="-32" type="line"/>
      <point x="198" y="-32" type="line"/>
      <point x="198" y="-448" type="line"/>
      <point x="425" y="-448" type="line"/>
    </contour>
  </outline>
</glyph>
<glyph name="candraBinducomb" format="2">
  <advance height="2479"/>
  <unicode hex="0310"/>
  <outline>
    <contour>
      <point x="-701" y="1236" type="curve" smooth="yes"/>
      <point x="-458" y="1236"/>
      <point x="-304" y="1376"/>
      <point x="-303" y="1559" type="curve"/>
      <point x="-556" y="1559" type="line"/>
      <point x="-557" y="1498"/>
      <point x="-598" y="1440"/>
      <point x="-701" y="1440" type="curve" smooth="yes"/>
      <point x="-810" y="1440"/>
      <point x="-851" y="1498"/>
      <point x="-849" y="1559" type="curve"/>
      <point x="-1100" y="1559" type="line"/>
      <point x="-1101" y="1367"/>
      <point x="-941" y="1236"/>
    </contour>
    <contour>
      <point x="-698" y="1551" type="curve" smooth="yes"/>
      <point x="-575" y="1551"/>
      <point x="-496" y="1620"/>
      <point x="-495" y="1713" type="curve" smooth="yes"/>
      <point x="-496" y="1807"/>
      <point x="-575" y="1876"/>
      <point x="-698" y="1876" type="curve" smooth="yes"/>
      <point x="-825" y="1876"/>
      <point x="-909" y="1804"/>
      <point x="-908" y="1716" type="curve" smooth="yes"/>
      <point x="-909" y="1635"/>
      <point x="-836" y="1551"/>
    </contour>
  </outline>
</glyph>
<glyph name="breveinvertedcomb" format="2">
  <advance height="2479"/>
  <unicode hex="0311"/>
  <anchor x="-643" y="1146" name="_top"/>
  <outline>
    <contour>
      <point x="-1044" y="1135" type="curve"/>
      <point x="-791" y="1135" type="line"/>
      <point x="-793" y="1196"/>
      <point x="-752" y="1254"/>
      <point x="-646" y="1254" type="curve" smooth="yes"/>
      <point x="-540" y="1254"/>
      <point x="-499" y="1196"/>
      <point x="-497" y="1135" type="curve"/>
      <point x="-244" y="1135" type="line"/>
      <point x="-246" y="1324"/>
      <point x="-403" y="1457"/>
      <point x="-646" y="1457" type="curve" smooth="yes"/>
      <point x="-892" y="1457"/>
      <point x="-1046" y="1324"/>
    </contour>
  </outline>
</glyph>
<glyph name="lefttackbelowcomb" format="2">
  <advance height="2479"/>
  <unicode hex="0318"/>
  <outline>
    <contour>
      <point x="-623" y="-567" type="line"/>
      <point x="-399" y="-567" type="line"/>
      <point x="-399" y="-70" type="line"/>
      <point x="-623" y="-70" type="line"/>
    </contour>
    <contour>
      <point x="-983" y="-422" type="line"/>
      <point x="-419" y="-422" type="line"/>
      <point x="-419" y="-212" type="line"/>
      <point x="-983" y="-212" type="line"/>
    </contour>
  </outline>
</glyph>
<glyph name="righttackbelowcomb" format="2">
  <advance height="2479"/>
  <unicode hex="0319"/>
  <anchor x="-625" y="0" name="_bottom"/>
  <outline>
    <contour>
      <point x="-913" y="-567" type="line"/>
      <point x="-687" y="-567" type="line"/>
      <point x="-687" y="-70" type="line"/>
      <point x="-913" y="-70" type="line"/>
    </contour>
    <contour>
      <point x="-890" y="-422" type="line"/>
      <point x="-329" y="-422" type="line"/>
      <point x="-329" y="-212" type="line"/>
      <point x="-890" y="-212" type="line"/>
    </contour>
  </outline>
</glyph>
<glyph name="leftangleabovecomb" format="2">
  <advance height="2479"/>
  <unicode hex="031A"/>
  <outline>
    <contour>
      <point x="-1027" y="1443" type="line"/>
      <point x="-451" y="1443" type="line"/>
      <point x="-451" y="1658" type="line"/>
      <point x="-1027" y="1658" type="line"/>
    </contour>
    <contour>
      <point x="-535" y="1283" type="line"/>
      <point x="-311" y="1283" type="line"/>
      <point x="-311" y="1658" type="line"/>
      <point x="-535" y="1658" type="line"/>
    </contour>
  </outline>
</glyph>
<glyph name="palatalhookcomb" format="2">
  <advance height="2479"/>
  <unicode hex="0321"/>
  <outline>
    <contour>
      <point x="-326" y="303" type="line"/>
      <point x="-326" y="-44" type="line" smooth="yes"/>
      <point x="-326" y="-145"/>
      <point x="-442" y="-160"/>
      <point x="-515" y="-160" type="curve" smooth="yes"/>
      <point x="-547" y="-160"/>
      <point x="-573" y="-157"/>
      <point x="-605" y="-154" type="curve"/>
      <point x="-605" y="-393" type="line"/>
      <point x="-550" y="-407"/>
      <point x="-515" y="-407"/>
      <point x="-463" y="-407" type="curve" smooth="yes"/>
      <point x="-233" y="-407"/>
      <point x="-87" y="-276"/>
      <point x="-87" y="-44" type="curve" smooth="yes"/>
      <point x="-87" y="303" type="line"/>
    </contour>
  </outline>
</glyph>
<glyph name="retroflexhookcomb" format="2">
  <advance height="2479"/>
  <unicode hex="0322"/>
  <outline>
    <contour>
      <point x="29" y="-407" type="curve" smooth="yes"/>
      <point x="79" y="-407"/>
      <point x="120" y="-407"/>
      <point x="172" y="-393" type="curve"/>
      <point x="172" y="-154" type="line"/>
      <point x="140" y="-157"/>
      <point x="117" y="-160"/>
      <point x="84" y="-160" type="curve" smooth="yes"/>
      <point x="7" y="-160"/>
      <point x="-107" y="-143"/>
      <point x="-108" y="-44" type="curve" smooth="yes"/>
      <point x="-108" y="303" type="line"/>
      <point x="-346" y="303" type="line"/>
      <point x="-346" y="-44" type="line" smooth="yes"/>
      <point x="-345" y="-276"/>
      <point x="-200" y="-407"/>
    </contour>
  </outline>
</glyph>
<glyph name="commaaccentcomb" format="2">
  <advance height="2479"/>
  <unicode hex="0326"/>
  <anchor x="-630" y="0" name="_bottom"/>
  <outline>
    <contour>
      <point x="-508" y="-140" type="line"/>
      <point x="-752" y="-140" type="line"/>
      <point x="-752" y="-224" type="line" smooth="yes"/>
      <point x="-752" y="-346"/>
      <point x="-788" y="-410"/>
      <point x="-831" y="-474" type="curve"/>
      <point x="-656" y="-550" type="line"/>
      <point x="-587" y="-471"/>
      <point x="-508" y="-337"/>
      <point x="-508" y="-201" type="curve" smooth="yes"/>
    </contour>
  </outline>
</glyph>
<glyph name="dblarchinvertedbelowcomb" format="2">
  <advance height="2479"/>
  <unicode hex="032B"/>
  <outline>
    <contour>
      <point x="-1120" y="-111" type="line"/>
      <point x="-1120" y="-253"/>
      <point x="-1018" y="-369"/>
      <point x="-879" y="-369" type="curve" smooth="yes"/>
      <point x="-748" y="-369"/>
      <point x="-634" y="-253"/>
      <point x="-634" y="-111" type="curve"/>
      <point x="-762" y="-111" type="line"/>
      <point x="-762" y="-172"/>
      <point x="-815" y="-212"/>
      <point x="-879" y="-212" type="curve" smooth="yes"/>
      <point x="-948" y="-212"/>
      <point x="-995" y="-172"/>
      <point x="-995" y="-111" type="curve"/>
    </contour>
    <contour>
      <point x="-762" y="-111" type="line"/>
      <point x="-762" y="-253"/>
      <point x="-657" y="-369"/>
      <point x="-527" y="-369" type="curve" smooth="yes"/>
      <point x="-387" y="-369"/>
      <point x="-276" y="-253"/>
      <point x="-276" y="-111" type="curve"/>
      <point x="-407" y="-111" type="line"/>
      <point x="-407" y="-172"/>
      <point x="-454" y="-212"/>
      <point x="-527" y="-212" type="curve" smooth="yes"/>
      <point x="-588" y="-212"/>
      <point x="-634" y="-172"/>
      <point x="-634" y="-111" type="curve"/>
    </contour>
  </outline>
</glyph>
<glyph name="caronbelowcomb" format="2">
  <advance height="2479"/>
  <unicode hex="032C"/>
  <outline>
    <contour>
      <point x="-820" y="-384" type="line"/>
      <point x="-605" y="-384" type="line"/>
      <point x="-247" y="-102" type="line"/>
      <point x="-247" y="-87" type="line"/>
      <point x="-544" y="-87" type="line"/>
      <point x="-713" y="-209" type="line"/>
      <point x="-881" y="-87" type="line"/>
      <point x="-1169" y="-87" type="line"/>
      <point x="-1169" y="-108" type="line"/>
    </contour>
  </outline>
</glyph>
<glyph name="brevebelowcomb" format="2">
  <advance height="2479"/>
  <unicode hex="032E"/>
  <anchor x="-704" y="-3" name="_bottom"/>
  <outline>
    <contour>
      <point x="-553" y="-76" type="line"/>
      <point x="-554" y="-134"/>
      <point x="-598" y="-198"/>
      <point x="-701" y="-198" type="curve" smooth="yes"/>
      <point x="-810" y="-198"/>
      <point x="-851" y="-137"/>
      <point x="-849" y="-76" type="curve"/>
      <point x="-1100" y="-76" type="line"/>
      <point x="-1101" y="-271"/>
      <point x="-941" y="-399"/>
      <point x="-704" y="-399" type="curve" smooth="yes"/>
      <point x="-455" y="-399"/>
      <point x="-304" y="-259"/>
      <point x="-303" y="-76" type="curve"/>
    </contour>
  </outline>
</glyph>
<glyph name="dbllowlinecomb" format="2">
  <advance height="2479"/>
  <unicode hex="0333"/>
  <outline>
    <contour>
      <point x="-239" y="-81" type="line"/>
      <point x="-1181" y="-81" type="line"/>
      <point x="-1181" y="-288" type="line"/>
      <point x="-239" y="-288" type="line"/>
    </contour>
    <contour>
      <point x="-239" y="-367" type="line"/>
      <point x="-1181" y="-367" type="line"/>
      <point x="-1181" y="-573" type="line"/>
      <point x="-239" y="-573" type="line"/>
    </contour>
  </outline>
</glyph>
<glyph name="squarebelowcomb" format="2">
  <advance height="2479"/>
  <unicode hex="033B"/>
  <outline>
    <contour>
      <point x="-925" y="-541" type="line"/>
      <point x="-445" y="-541" type="line"/>
      <point x="-445" y="-81" type="line"/>
      <point x="-925" y="-81" type="line"/>
    </contour>
    <contour>
      <point x="-748" y="-256" type="line"/>
      <point x="-625" y="-256" type="line"/>
      <point x="-625" y="-367" type="line"/>
      <point x="-748" y="-367" type="line"/>
    </contour>
  </outline>
</glyph>
<glyph name="seagullbelowcomb" format="2">
  <advance height="2479"/>
  <unicode hex="033C"/>
  <outline>
    <contour>
      <point x="-531" y="-349" type="line"/>
      <point x="-531" y="-268"/>
      <point x="-484" y="-225"/>
      <point x="-403" y="-225" type="curve" smooth="yes"/>
      <point x="-322" y="-225"/>
      <point x="-275" y="-268"/>
      <point x="-275" y="-349" type="curve"/>
      <point x="-115" y="-349" type="line"/>
      <point x="-115" y="-191"/>
      <point x="-239" y="-95"/>
      <point x="-403" y="-95" type="curve" smooth="yes"/>
      <point x="-567" y="-95"/>
      <point x="-691" y="-191"/>
      <point x="-691" y="-349" type="curve"/>
    </contour>
    <contour>
      <point x="-947" y="-349" type="line"/>
      <point x="-947" y="-268"/>
      <point x="-900" y="-225"/>
      <point x="-819" y="-225" type="curve" smooth="yes"/>
      <point x="-738" y="-225"/>
      <point x="-691" y="-268"/>
      <point x="-691" y="-349" type="curve"/>
      <point x="-531" y="-349" type="line"/>
      <point x="-531" y="-191"/>
      <point x="-655" y="-95"/>
      <point x="-819" y="-95" type="curve" smooth="yes"/>
      <point x="-983" y="-95"/>
      <point x="-1107" y="-191"/>
      <point x="-1107" y="-349" type="curve"/>
    </contour>
  </outline>
</glyph>
